ISO-10303-21;
HEADER;
FILE_DESCRIPTION (( 'STEP AP203' ),
    '1' );
FILE_NAME ('Web Model 86812_88206.step',
    '2018-03-15T13:12:55',
    ( '' ),
    ( '' ),
    'SwSTEP 2.0',
    'SolidWorks 2016',
    '' );
FILE_SCHEMA (( 'CONFIG_CONTROL_DESIGN' ));
ENDSEC;

DATA;
#1 = COORDINATED_UNIVERSAL_TIME_OFFSET ( 5, 0, .BEHIND. ) ;
#2 = AXIS2_PLACEMENT_3D ( 'NONE', #214, #155, #107 ) ;
#3 = CYLINDRICAL_SURFACE ( 'NONE', #224, 6.250000000000000000 ) ;
#4 = CARTESIAN_POINT ( 'NONE',  ( -12.49999999999999600, 1.530808498934191100E-015, 40.33000000000000500 ) ) ;
#5 = ORIENTED_EDGE ( 'NONE', *, *, #49, .T. ) ;
#6 = ORIENTED_EDGE ( 'NONE', *, *, #101, .F. ) ;
#7 = DIRECTION ( 'NONE',  ( -0.0000000000000000000, -0.0000000000000000000, 1.000000000000000000 ) ) ;
#8 = EDGE_CURVE ( 'NONE', #503, #673, #548, .T. ) ;
#9 = CARTESIAN_POINT ( 'NONE',  ( 5.450000000000000200, 0.0000000000000000000, 0.0000000000000000000 ) ) ;
#10 = CARTESIAN_POINT ( 'NONE',  ( 10.15999999999999800, 0.0000000000000000000, 0.0000000000000000000 ) ) ;
#11 = CIRCLE ( 'NONE', #653, 10.16000000000000000 ) ;
#12 = CYLINDRICAL_SURFACE ( 'NONE', #524, 12.99999999999999500 ) ;
#13 = AXIS2_PLACEMENT_3D ( 'NONE', #15, #228, #379 ) ;
#14 = ORIENTED_EDGE ( 'NONE', *, *, #77, .F. ) ;
#15 = CARTESIAN_POINT ( 'NONE',  ( 0.0000000000000000000, 0.0000000000000000000, 45.50000000000000000 ) ) ;
#16 = EDGE_LOOP ( 'NONE', ( #658, #330, #491, #172 ) ) ;
#17 = CARTESIAN_POINT ( 'NONE',  ( -12.49999999999999600, 1.530808498934191100E-015, 39.21000000000000100 ) ) ;
#18 = PLANE ( 'NONE',  #521 ) ;
#19 = AXIS2_PLACEMENT_3D ( 'NONE', #221, #339, #647 ) ;
#20 = DIRECTION ( 'NONE',  ( -0.0000000000000000000, -0.0000000000000000000, 1.000000000000000000 ) ) ;
#21 = PLANE ( 'NONE',  #659 ) ;
#22 = CYLINDRICAL_SURFACE ( 'NONE', #595, 12.99999999999999500 ) ;
#23 = AXIS2_PLACEMENT_3D ( 'NONE', #226, #347, #132 ) ;
#24 = ORIENTED_EDGE ( 'NONE', *, *, #589, .F. ) ;
#25 = ORIENTED_EDGE ( 'NONE', *, *, #611, .T. ) ;
#26 = SECURITY_CLASSIFICATION ( '', '', #231 ) ;
#27 = DIRECTION ( 'NONE',  ( -0.0000000000000000000, -0.0000000000000000000, 1.000000000000000000 ) ) ;
#28 = DIRECTION ( 'NONE',  ( -0.0000000000000000000, -0.0000000000000000000, 1.000000000000000000 ) ) ;
#29 = PERSON_AND_ORGANIZATION_ROLE ( 'classification_officer' ) ;
#30 = AXIS2_PLACEMENT_3D ( 'NONE', #638, #531, #215 ) ;
#31 = DATE_AND_TIME ( #539, #596 ) ;
#32 = FACE_OUTER_BOUND ( 'NONE', #512, .T. ) ;
#33 = PLANE ( 'NONE',  #578 ) ;
#34 = CIRCLE ( 'NONE', #484, 9.050000000000000700 ) ;
#35 =( NAMED_UNIT ( * ) SI_UNIT ( $, .STERADIAN. ) SOLID_ANGLE_UNIT ( ) );
#36 = ORIENTED_EDGE ( 'NONE', *, *, #139, .F. ) ;
#37 = EDGE_CURVE ( 'NONE', #395, #571, #219, .T. ) ;
#38 = CARTESIAN_POINT ( 'NONE',  ( 0.0000000000000000000, 0.0000000000000000000, 0.0000000000000000000 ) ) ;
#39 = CARTESIAN_POINT ( 'NONE',  ( -5.450000000000000200, 6.674325055353075200E-016, -0.8000000000000000400 ) ) ;
#40 = DIRECTION ( 'NONE',  ( -0.0000000000000000000, -0.0000000000000000000, 1.000000000000000000 ) ) ;
#41 = DIRECTION ( 'NONE',  ( 1.000000000000000000, 0.0000000000000000000, 0.0000000000000000000 ) ) ;
#42 = CARTESIAN_POINT ( 'NONE',  ( 0.0000000000000000000, 0.0000000000000000000, 41.70000000000000300 ) ) ;
#43 = CIRCLE ( 'NONE', #661, 12.99999999999999500 ) ;
#44 = VERTEX_POINT ( 'NONE', #485 ) ;
#45 = VERTEX_POINT ( 'NONE', #290 ) ;
#46 = APPROVAL ( #401, 'UNSPECIFIED' ) ;
#47 = CARTESIAN_POINT ( 'NONE',  ( 12.49999999999999600, 0.0000000000000000000, 39.21000000000000100 ) ) ;
#48 = CARTESIAN_POINT ( 'NONE',  ( -9.050000000000000700, 1.108305353228354800E-015, 45.50000000000000000 ) ) ;
#49 = EDGE_CURVE ( 'NONE', #673, #503, #488, .T. ) ;
#50 = FACE_OUTER_BOUND ( 'NONE', #467, .T. ) ;
#51 = VECTOR ( 'NONE', #80, 1000.000000000000000 ) ;
#52 = ORIENTED_EDGE ( 'NONE', *, *, #430, .T. ) ;
#53 = PERSON_AND_ORGANIZATION ( #117, #209 ) ;
#54 = FACE_OUTER_BOUND ( 'NONE', #189, .T. ) ;
#55 = ORIENTED_EDGE ( 'NONE', *, *, #530, .T. ) ;
#56 = VERTEX_POINT ( 'NONE', #170 ) ;
#57 = DIRECTION ( 'NONE',  ( -0.0000000000000000000, -0.0000000000000000000, 1.000000000000000000 ) ) ;
#58 = EDGE_CURVE ( 'NONE', #328, #220, #564, .T. ) ;
#59 = CARTESIAN_POINT ( 'NONE',  ( 0.0000000000000000000, 0.0000000000000000000, 45.25000000000000000 ) ) ;
#60 = CALENDAR_DATE ( 2018, 15, 3 ) ;
#61 = LINE ( 'NONE', #273, #325 ) ;
#62 = CYLINDRICAL_SURFACE ( 'NONE', #552, 5.450000000000000200 ) ;
#63 = CARTESIAN_POINT ( 'NONE',  ( 0.0000000000000000000, 0.0000000000000000000, 45.50000000000000000 ) ) ;
#64 = EDGE_CURVE ( 'NONE', #565, #588, #171, .T. ) ;
#65 = CARTESIAN_POINT ( 'NONE',  ( -12.99999999999999800, 1.592040838891558900E-015, 41.70000000000000300 ) ) ;
#66 = APPROVAL_DATE_TIME ( #31, #46 ) ;
#67 = ORIENTED_EDGE ( 'NONE', *, *, #415, .T. ) ;
#68 = EDGE_LOOP ( 'NONE', ( #127, #55, #130, #212 ) ) ;
#69 = VERTEX_POINT ( 'NONE', #342 ) ;
#70 = CARTESIAN_POINT ( 'NONE',  ( 10.15999999999999800, 0.0000000000000000000, 3.900000000000000400 ) ) ;
#71 = DIRECTION ( 'NONE',  ( 1.000000000000000000, 0.0000000000000000000, 0.0000000000000000000 ) ) ;
#72 = DIRECTION ( 'NONE',  ( 1.000000000000000000, 0.0000000000000000000, 0.0000000000000000000 ) ) ;
#73 = CC_DESIGN_APPROVAL ( #46, ( #610 ) ) ;
#74 = CARTESIAN_POINT ( 'NONE',  ( 0.0000000000000000000, 0.0000000000000000000, 0.0000000000000000000 ) ) ;
#75 = DATE_AND_TIME ( #472, #366 ) ;
#76 = PERSON_AND_ORGANIZATION_ROLE ( 'creator' ) ;
#77 = EDGE_CURVE ( 'NONE', #673, #166, #606, .T. ) ;
#78 = CARTESIAN_POINT ( 'NONE',  ( -9.050000000000000700, 1.108305353228354800E-015, 45.50000000000000000 ) ) ;
#79 = CIRCLE ( 'NONE', #378, 10.15999999999999800 ) ;
#80 = DIRECTION ( 'NONE',  ( -0.0000000000000000000, -0.0000000000000000000, 1.000000000000000000 ) ) ;
#81 = ORIENTED_EDGE ( 'NONE', *, *, #626, .F. ) ;
#82 =( NAMED_UNIT ( * ) PLANE_ANGLE_UNIT ( ) SI_UNIT ( $, .RADIAN. ) );
#83 = DIRECTION ( 'NONE',  ( -0.0000000000000000000, -0.0000000000000000000, 1.000000000000000000 ) ) ;
#84 = APPROVAL_ROLE ( '' ) ;
#85 = CC_DESIGN_PERSON_AND_ORGANIZATION_ASSIGNMENT ( #89, #29, ( #26 ) ) ;
#86 = CARTESIAN_POINT ( 'NONE',  ( 6.250000000000000000, 0.0000000000000000000, 0.0000000000000000000 ) ) ;
#87 = DIRECTION ( 'NONE',  ( -1.000000000000000000, 0.0000000000000000000, 0.0000000000000000000 ) ) ;
#88 = CARTESIAN_POINT ( 'NONE',  ( 0.0000000000000000000, 0.0000000000000000000, 45.50000000000000000 ) ) ;
#89 = PERSON_AND_ORGANIZATION ( #117, #209 ) ;
#90 = DIRECTION ( 'NONE',  ( 1.000000000000000000, 0.0000000000000000000, 0.0000000000000000000 ) ) ;
#91 = CIRCLE ( 'NONE', #291, 10.15999999999999800 ) ;
#92 = VERTEX_POINT ( 'NONE', #441 ) ;
#93 = AXIS2_PLACEMENT_3D ( 'NONE', #461, #185, #90 ) ;
#94 = DIRECTION ( 'NONE',  ( 1.000000000000000000, 0.0000000000000000000, 0.0000000000000000000 ) ) ;
#95 = DIRECTION ( 'NONE',  ( 0.0000000000000000000, 0.0000000000000000000, -1.000000000000000000 ) ) ;
#96 = ADVANCED_FACE ( 'NONE', ( #54 ), #433, .T. ) ;
#97 = DIRECTION ( 'NONE',  ( 1.000000000000000000, 0.0000000000000000000, 0.0000000000000000000 ) ) ;
#98 = FACE_OUTER_BOUND ( 'NONE', #234, .T. ) ;
#99 = EDGE_LOOP ( 'NONE', ( #623, #67, #526, #363 ) ) ;
#100 = AXIS2_PLACEMENT_3D ( 'NONE', #136, #28, #293 ) ;
#101 = EDGE_CURVE ( 'NONE', #104, #573, #91, .T. ) ;
#102 = VECTOR ( 'NONE', #523, 1000.000000000000000 ) ;
#103 = VECTOR ( 'NONE', #452, 1000.000000000000000 ) ;
#104 = VERTEX_POINT ( 'NONE', #70 ) ;
#105 = ORIENTED_EDGE ( 'NONE', *, *, #101, .T. ) ;
#106 = CARTESIAN_POINT ( 'NONE',  ( 5.450000000000000200, 0.0000000000000000000, 0.0000000000000000000 ) ) ;
#107 = DIRECTION ( 'NONE',  ( 1.000000000000000000, 0.0000000000000000000, 0.0000000000000000000 ) ) ;
#108 = CC_DESIGN_DATE_AND_TIME_ASSIGNMENT ( #75, #597, ( #610 ) ) ;
#109 = DIRECTION ( 'NONE',  ( 1.000000000000000000, 0.0000000000000000000, 0.0000000000000000000 ) ) ;
#110 = PERSON_AND_ORGANIZATION ( #117, #209 ) ;
#111 = CIRCLE ( 'NONE', #302, 6.250000000000000000 ) ;
#112 = ORIENTED_EDGE ( 'NONE', *, *, #116, .T. ) ;
#113 = ORIENTED_EDGE ( 'NONE', *, *, #458, .F. ) ;
#114 = DIRECTION ( 'NONE',  ( 1.000000000000000000, 0.0000000000000000000, 0.0000000000000000000 ) ) ;
#115 = EDGE_LOOP ( 'NONE', ( #396, #141, #305, #384 ) ) ;
#116 = EDGE_CURVE ( 'NONE', #220, #92, #140, .T. ) ;
#117 = PERSON ( 'UNSPECIFIED', 'UNSPECIFIED', 'UNSPECIFIED', ('UNSPECIFIED'), ('UNSPECIFIED'), ('UNSPECIFIED') ) ;
#118 = CC_DESIGN_SECURITY_CLASSIFICATION ( #26, ( #147 ) ) ;
#119 = VECTOR ( 'NONE', #160, 1000.000000000000200 ) ;
#120 = FACE_OUTER_BOUND ( 'NONE', #617, .T. ) ;
#121 = ORIENTED_EDGE ( 'NONE', *, *, #159, .F. ) ;
#122 = CARTESIAN_POINT ( 'NONE',  ( 0.0000000000000000000, 0.0000000000000000000, 3.900000000000000400 ) ) ;
#123 = AXIS2_PLACEMENT_3D ( 'NONE', #553, #416, #97 ) ;
#124 = EDGE_CURVE ( 'NONE', #222, #565, #43, .T. ) ;
#125 = VECTOR ( 'NONE', #309, 1000.000000000000000 ) ;
#126 = APPROVAL ( #651, 'UNSPECIFIED' ) ;
#127 = ORIENTED_EDGE ( 'NONE', *, *, #425, .F. ) ;
#128 = DIRECTION ( 'NONE',  ( -0.0000000000000000000, -0.0000000000000000000, 1.000000000000000000 ) ) ;
#129 = DIRECTION ( 'NONE',  ( 0.0000000000000000000, -0.0000000000000000000, 1.000000000000000000 ) ) ;
#130 = ORIENTED_EDGE ( 'NONE', *, *, #317, .T. ) ;
#131 = ORIENTED_EDGE ( 'NONE', *, *, #58, .F. ) ;
#132 = DIRECTION ( 'NONE',  ( 1.000000000000000000, 0.0000000000000000000, 0.0000000000000000000 ) ) ;
#133 = CARTESIAN_POINT ( 'NONE',  ( 12.99999999999999800, 0.0000000000000000000, 0.0000000000000000000 ) ) ;
#134 = APPLICATION_CONTEXT ( 'configuration controlled 3d designs of mechanical parts and assemblies' ) ;
#135 = DIRECTION ( 'NONE',  ( 1.000000000000000000, 0.0000000000000000000, 0.0000000000000000000 ) ) ;
#136 = CARTESIAN_POINT ( 'NONE',  ( 0.0000000000000000000, 0.0000000000000000000, 0.0000000000000000000 ) ) ;
#137 = APPROVAL_STATUS ( 'not_yet_approved' ) ;
#138 = FACE_OUTER_BOUND ( 'NONE', #404, .T. ) ;
#139 = EDGE_CURVE ( 'NONE', #56, #255, #585, .T. ) ;
#140 = CIRCLE ( 'NONE', #316, 9.050000000000000700 ) ;
#141 = ORIENTED_EDGE ( 'NONE', *, *, #8, .T. ) ;
#142 = DIRECTION ( 'NONE',  ( -0.0000000000000000000, -0.0000000000000000000, 1.000000000000000000 ) ) ;
#143 = CARTESIAN_POINT ( 'NONE',  ( 0.0000000000000000000, 0.0000000000000000000, 40.32999999999999800 ) ) ;
#144 = CIRCLE ( 'NONE', #2, 12.49999999999999600 ) ;
#145 = DIRECTION ( 'NONE',  ( -0.0000000000000000000, -0.0000000000000000000, 1.000000000000000000 ) ) ;
#146 = ORIENTED_EDGE ( 'NONE', *, *, #202, .F. ) ;
#147 = PRODUCT_DEFINITION_FORMATION_WITH_SPECIFIED_SOURCE ( 'ANY', '', #161, .NOT_KNOWN. ) ;
#148 = ORIENTED_EDGE ( 'NONE', *, *, #670, .T. ) ;
#149 = ADVANCED_FACE ( 'NONE', ( #511 ), #12, .T. ) ;
#150 = EDGE_CURVE ( 'NONE', #92, #220, #34, .T. ) ;
#151 = FACE_OUTER_BOUND ( 'NONE', #16, .T. ) ;
#152 = ORIENTED_EDGE ( 'NONE', *, *, #631, .F. ) ;
#153 = PLANE ( 'NONE',  #417 ) ;
#154 = AXIS2_PLACEMENT_3D ( 'NONE', #157, #429, #109 ) ;
#155 = DIRECTION ( 'NONE',  ( -0.0000000000000000000, -0.0000000000000000000, 1.000000000000000000 ) ) ;
#156 = LINE ( 'NONE', #301, #125 ) ;
#157 = CARTESIAN_POINT ( 'NONE',  ( 0.0000000000000000000, 0.0000000000000000000, 39.21000000000000100 ) ) ;
#158 = ORIENTED_EDGE ( 'NONE', *, *, #530, .F. ) ;
#159 = EDGE_CURVE ( 'NONE', #255, #573, #621, .T. ) ;
#160 = DIRECTION ( 'NONE',  ( 0.9960377053144617900, 0.0000000000000000000, 0.08893193797450546500 ) ) ;
#161 = PRODUCT ( 'Web Model 86812_88206', 'Web Model 86812_88206', '', ( #348 ) ) ;
#162 = CARTESIAN_POINT ( 'NONE',  ( 9.050000000000000700, 0.0000000000000000000, 45.50000000000000000 ) ) ;
#163 = LOCAL_TIME ( 9, 12, 55.00000000000000000, #662 ) ;
#164 = EDGE_LOOP ( 'NONE', ( #5, #25, #200, #14 ) ) ;
#165 = DIRECTION ( 'NONE',  ( -0.0000000000000000000, -0.0000000000000000000, 1.000000000000000000 ) ) ;
#166 = VERTEX_POINT ( 'NONE', #352 ) ;
#167 = EDGE_CURVE ( 'NONE', #166, #482, #296, .T. ) ;
#168 = DIRECTION ( 'NONE',  ( -0.0000000000000000000, -0.0000000000000000000, 1.000000000000000000 ) ) ;
#169 = DIRECTION ( 'NONE',  ( -0.0000000000000000000, -0.0000000000000000000, 1.000000000000000000 ) ) ;
#170 = CARTESIAN_POINT ( 'NONE',  ( 10.16000000000000000, 0.0000000000000000000, -0.8000000000000000400 ) ) ;
#171 = LINE ( 'NONE', #223, #383 ) ;
#172 = ORIENTED_EDGE ( 'NONE', *, *, #575, .F. ) ;
#173 = EDGE_LOOP ( 'NONE', ( #622, #566 ) ) ;
#174 = CARTESIAN_POINT ( 'NONE',  ( 0.0000000000000000000, 0.0000000000000000000, 3.900000000000000400 ) ) ;
#175 = PERSON_AND_ORGANIZATION_ROLE ( 'creator' ) ;
#176 = EDGE_CURVE ( 'NONE', #44, #615, #634, .T. ) ;
#177 = LINE ( 'NONE', #579, #525 ) ;
#178 = LINE ( 'NONE', #86, #51 ) ;
#179 = EDGE_LOOP ( 'NONE', ( #52, #362 ) ) ;
#180 = EDGE_LOOP ( 'NONE', ( #368, #370 ) ) ;
#181 = APPROVAL_ROLE ( '' ) ;
#182 = CARTESIAN_POINT ( 'NONE',  ( 12.99999999999999500, 0.0000000000000000000, 40.32999999999999800 ) ) ;
#183 = DIRECTION ( 'NONE',  ( -0.0000000000000000000, -0.0000000000000000000, 1.000000000000000000 ) ) ;
#184 = CARTESIAN_POINT ( 'NONE',  ( 0.0000000000000000000, 0.0000000000000000000, 41.70000000000000300 ) ) ;
#185 = DIRECTION ( 'NONE',  ( -0.0000000000000000000, -0.0000000000000000000, 1.000000000000000000 ) ) ;
#186 = AXIS2_PLACEMENT_3D ( 'NONE', #380, #639, #483 ) ;
#187 = CARTESIAN_POINT ( 'NONE',  ( 0.0000000000000000000, 0.0000000000000000000, 45.50000000000000000 ) ) ;
#188 = ORIENTED_EDGE ( 'NONE', *, *, #603, .F. ) ;
#189 = EDGE_LOOP ( 'NONE', ( #121, #280, #558, #376 ) ) ;
#190 = ORIENTED_EDGE ( 'NONE', *, *, #150, .F. ) ;
#191 = CARTESIAN_POINT ( 'NONE',  ( 0.0000000000000000000, 0.0000000000000000000, 39.21000000000000100 ) ) ;
#192 = EDGE_CURVE ( 'NONE', #45, #206, #519, .T. ) ;
#193 = APPROVAL ( #137, 'UNSPECIFIED' ) ;
#194 = ADVANCED_FACE ( 'NONE', ( #333 ), #248, .F. ) ;
#195 = CARTESIAN_POINT ( 'NONE',  ( 0.0000000000000000000, 0.0000000000000000000, 0.0000000000000000000 ) ) ;
#196 = CYLINDRICAL_SURFACE ( 'NONE', #618, 12.49999999999999600 ) ;
#197 = ADVANCED_FACE ( 'NONE', ( #457 ), #375, .T. ) ;
#198 = VECTOR ( 'NONE', #605, 1000.000000000000000 ) ;
#199 = AXIS2_PLACEMENT_3D ( 'NONE', #195, #557, #303 ) ;
#200 = ORIENTED_EDGE ( 'NONE', *, *, #167, .F. ) ;
#201 = ADVANCED_FACE ( 'NONE', ( #672 ), #62, .F. ) ;
#202 = EDGE_CURVE ( 'NONE', #397, #588, #319, .T. ) ;
#203 = ADVANCED_FACE ( 'NONE', ( #599 ), #480, .T. ) ;
#204 = CIRCLE ( 'NONE', #237, 6.250000000000000000 ) ;
#205 = ORIENTED_EDGE ( 'NONE', *, *, #213, .T. ) ;
#206 = VERTEX_POINT ( 'NONE', #39 ) ;
#207 = AXIS2_PLACEMENT_3D ( 'NONE', #413, #561, #41 ) ;
#208 = CARTESIAN_POINT ( 'NONE',  ( 0.0000000000000000000, 0.0000000000000000000, 0.0000000000000000000 ) ) ;
#209 = ORGANIZATION ( 'UNSPECIFIED', 'UNSPECIFIED', '' ) ;
#210 = DIRECTION ( 'NONE',  ( 1.000000000000000000, 0.0000000000000000000, 0.0000000000000000000 ) ) ;
#211 = VECTOR ( 'NONE', #537, 1000.000000000000200 ) ;
#212 = ORIENTED_EDGE ( 'NONE', *, *, #478, .F. ) ;
#213 = EDGE_CURVE ( 'NONE', #328, #236, #204, .T. ) ;
#214 = CARTESIAN_POINT ( 'NONE',  ( 0.0000000000000000000, 0.0000000000000000000, 40.33000000000000500 ) ) ;
#215 = DIRECTION ( 'NONE',  ( 1.000000000000000000, 0.0000000000000000000, 0.0000000000000000000 ) ) ;
#216 = CARTESIAN_POINT ( 'NONE',  ( -12.99999999999999800, 1.592040838891558900E-015, 0.0000000000000000000 ) ) ;
#217 = CARTESIAN_POINT ( 'NONE',  ( 6.250000000000000000, 0.0000000000000000000, 45.00000000000000000 ) ) ;
#218 = PERSON_AND_ORGANIZATION ( #117, #209 ) ;
#219 = LINE ( 'NONE', #391, #245 ) ;
#220 = VERTEX_POINT ( 'NONE', #48 ) ;
#221 = CARTESIAN_POINT ( 'NONE',  ( 0.0000000000000000000, 0.0000000000000000000, 0.0000000000000000000 ) ) ;
#222 = VERTEX_POINT ( 'NONE', #182 ) ;
#223 = CARTESIAN_POINT ( 'NONE',  ( -12.99999999999999500, 1.592040838891558500E-015, 0.0000000000000000000 ) ) ;
#224 = AXIS2_PLACEMENT_3D ( 'NONE', #74, #128, #246 ) ;
#225 = CARTESIAN_POINT ( 'NONE',  ( 10.45000000000000100, 1.435898372000271400E-015, 45.50000000000000000 ) ) ;
#226 = CARTESIAN_POINT ( 'NONE',  ( 0.0000000000000000000, 0.0000000000000000000, 39.21000000000000100 ) ) ;
#227 = CARTESIAN_POINT ( 'NONE',  ( 0.0000000000000000000, 0.0000000000000000000, 0.0000000000000000000 ) ) ;
#228 = DIRECTION ( 'NONE',  ( -0.0000000000000000000, -0.0000000000000000000, 1.000000000000000000 ) ) ;
#229 = AXIS2_PLACEMENT_3D ( 'NONE', #390, #27, #650 ) ;
#230 = CARTESIAN_POINT ( 'NONE',  ( 0.0000000000000000000, 0.0000000000000000000, 3.900000000000000400 ) ) ;
#231 = SECURITY_CLASSIFICATION_LEVEL ( 'unclassified' ) ;
#232 = SHAPE_DEFINITION_REPRESENTATION ( #253, #418 ) ;
#233 = CIRCLE ( 'NONE', #252, 10.45000000000000100 ) ;
#234 = EDGE_LOOP ( 'NONE', ( #336, #559 ) ) ;
#235 = DIRECTION ( 'NONE',  ( 1.000000000000000000, 0.0000000000000000000, 0.0000000000000000000 ) ) ;
#236 = VERTEX_POINT ( 'NONE', #241 ) ;
#237 = AXIS2_PLACEMENT_3D ( 'NONE', #405, #145, #506 ) ;
#238 = DIRECTION ( 'NONE',  ( 0.0000000000000000000, 0.0000000000000000000, -1.000000000000000000 ) ) ;
#239 = CARTESIAN_POINT ( 'NONE',  ( 13.00000000000000000, 0.0000000000000000000, 3.900000000000000400 ) ) ;
#240 = CARTESIAN_POINT ( 'NONE',  ( 0.0000000000000000000, 0.0000000000000000000, 0.0000000000000000000 ) ) ;
#241 = CARTESIAN_POINT ( 'NONE',  ( 6.250000000000000000, 0.0000000000000000000, 45.25000000000000000 ) ) ;
#242 = AXIS2_PLACEMENT_3D ( 'NONE', #122, #581, #536 ) ;
#243 = CARTESIAN_POINT ( 'NONE',  ( -10.15999999999999800, 1.244241147933710700E-015, 0.0000000000000000000 ) ) ;
#244 = VECTOR ( 'NONE', #331, 1000.000000000000000 ) ;
#245 = VECTOR ( 'NONE', #394, 1000.000000000000000 ) ;
#246 = DIRECTION ( 'NONE',  ( 1.000000000000000000, 0.0000000000000000000, 0.0000000000000000000 ) ) ;
#247 = ORIENTED_EDGE ( 'NONE', *, *, #317, .F. ) ;
#248 = PLANE ( 'NONE',  #510 ) ;
#249 = ORIENTED_EDGE ( 'NONE', *, *, #478, .T. ) ;
#250 = DIRECTION ( 'NONE',  ( 1.000000000000000000, 0.0000000000000000000, 0.0000000000000000000 ) ) ;
#251 = ORIENTED_EDGE ( 'NONE', *, *, #139, .T. ) ;
#252 = AXIS2_PLACEMENT_3D ( 'NONE', #63, #165, #435 ) ;
#253 = PRODUCT_DEFINITION_SHAPE ( 'NONE', 'NONE',  #610 ) ;
#254 = VECTOR ( 'NONE', #643, 1000.000000000000000 ) ;
#255 = VERTEX_POINT ( 'NONE', #664 ) ;
#256 = ORIENTED_EDGE ( 'NONE', *, *, #326, .F. ) ;
#257 = EDGE_LOOP ( 'NONE', ( #666, #637, #146, #81 ) ) ;
#258 = AXIS2_PLACEMENT_3D ( 'NONE', #230, #282, #398 ) ;
#259 = ADVANCED_FACE ( 'NONE', ( #464, #353 ), #299, .F. ) ;
#260 = CIRCLE ( 'NONE', #560, 6.250000000000000000 ) ;
#261 = CARTESIAN_POINT ( 'NONE',  ( 0.0000000000000000000, 12.49999999999999600, 40.33000000000000500 ) ) ;
#262 = CIRCLE ( 'NONE', #517, 12.49999999999999600 ) ;
#263 = ORIENTED_EDGE ( 'NONE', *, *, #458, .T. ) ;
#264 = ADVANCED_FACE ( 'NONE', ( #98, #447 ), #153, .F. ) ;
#265 = ORIENTED_EDGE ( 'NONE', *, *, #37, .F. ) ;
#266 = AXIS2_PLACEMENT_3D ( 'NONE', #569, #275, #475 ) ;
#267 = CARTESIAN_POINT ( 'NONE',  ( 0.0000000000000000000, 0.0000000000000000000, 45.50000000000000000 ) ) ;
#268 = COORDINATED_UNIVERSAL_TIME_OFFSET ( 5, 0, .BEHIND. ) ;
#269 = FACE_OUTER_BOUND ( 'NONE', #437, .T. ) ;
#270 = EDGE_CURVE ( 'NONE', #334, #69, #233, .T. ) ;
#271 = EDGE_LOOP ( 'NONE', ( #158, #354, #249, #630 ) ) ;
#272 = ORIENTED_EDGE ( 'NONE', *, *, #563, .F. ) ;
#273 = CARTESIAN_POINT ( 'NONE',  ( -5.450000000000000200, 6.674325055353075200E-016, 0.0000000000000000000 ) ) ;
#274 = EDGE_LOOP ( 'NONE', ( #428, #152, #646, #306 ) ) ;
#275 = DIRECTION ( 'NONE',  ( -0.0000000000000000000, -0.0000000000000000000, 1.000000000000000000 ) ) ;
#276 = CARTESIAN_POINT ( 'NONE',  ( 0.0000000000000000000, 0.0000000000000000000, 0.0000000000000000000 ) ) ;
#277 = LINE ( 'NONE', #10, #244 ) ;
#278 = CARTESIAN_POINT ( 'NONE',  ( 0.0000000000000000000, 10.15999999999999800, 3.900000000000000400 ) ) ;
#279 = CIRCLE ( 'NONE', #100, 5.450000000000000200 ) ;
#280 = ORIENTED_EDGE ( 'NONE', *, *, #589, .T. ) ;
#281 = EDGE_CURVE ( 'NONE', #573, #104, #79, .T. ) ;
#282 = DIRECTION ( 'NONE',  ( -0.0000000000000000000, -0.0000000000000000000, 1.000000000000000000 ) ) ;
#283 = CARTESIAN_POINT ( 'NONE',  ( -12.49999999999999600, 1.530808498934191100E-015, 0.0000000000000000000 ) ) ;
#284 = DIRECTION ( 'NONE',  ( 1.000000000000000000, 0.0000000000000000000, 0.0000000000000000000 ) ) ;
#285 = CALENDAR_DATE ( 2018, 15, 3 ) ;
#286 = FACE_OUTER_BOUND ( 'NONE', #164, .T. ) ;
#287 = VERTEX_POINT ( 'NONE', #624 ) ;
#288 = APPLICATION_PROTOCOL_DEFINITION ( 'international standard', 'config_control_design', 1994, #453 ) ;
#289 = EDGE_LOOP ( 'NONE', ( #298, #481, #474, #265 ) ) ;
#290 = CARTESIAN_POINT ( 'NONE',  ( 5.450000000000000200, 0.0000000000000000000, -0.8000000000000000400 ) ) ;
#291 = AXIS2_PLACEMENT_3D ( 'NONE', #174, #641, #135 ) ;
#292 = DIRECTION ( 'NONE',  ( -0.0000000000000000000, -0.0000000000000000000, 1.000000000000000000 ) ) ;
#293 = DIRECTION ( 'NONE',  ( 1.000000000000000000, 0.0000000000000000000, 0.0000000000000000000 ) ) ;
#294 = CARTESIAN_POINT ( 'NONE',  ( 0.0000000000000000000, 10.45000000000000100, 45.50000000000000000 ) ) ;
#295 = DIRECTION ( 'NONE',  ( -0.0000000000000000000, -0.0000000000000000000, 1.000000000000000000 ) ) ;
#296 = CIRCLE ( 'NONE', #23, 12.99999999999999500 ) ;
#297 = CARTESIAN_POINT ( 'NONE',  ( -12.99999999999999600, 0.0000000000000000000, 41.70000000000000300 ) ) ;
#298 = ORIENTED_EDGE ( 'NONE', *, *, #372, .T. ) ;
#299 = PLANE ( 'NONE',  #528 ) ;
#300 = CC_DESIGN_APPROVAL ( #126, ( #147 ) ) ;
#301 = CARTESIAN_POINT ( 'NONE',  ( -6.250000000000000000, 7.654042494670957600E-016, 0.0000000000000000000 ) ) ;
#302 = AXIS2_PLACEMENT_3D ( 'NONE', #59, #374, #210 ) ;
#303 = DIRECTION ( 'NONE',  ( 1.000000000000000000, 0.0000000000000000000, 0.0000000000000000000 ) ) ;
#304 = CONICAL_SURFACE ( 'NONE', #13, 9.050000000000000700, 1.481746744160398900 ) ;
#305 = ORIENTED_EDGE ( 'NONE', *, *, #77, .T. ) ;
#306 = ORIENTED_EDGE ( 'NONE', *, *, #382, .T. ) ;
#307 = AXIS2_PLACEMENT_3D ( 'NONE', #640, #602, #72 ) ;
#308 = CC_DESIGN_PERSON_AND_ORGANIZATION_ASSIGNMENT ( #499, #175, ( #147 ) ) ;
#309 = DIRECTION ( 'NONE',  ( -0.0000000000000000000, -0.0000000000000000000, 1.000000000000000000 ) ) ;
#310 = ADVANCED_FACE ( 'NONE', ( #628 ), #614, .F. ) ;
#311 = APPROVAL_PERSON_ORGANIZATION ( #218, #193, #181 ) ;
#312 = AXIS2_PLACEMENT_3D ( 'NONE', #594, #652, #235 ) ;
#313 = CYLINDRICAL_SURFACE ( 'NONE', #448, 12.49999999999999600 ) ;
#314 = ORIENTED_EDGE ( 'NONE', *, *, #326, .T. ) ;
#315 = ADVANCED_FACE ( 'NONE', ( #120, #473 ), #33, .F. ) ;
#316 = AXIS2_PLACEMENT_3D ( 'NONE', #187, #83, #455 ) ;
#317 = EDGE_CURVE ( 'NONE', #287, #470, #279, .T. ) ;
#318 = CALENDAR_DATE ( 2018, 15, 3 ) ;
#319 = CIRCLE ( 'NONE', #471, 12.99999999999999600 ) ;
#320 = CARTESIAN_POINT ( 'NONE',  ( -12.99999999999999500, 1.592040838891558700E-015, 39.21000000000000100 ) ) ;
#321 = EDGE_LOOP ( 'NONE', ( #414, #148, #586, #577 ) ) ;
#322 = VERTEX_POINT ( 'NONE', #17 ) ;
#323 = AXIS2_PLACEMENT_3D ( 'NONE', #143, #508, #358 ) ;
#324 = CARTESIAN_POINT ( 'NONE',  ( -12.99999999999999500, 1.592040838891558500E-015, 40.32999999999999800 ) ) ;
#325 = VECTOR ( 'NONE', #7, 1000.000000000000000 ) ;
#326 = EDGE_CURVE ( 'NONE', #615, #236, #178, .T. ) ;
#327 = LINE ( 'NONE', #297, #103 ) ;
#328 = VERTEX_POINT ( 'NONE', #604 ) ;
#329 = DIRECTION ( 'NONE',  ( 1.000000000000000000, 0.0000000000000000000, 0.0000000000000000000 ) ) ;
#330 = ORIENTED_EDGE ( 'NONE', *, *, #555, .T. ) ;
#331 = DIRECTION ( 'NONE',  ( -0.0000000000000000000, -0.0000000000000000000, 1.000000000000000000 ) ) ;
#332 = LOCAL_TIME ( 9, 12, 55.00000000000000000, #1 ) ;
#333 = FACE_OUTER_BOUND ( 'NONE', #434, .T. ) ;
#334 = VERTEX_POINT ( 'NONE', #225 ) ;
#335 = AXIS2_PLACEMENT_3D ( 'NONE', #294, #341, #549 ) ;
#336 = ORIENTED_EDGE ( 'NONE', *, *, #124, .F. ) ;
#337 = DIRECTION ( 'NONE',  ( -1.000000000000000000, 0.0000000000000000000, -0.0000000000000000000 ) ) ;
#338 = DIRECTION ( 'NONE',  ( -0.0000000000000000000, -0.0000000000000000000, 1.000000000000000000 ) ) ;
#339 = DIRECTION ( 'NONE',  ( -0.0000000000000000000, -0.0000000000000000000, 1.000000000000000000 ) ) ;
#340 = PRODUCT_RELATED_PRODUCT_CATEGORY ( 'detail', '', ( #161 ) ) ;
#341 = DIRECTION ( 'NONE',  ( 0.0000000000000000000, 0.0000000000000000000, -1.000000000000000000 ) ) ;
#342 = CARTESIAN_POINT ( 'NONE',  ( -10.45000000000000100, 0.0000000000000000000, 45.50000000000000000 ) ) ;
#343 = LINE ( 'NONE', #9, #102 ) ;
#344 = FACE_OUTER_BOUND ( 'NONE', #274, .T. ) ;
#345 = EDGE_LOOP ( 'NONE', ( #105, #451 ) ) ;
#346 = DIRECTION ( 'NONE',  ( 1.000000000000000000, 0.0000000000000000000, 0.0000000000000000000 ) ) ;
#347 = DIRECTION ( 'NONE',  ( -0.0000000000000000000, -0.0000000000000000000, 1.000000000000000000 ) ) ;
#348 = MECHANICAL_CONTEXT ( 'NONE', #453, 'mechanical' ) ;
#349 = CARTESIAN_POINT ( 'NONE',  ( 0.0000000000000000000, 12.99999999999999500, 39.21000000000000100 ) ) ;
#350 = EDGE_CURVE ( 'NONE', #69, #588, #327, .T. ) ;
#351 = DIRECTION ( 'NONE',  ( -0.0000000000000000000, -0.0000000000000000000, 1.000000000000000000 ) ) ;
#352 = CARTESIAN_POINT ( 'NONE',  ( 12.99999999999999500, 0.0000000000000000000, 39.21000000000000100 ) ) ;
#353 = FACE_OUTER_BOUND ( 'NONE', #459, .T. ) ;
#354 = ORIENTED_EDGE ( 'NONE', *, *, #192, .F. ) ;
#355 = AXIS2_PLACEMENT_3D ( 'NONE', #227, #338, #284 ) ;
#356 = CARTESIAN_POINT ( 'NONE',  ( 0.0000000000000000000, 0.0000000000000000000, 0.0000000000000000000 ) ) ;
#357 = ADVANCED_FACE ( 'NONE', ( #344 ), #576, .T. ) ;
#358 = DIRECTION ( 'NONE',  ( 1.000000000000000000, 0.0000000000000000000, 0.0000000000000000000 ) ) ;
#359 = CC_DESIGN_PERSON_AND_ORGANIZATION_ASSIGNMENT ( #612, #76, ( #610 ) ) ;
#360 = FACE_BOUND ( 'NONE', #345, .T. ) ;
#361 = ORIENTED_EDGE ( 'NONE', *, *, #150, .T. ) ;
#362 = ORIENTED_EDGE ( 'NONE', *, *, #575, .T. ) ;
#363 = ORIENTED_EDGE ( 'NONE', *, *, #382, .F. ) ;
#364 = AXIS2_PLACEMENT_3D ( 'NONE', #554, #95, #87 ) ;
#365 = DIRECTION ( 'NONE',  ( 0.0000000000000000000, -0.0000000000000000000, 1.000000000000000000 ) ) ;
#366 = LOCAL_TIME ( 9, 12, 55.00000000000000000, #583 ) ;
#367 = CIRCLE ( 'NONE', #323, 12.99999999999999500 ) ;
#368 = ORIENTED_EDGE ( 'NONE', *, *, #49, .F. ) ;
#369 = ADVANCED_FACE ( 'NONE', ( #151 ), #313, .T. ) ;
#370 = ORIENTED_EDGE ( 'NONE', *, *, #8, .F. ) ;
#371 =( GEOMETRIC_REPRESENTATION_CONTEXT ( 3 ) GLOBAL_UNCERTAINTY_ASSIGNED_CONTEXT ( ( #406 ) ) GLOBAL_UNIT_ASSIGNED_CONTEXT ( ( #546, #82, #35 ) ) REPRESENTATION_CONTEXT ( 'NONE', 'WORKASPACE' ) );
#372 = EDGE_CURVE ( 'NONE', #395, #322, #262, .T. ) ;
#373 = VECTOR ( 'NONE', #20, 1000.000000000000000 ) ;
#374 = DIRECTION ( 'NONE',  ( -0.0000000000000000000, -0.0000000000000000000, 1.000000000000000000 ) ) ;
#375 = CYLINDRICAL_SURFACE ( 'NONE', #312, 12.99999999999999800 ) ;
#376 = ORIENTED_EDGE ( 'NONE', *, *, #281, .F. ) ;
#377 = DIRECTION ( 'NONE',  ( -0.0000000000000000000, -0.0000000000000000000, 1.000000000000000000 ) ) ;
#378 = AXIS2_PLACEMENT_3D ( 'NONE', #582, #642, #636 ) ;
#379 = DIRECTION ( 'NONE',  ( 1.000000000000000000, 0.0000000000000000000, 0.0000000000000000000 ) ) ;
#380 = CARTESIAN_POINT ( 'NONE',  ( 0.0000000000000000000, 0.0000000000000000000, 40.33000000000000500 ) ) ;
#381 = LINE ( 'NONE', #216, #373 ) ;
#382 = EDGE_CURVE ( 'NONE', #588, #397, #403, .T. ) ;
#383 = VECTOR ( 'NONE', #584, 1000.000000000000000 ) ;
#384 = ORIENTED_EDGE ( 'NONE', *, *, #423, .F. ) ;
#385 = ORIENTED_EDGE ( 'NONE', *, *, #555, .F. ) ;
#386 = CARTESIAN_POINT ( 'NONE',  ( -10.15999999999999800, 1.244241147933710700E-015, 3.900000000000000400 ) ) ;
#387 = AXIS2_PLACEMENT_3D ( 'NONE', #496, #40, #407 ) ;
#388 = CC_DESIGN_DATE_AND_TIME_ASSIGNMENT ( #644, #450, ( #26 ) ) ;
#389 = CARTESIAN_POINT ( 'NONE',  ( 0.0000000000000000000, 0.0000000000000000000, 0.0000000000000000000 ) ) ;
#390 = CARTESIAN_POINT ( 'NONE',  ( 0.0000000000000000000, 0.0000000000000000000, 45.00000000000000000 ) ) ;
#391 = CARTESIAN_POINT ( 'NONE',  ( 12.49999999999999600, 0.0000000000000000000, 0.0000000000000000000 ) ) ;
#392 = PERSON_AND_ORGANIZATION_ROLE ( 'design_owner' ) ;
#393 = DIRECTION ( 'NONE',  ( 1.000000000000000000, 0.0000000000000000000, 0.0000000000000000000 ) ) ;
#394 = DIRECTION ( 'NONE',  ( -0.0000000000000000000, -0.0000000000000000000, 1.000000000000000000 ) ) ;
#395 = VERTEX_POINT ( 'NONE', #47 ) ;
#396 = ORIENTED_EDGE ( 'NONE', *, *, #611, .F. ) ;
#397 = VERTEX_POINT ( 'NONE', #462 ) ;
#398 = DIRECTION ( 'NONE',  ( 1.000000000000000000, 0.0000000000000000000, 0.0000000000000000000 ) ) ;
#399 = DIRECTION ( 'NONE',  ( 0.0000000000000000000, -0.0000000000000000000, 1.000000000000000000 ) ) ;
#400 = EDGE_CURVE ( 'NONE', #470, #287, #501, .T. ) ;
#401 = APPROVAL_STATUS ( 'not_yet_approved' ) ;
#402 = CARTESIAN_POINT ( 'NONE',  ( 0.0000000000000000000, 0.0000000000000000000, 0.0000000000000000000 ) ) ;
#403 = CIRCLE ( 'NONE', #93, 12.99999999999999600 ) ;
#404 = EDGE_LOOP ( 'NONE', ( #522, #600 ) ) ;
#405 = CARTESIAN_POINT ( 'NONE',  ( 0.0000000000000000000, 0.0000000000000000000, 45.25000000000000000 ) ) ;
#406 = UNCERTAINTY_MEASURE_WITH_UNIT (LENGTH_MEASURE( 1.000000000000000100E-005 ), #546, 'distance_accuracy_value', 'NONE');
#407 = DIRECTION ( 'NONE',  ( 1.000000000000000000, 0.0000000000000000000, 0.0000000000000000000 ) ) ;
#408 = DIRECTION ( 'NONE',  ( -0.0000000000000000000, -0.0000000000000000000, 1.000000000000000000 ) ) ;
#409 = ADVANCED_FACE ( 'NONE', ( #657 ), #663, .F. ) ;
#410 = DIRECTION ( 'NONE',  ( -0.0000000000000000000, -0.0000000000000000000, 1.000000000000000000 ) ) ;
#411 = APPROVAL_DATE_TIME ( #487, #126 ) ;
#412 = LINE ( 'NONE', #655, #254 ) ;
#413 = CARTESIAN_POINT ( 'NONE',  ( 0.0000000000000000000, 0.0000000000000000000, 0.0000000000000000000 ) ) ;
#414 = ORIENTED_EDGE ( 'NONE', *, *, #270, .F. ) ;
#415 = EDGE_CURVE ( 'NONE', #565, #222, #367, .T. ) ;
#416 = DIRECTION ( 'NONE',  ( -0.0000000000000000000, -0.0000000000000000000, 1.000000000000000000 ) ) ;
#417 = AXIS2_PLACEMENT_3D ( 'NONE', #261, #365, #422 ) ;
#418 = ADVANCED_BREP_SHAPE_REPRESENTATION ( 'Web Model 86812_88206', ( #513, #538 ), #371 ) ;
#419 = CYLINDRICAL_SURFACE ( 'NONE', #476, 10.15999999999999800 ) ;
#420 = VECTOR ( 'NONE', #592, 1000.000000000000000 ) ;
#421 = ORIENTED_EDGE ( 'NONE', *, *, #440, .T. ) ;
#422 = DIRECTION ( 'NONE',  ( 1.000000000000000000, 0.0000000000000000000, 0.0000000000000000000 ) ) ;
#423 = EDGE_CURVE ( 'NONE', #482, #166, #645, .T. ) ;
#424 = CARTESIAN_POINT ( 'NONE',  ( 0.0000000000000000000, 0.0000000000000000000, 45.00000000000000000 ) ) ;
#425 = EDGE_CURVE ( 'NONE', #206, #45, #671, .T. ) ;
#426 = VECTOR ( 'NONE', #587, 1000.000000000000000 ) ;
#427 = EDGE_LOOP ( 'NONE', ( #113, #550, #314, #608 ) ) ;
#428 = ORIENTED_EDGE ( 'NONE', *, *, #670, .F. ) ;
#429 = DIRECTION ( 'NONE',  ( -0.0000000000000000000, -0.0000000000000000000, 1.000000000000000000 ) ) ;
#430 = EDGE_CURVE ( 'NONE', #571, #534, #144, .T. ) ;
#431 = PERSON_AND_ORGANIZATION ( #117, #209 ) ;
#432 = DIRECTION ( 'NONE',  ( 0.0000000000000000000, 0.0000000000000000000, -1.000000000000000000 ) ) ;
#433 = CYLINDRICAL_SURFACE ( 'NONE', #355, 10.15999999999999800 ) ;
#434 = EDGE_LOOP ( 'NONE', ( #667, #247 ) ) ;
#435 = DIRECTION ( 'NONE',  ( 1.000000000000000000, 0.0000000000000000000, 0.0000000000000000000 ) ) ;
#436 = FACE_BOUND ( 'NONE', #527, .T. ) ;
#437 = EDGE_LOOP ( 'NONE', ( #469, #635, #112, #438 ) ) ;
#438 = ORIENTED_EDGE ( 'NONE', *, *, #440, .F. ) ;
#439 = DIRECTION ( 'NONE',  ( 0.0000000000000000000, 0.0000000000000000000, 1.000000000000000000 ) ) ;
#440 = EDGE_CURVE ( 'NONE', #236, #92, #518, .T. ) ;
#441 = CARTESIAN_POINT ( 'NONE',  ( 9.050000000000000700, 0.0000000000000000000, 45.50000000000000000 ) ) ;
#442 = CC_DESIGN_APPROVAL ( #193, ( #26 ) ) ;
#443 = DIRECTION ( 'NONE',  ( 1.000000000000000000, 0.0000000000000000000, 0.0000000000000000000 ) ) ;
#444 = APPROVAL_PERSON_ORGANIZATION ( #53, #126, #84 ) ;
#445 = CARTESIAN_POINT ( 'NONE',  ( 0.0000000000000000000, 0.0000000000000000000, 0.0000000000000000000 ) ) ;
#446 = CIRCLE ( 'NONE', #668, 10.45000000000000100 ) ;
#447 = FACE_BOUND ( 'NONE', #179, .T. ) ;
#448 = AXIS2_PLACEMENT_3D ( 'NONE', #356, #351, #514 ) ;
#449 = ORIENTED_EDGE ( 'NONE', *, *, #631, .T. ) ;
#450 = DATE_TIME_ROLE ( 'classification_date' ) ;
#451 = ORIENTED_EDGE ( 'NONE', *, *, #281, .T. ) ;
#452 = DIRECTION ( 'NONE',  ( -0.5572190023617750200, 0.0000000000000000000, -0.8303655721469599400 ) ) ;
#453 = APPLICATION_CONTEXT ( 'configuration controlled 3d designs of mechanical parts and assemblies' ) ;
#454 = DIRECTION ( 'NONE',  ( -1.000000000000000000, 0.0000000000000000000, -0.0000000000000000000 ) ) ;
#455 = DIRECTION ( 'NONE',  ( 1.000000000000000000, 0.0000000000000000000, 0.0000000000000000000 ) ) ;
#456 = LOCAL_TIME ( 9, 12, 55.00000000000000000, #562 ) ;
#457 = FACE_OUTER_BOUND ( 'NONE', #115, .T. ) ;
#458 = EDGE_CURVE ( 'NONE', #44, #328, #156, .T. ) ;
#459 = EDGE_LOOP ( 'NONE', ( #502, #607 ) ) ;
#460 = EDGE_LOOP ( 'NONE', ( #465, #385 ) ) ;
#461 = CARTESIAN_POINT ( 'NONE',  ( 0.0000000000000000000, 0.0000000000000000000, 41.70000000000000300 ) ) ;
#462 = CARTESIAN_POINT ( 'NONE',  ( 12.99999999999999600, 0.0000000000000000000, 41.70000000000000300 ) ) ;
#463 = FACE_OUTER_BOUND ( 'NONE', #289, .T. ) ;
#464 = FACE_BOUND ( 'NONE', #460, .T. ) ;
#465 = ORIENTED_EDGE ( 'NONE', *, *, #372, .F. ) ;
#466 = ADVANCED_FACE ( 'NONE', ( #463 ), #196, .T. ) ;
#467 = EDGE_LOOP ( 'NONE', ( #251, #543, #6, #188 ) ) ;
#468 = DIRECTION ( 'NONE',  ( -0.0000000000000000000, -0.0000000000000000000, 1.000000000000000000 ) ) ;
#469 = ORIENTED_EDGE ( 'NONE', *, *, #213, .F. ) ;
#470 = VERTEX_POINT ( 'NONE', #106 ) ;
#471 = AXIS2_PLACEMENT_3D ( 'NONE', #42, #408, #94 ) ;
#472 = CALENDAR_DATE ( 2018, 15, 3 ) ;
#473 = FACE_BOUND ( 'NONE', #173, .T. ) ;
#474 = ORIENTED_EDGE ( 'NONE', *, *, #430, .F. ) ;
#475 = DIRECTION ( 'NONE',  ( 1.000000000000000000, 0.0000000000000000000, 0.0000000000000000000 ) ) ;
#476 = AXIS2_PLACEMENT_3D ( 'NONE', #208, #377, #675 ) ;
#477 = CARTESIAN_POINT ( 'NONE',  ( 12.49999999999999600, 0.0000000000000000000, 40.33000000000000500 ) ) ;
#478 = EDGE_CURVE ( 'NONE', #45, #470, #343, .T. ) ;
#479 = APPROVAL_DATE_TIME ( #507, #193 ) ;
#480 = CONICAL_SURFACE ( 'NONE', #364, 12.99999999999999600, 0.5910328973024296900 ) ;
#481 = ORIENTED_EDGE ( 'NONE', *, *, #649, .T. ) ;
#482 = VERTEX_POINT ( 'NONE', #320 ) ;
#483 = DIRECTION ( 'NONE',  ( 1.000000000000000000, 0.0000000000000000000, 0.0000000000000000000 ) ) ;
#484 = AXIS2_PLACEMENT_3D ( 'NONE', #88, #142, #500 ) ;
#485 = CARTESIAN_POINT ( 'NONE',  ( -6.250000000000000000, 7.654042494670957600E-016, 45.00000000000000000 ) ) ;
#486 = DIRECTION ( 'NONE',  ( 1.000000000000000000, 0.0000000000000000000, 0.0000000000000000000 ) ) ;
#487 = DATE_AND_TIME ( #60, #332 ) ;
#488 = CIRCLE ( 'NONE', #258, 13.00000000000000000 ) ;
#489 = ORIENTED_EDGE ( 'NONE', *, *, #116, .F. ) ;
#490 = DIRECTION ( 'NONE',  ( 1.000000000000000000, 0.0000000000000000000, 0.0000000000000000000 ) ) ;
#491 = ORIENTED_EDGE ( 'NONE', *, *, #37, .T. ) ;
#492 = PLANE ( 'NONE',  #335 ) ;
#493 = EDGE_CURVE ( 'NONE', #615, #44, #260, .T. ) ;
#494 = CARTESIAN_POINT ( 'NONE',  ( 0.0000000000000000000, 0.0000000000000000000, 40.32999999999999800 ) ) ;
#495 = APPLICATION_PROTOCOL_DEFINITION ( 'international standard', 'config_control_design', 1994, #134 ) ;
#496 = CARTESIAN_POINT ( 'NONE',  ( 0.0000000000000000000, 0.0000000000000000000, -0.8000000000000000400 ) ) ;
#497 = DIRECTION ( 'NONE',  ( -0.0000000000000000000, -0.0000000000000000000, 1.000000000000000000 ) ) ;
#498 = DIRECTION ( 'NONE',  ( 0.0000000000000000000, 0.0000000000000000000, -1.000000000000000000 ) ) ;
#499 = PERSON_AND_ORGANIZATION ( #117, #209 ) ;
#500 = DIRECTION ( 'NONE',  ( 1.000000000000000000, 0.0000000000000000000, 0.0000000000000000000 ) ) ;
#501 = CIRCLE ( 'NONE', #199, 5.450000000000000200 ) ;
#502 = ORIENTED_EDGE ( 'NONE', *, *, #167, .T. ) ;
#503 = VERTEX_POINT ( 'NONE', #627 ) ;
#504 = AXIS2_PLACEMENT_3D ( 'NONE', #267, #625, #574 ) ;
#505 = DIRECTION ( 'NONE',  ( -1.000000000000000000, 0.0000000000000000000, 0.0000000000000000000 ) ) ;
#506 = DIRECTION ( 'NONE',  ( 1.000000000000000000, 0.0000000000000000000, 0.0000000000000000000 ) ) ;
#507 = DATE_AND_TIME ( #318, #456 ) ;
#508 = DIRECTION ( 'NONE',  ( -0.0000000000000000000, -0.0000000000000000000, 1.000000000000000000 ) ) ;
#509 = CIRCLE ( 'NONE', #186, 12.49999999999999600 ) ;
#510 = AXIS2_PLACEMENT_3D ( 'NONE', #402, #129, #545 ) ;
#511 = FACE_OUTER_BOUND ( 'NONE', #99, .T. ) ;
#512 = EDGE_LOOP ( 'NONE', ( #131, #272, #421, #361 ) ) ;
#513 = MANIFOLD_SOLID_BREP ( 'Revolve1', #515 ) ;
#514 = DIRECTION ( 'NONE',  ( 1.000000000000000000, 0.0000000000000000000, 0.0000000000000000000 ) ) ;
#515 = CLOSED_SHELL ( 'NONE', ( #409, #568, #203, #616, #466, #660, #567, #310, #194, #201, #315, #96, #619, #197, #259, #369, #264, #149, #357, #669, #516, #665, #609 ) ) ;
#516 = ADVANCED_FACE ( 'NONE', ( #32 ), #598, .F. ) ;
#517 = AXIS2_PLACEMENT_3D ( 'NONE', #191, #410, #250 ) ;
#518 = LINE ( 'NONE', #162, #119 ) ;
#519 = CIRCLE ( 'NONE', #307, 5.450000000000000200 ) ;
#520 = EDGE_LOOP ( 'NONE', ( #551, #263, #205, #256 ) ) ;
#521 = AXIS2_PLACEMENT_3D ( 'NONE', #532, #432, #337 ) ;
#522 = ORIENTED_EDGE ( 'NONE', *, *, #493, .T. ) ;
#523 = DIRECTION ( 'NONE',  ( -0.0000000000000000000, -0.0000000000000000000, 1.000000000000000000 ) ) ;
#524 = AXIS2_PLACEMENT_3D ( 'NONE', #38, #183, #490 ) ;
#525 = VECTOR ( 'NONE', #169, 1000.000000000000000 ) ;
#526 = ORIENTED_EDGE ( 'NONE', *, *, #626, .T. ) ;
#527 = EDGE_LOOP ( 'NONE', ( #190, #489 ) ) ;
#528 = AXIS2_PLACEMENT_3D ( 'NONE', #349, #498, #454 ) ;
#529 = DIRECTION ( 'NONE',  ( 1.000000000000000000, 0.0000000000000000000, 0.0000000000000000000 ) ) ;
#530 = EDGE_CURVE ( 'NONE', #206, #287, #61, .T. ) ;
#531 = DIRECTION ( 'NONE',  ( -0.0000000000000000000, -0.0000000000000000000, 1.000000000000000000 ) ) ;
#532 = CARTESIAN_POINT ( 'NONE',  ( 0.0000000000000000000, 6.250000000000000000, 45.00000000000000000 ) ) ;
#533 = FACE_OUTER_BOUND ( 'NONE', #180, .T. ) ;
#534 = VERTEX_POINT ( 'NONE', #4 ) ;
#535 = DIRECTION ( 'NONE',  ( 1.000000000000000000, 0.0000000000000000000, 0.0000000000000000000 ) ) ;
#536 = DIRECTION ( 'NONE',  ( 1.000000000000000000, 0.0000000000000000000, 0.0000000000000000000 ) ) ;
#537 = DIRECTION ( 'NONE',  ( -0.9960377053144617900, 1.219794387643430100E-016, 0.08893193797450546500 ) ) ;
#538 = AXIS2_PLACEMENT_3D ( 'NONE', #445, #439, #486 ) ;
#539 = CALENDAR_DATE ( 2018, 15, 3 ) ;
#540 = CYLINDRICAL_SURFACE ( 'NONE', #19, 12.99999999999999800 ) ;
#541 = ORIENTED_EDGE ( 'NONE', *, *, #270, .T. ) ;
#542 = DIRECTION ( 'NONE',  ( 1.000000000000000000, 0.0000000000000000000, 0.0000000000000000000 ) ) ;
#543 = ORIENTED_EDGE ( 'NONE', *, *, #159, .T. ) ;
#544 = PERSON_AND_ORGANIZATION_ROLE ( 'design_supplier' ) ;
#545 = DIRECTION ( 'NONE',  ( 1.000000000000000000, 0.0000000000000000000, 0.0000000000000000000 ) ) ;
#546 =( LENGTH_UNIT ( ) NAMED_UNIT ( * ) SI_UNIT ( .MILLI., .METRE. ) );
#547 = PERSON_AND_ORGANIZATION ( #117, #209 ) ;
#548 = CIRCLE ( 'NONE', #242, 13.00000000000000000 ) ;
#549 = DIRECTION ( 'NONE',  ( -1.000000000000000000, 0.0000000000000000000, -0.0000000000000000000 ) ) ;
#550 = ORIENTED_EDGE ( 'NONE', *, *, #493, .F. ) ;
#551 = ORIENTED_EDGE ( 'NONE', *, *, #176, .F. ) ;
#552 = AXIS2_PLACEMENT_3D ( 'NONE', #240, #295, #393 ) ;
#553 = CARTESIAN_POINT ( 'NONE',  ( 0.0000000000000000000, 0.0000000000000000000, 39.21000000000000100 ) ) ;
#554 = CARTESIAN_POINT ( 'NONE',  ( 0.0000000000000000000, 0.0000000000000000000, 41.70000000000000300 ) ) ;
#555 = EDGE_CURVE ( 'NONE', #322, #395, #632, .T. ) ;
#556 = LINE ( 'NONE', #283, #426 ) ;
#557 = DIRECTION ( 'NONE',  ( -0.0000000000000000000, -0.0000000000000000000, 1.000000000000000000 ) ) ;
#558 = ORIENTED_EDGE ( 'NONE', *, *, #603, .T. ) ;
#559 = ORIENTED_EDGE ( 'NONE', *, *, #415, .F. ) ;
#560 = AXIS2_PLACEMENT_3D ( 'NONE', #424, #468, #114 ) ;
#561 = DIRECTION ( 'NONE',  ( -0.0000000000000000000, -0.0000000000000000000, 1.000000000000000000 ) ) ;
#562 = COORDINATED_UNIVERSAL_TIME_OFFSET ( 5, 0, .BEHIND. ) ;
#563 = EDGE_CURVE ( 'NONE', #236, #328, #111, .T. ) ;
#564 = LINE ( 'NONE', #78, #211 ) ;
#565 = VERTEX_POINT ( 'NONE', #324 ) ;
#566 = ORIENTED_EDGE ( 'NONE', *, *, #425, .T. ) ;
#567 = ADVANCED_FACE ( 'NONE', ( #50 ), #419, .T. ) ;
#568 = ADVANCED_FACE ( 'NONE', ( #269 ), #304, .F. ) ;
#569 = CARTESIAN_POINT ( 'NONE',  ( 0.0000000000000000000, 0.0000000000000000000, -0.8000000000000000400 ) ) ;
#570 = FACE_OUTER_BOUND ( 'NONE', #257, .T. ) ;
#571 = VERTEX_POINT ( 'NONE', #477 ) ;
#572 = CC_DESIGN_PERSON_AND_ORGANIZATION_ASSIGNMENT ( #431, #392, ( #161 ) ) ;
#573 = VERTEX_POINT ( 'NONE', #386 ) ;
#574 = DIRECTION ( 'NONE',  ( 1.000000000000000000, 0.0000000000000000000, 0.0000000000000000000 ) ) ;
#575 = EDGE_CURVE ( 'NONE', #534, #571, #509, .T. ) ;
#576 = CONICAL_SURFACE ( 'NONE', #629, 12.99999999999999600, 0.5910328973024296900 ) ;
#577 = ORIENTED_EDGE ( 'NONE', *, *, #350, .F. ) ;
#578 = AXIS2_PLACEMENT_3D ( 'NONE', #654, #399, #542 ) ;
#579 = CARTESIAN_POINT ( 'NONE',  ( 12.99999999999999500, 0.0000000000000000000, 0.0000000000000000000 ) ) ;
#580 = DIRECTION ( 'NONE',  ( 0.0000000000000000000, -0.0000000000000000000, 1.000000000000000000 ) ) ;
#581 = DIRECTION ( 'NONE',  ( -0.0000000000000000000, -0.0000000000000000000, 1.000000000000000000 ) ) ;
#582 = CARTESIAN_POINT ( 'NONE',  ( 0.0000000000000000000, 0.0000000000000000000, 3.900000000000000400 ) ) ;
#583 = COORDINATED_UNIVERSAL_TIME_OFFSET ( 5, 0, .BEHIND. ) ;
#584 = DIRECTION ( 'NONE',  ( -0.0000000000000000000, -0.0000000000000000000, 1.000000000000000000 ) ) ;
#585 = CIRCLE ( 'NONE', #387, 10.16000000000000000 ) ;
#586 = ORIENTED_EDGE ( 'NONE', *, *, #202, .T. ) ;
#587 = DIRECTION ( 'NONE',  ( -0.0000000000000000000, -0.0000000000000000000, 1.000000000000000000 ) ) ;
#588 = VERTEX_POINT ( 'NONE', #65 ) ;
#589 = EDGE_CURVE ( 'NONE', #255, #56, #11, .T. ) ;
#590 = CC_DESIGN_PERSON_AND_ORGANIZATION_ASSIGNMENT ( #110, #544, ( #147 ) ) ;
#591 = DIRECTION ( 'NONE',  ( -0.0000000000000000000, -0.0000000000000000000, 1.000000000000000000 ) ) ;
#592 = DIRECTION ( 'NONE',  ( -0.0000000000000000000, -0.0000000000000000000, 1.000000000000000000 ) ) ;
#593 = CARTESIAN_POINT ( 'NONE',  ( 0.0000000000000000000, 0.0000000000000000000, 45.50000000000000000 ) ) ;
#594 = CARTESIAN_POINT ( 'NONE',  ( 0.0000000000000000000, 0.0000000000000000000, 0.0000000000000000000 ) ) ;
#595 = AXIS2_PLACEMENT_3D ( 'NONE', #389, #591, #329 ) ;
#596 = LOCAL_TIME ( 9, 12, 55.00000000000000000, #268 ) ;
#597 = DATE_TIME_ROLE ( 'creation_date' ) ;
#598 = CONICAL_SURFACE ( 'NONE', #504, 9.050000000000000700, 1.481746744160398900 ) ;
#599 = FACE_OUTER_BOUND ( 'NONE', #321, .T. ) ;
#600 = ORIENTED_EDGE ( 'NONE', *, *, #176, .T. ) ;
#601 = APPROVAL_ROLE ( '' ) ;
#602 = DIRECTION ( 'NONE',  ( -0.0000000000000000000, -0.0000000000000000000, 1.000000000000000000 ) ) ;
#603 = EDGE_CURVE ( 'NONE', #56, #104, #277, .T. ) ;
#604 = CARTESIAN_POINT ( 'NONE',  ( -6.250000000000000000, 9.368548013477252200E-016, 45.25000000000000000 ) ) ;
#605 = DIRECTION ( 'NONE',  ( -0.0000000000000000000, -0.0000000000000000000, 1.000000000000000000 ) ) ;
#606 = LINE ( 'NONE', #133, #420 ) ;
#607 = ORIENTED_EDGE ( 'NONE', *, *, #423, .T. ) ;
#608 = ORIENTED_EDGE ( 'NONE', *, *, #563, .T. ) ;
#609 = ADVANCED_FACE ( 'NONE', ( #138 ), #18, .F. ) ;
#610 = PRODUCT_DEFINITION ( 'UNKNOWN', '', #147, #674 ) ;
#611 = EDGE_CURVE ( 'NONE', #503, #482, #381, .T. ) ;
#612 = PERSON_AND_ORGANIZATION ( #117, #209 ) ;
#613 = FACE_OUTER_BOUND ( 'NONE', #427, .T. ) ;
#614 = CYLINDRICAL_SURFACE ( 'NONE', #30, 5.450000000000000200 ) ;
#615 = VERTEX_POINT ( 'NONE', #217 ) ;
#616 = ADVANCED_FACE ( 'NONE', ( #570 ), #22, .T. ) ;
#617 = EDGE_LOOP ( 'NONE', ( #36, #24 ) ) ;
#618 = AXIS2_PLACEMENT_3D ( 'NONE', #276, #57, #529 ) ;
#619 = ADVANCED_FACE ( 'NONE', ( #533, #360 ), #21, .F. ) ;
#620 = APPROVAL_PERSON_ORGANIZATION ( #547, #46, #601 ) ;
#621 = LINE ( 'NONE', #243, #198 ) ;
#622 = ORIENTED_EDGE ( 'NONE', *, *, #192, .T. ) ;
#623 = ORIENTED_EDGE ( 'NONE', *, *, #64, .F. ) ;
#624 = CARTESIAN_POINT ( 'NONE',  ( -5.450000000000000200, 6.674325055353075200E-016, 0.0000000000000000000 ) ) ;
#625 = DIRECTION ( 'NONE',  ( -0.0000000000000000000, -0.0000000000000000000, 1.000000000000000000 ) ) ;
#626 = EDGE_CURVE ( 'NONE', #222, #397, #177, .T. ) ;
#627 = CARTESIAN_POINT ( 'NONE',  ( -13.00000000000000200, 1.592040838891559300E-015, 3.900000000000000400 ) ) ;
#628 = FACE_OUTER_BOUND ( 'NONE', #68, .T. ) ;
#629 = AXIS2_PLACEMENT_3D ( 'NONE', #184, #238, #505 ) ;
#630 = ORIENTED_EDGE ( 'NONE', *, *, #400, .T. ) ;
#631 = EDGE_CURVE ( 'NONE', #69, #334, #446, .T. ) ;
#632 = CIRCLE ( 'NONE', #154, 12.49999999999999600 ) ;
#633 = CARTESIAN_POINT ( 'NONE',  ( 0.0000000000000000000, 0.0000000000000000000, -0.8000000000000000400 ) ) ;
#634 = CIRCLE ( 'NONE', #229, 6.250000000000000000 ) ;
#635 = ORIENTED_EDGE ( 'NONE', *, *, #58, .T. ) ;
#636 = DIRECTION ( 'NONE',  ( 1.000000000000000000, 0.0000000000000000000, 0.0000000000000000000 ) ) ;
#637 = ORIENTED_EDGE ( 'NONE', *, *, #64, .T. ) ;
#638 = CARTESIAN_POINT ( 'NONE',  ( 0.0000000000000000000, 0.0000000000000000000, 0.0000000000000000000 ) ) ;
#639 = DIRECTION ( 'NONE',  ( -0.0000000000000000000, -0.0000000000000000000, 1.000000000000000000 ) ) ;
#640 = CARTESIAN_POINT ( 'NONE',  ( 0.0000000000000000000, 0.0000000000000000000, -0.8000000000000000400 ) ) ;
#641 = DIRECTION ( 'NONE',  ( -0.0000000000000000000, -0.0000000000000000000, 1.000000000000000000 ) ) ;
#642 = DIRECTION ( 'NONE',  ( -0.0000000000000000000, -0.0000000000000000000, 1.000000000000000000 ) ) ;
#643 = DIRECTION ( 'NONE',  ( 0.5572190023617750200, 6.823964676664291900E-017, -0.8303655721469599400 ) ) ;
#644 = DATE_AND_TIME ( #285, #163 ) ;
#645 = CIRCLE ( 'NONE', #123, 12.99999999999999500 ) ;
#646 = ORIENTED_EDGE ( 'NONE', *, *, #350, .T. ) ;
#647 = DIRECTION ( 'NONE',  ( 1.000000000000000000, 0.0000000000000000000, 0.0000000000000000000 ) ) ;
#648 = EDGE_LOOP ( 'NONE', ( #449, #541 ) ) ;
#649 = EDGE_CURVE ( 'NONE', #322, #534, #556, .T. ) ;
#650 = DIRECTION ( 'NONE',  ( 1.000000000000000000, 0.0000000000000000000, 0.0000000000000000000 ) ) ;
#651 = APPROVAL_STATUS ( 'not_yet_approved' ) ;
#652 = DIRECTION ( 'NONE',  ( -0.0000000000000000000, -0.0000000000000000000, 1.000000000000000000 ) ) ;
#653 = AXIS2_PLACEMENT_3D ( 'NONE', #633, #168, #535 ) ;
#654 = CARTESIAN_POINT ( 'NONE',  ( 0.0000000000000000000, 5.450000000000000200, -0.8000000000000000400 ) ) ;
#655 = CARTESIAN_POINT ( 'NONE',  ( 12.99999999999999600, 1.592040838891558700E-015, 41.70000000000000300 ) ) ;
#656 = FACE_OUTER_BOUND ( 'NONE', #648, .T. ) ;
#657 = FACE_OUTER_BOUND ( 'NONE', #520, .T. ) ;
#658 = ORIENTED_EDGE ( 'NONE', *, *, #649, .F. ) ;
#659 = AXIS2_PLACEMENT_3D ( 'NONE', #278, #580, #71 ) ;
#660 = ADVANCED_FACE ( 'NONE', ( #286 ), #540, .T. ) ;
#661 = AXIS2_PLACEMENT_3D ( 'NONE', #494, #292, #346 ) ;
#662 = COORDINATED_UNIVERSAL_TIME_OFFSET ( 5, 0, .BEHIND. ) ;
#663 = CYLINDRICAL_SURFACE ( 'NONE', #207, 6.250000000000000000 ) ;
#664 = CARTESIAN_POINT ( 'NONE',  ( -10.16000000000000000, 1.244241147933710900E-015, -0.8000000000000000400 ) ) ;
#665 = ADVANCED_FACE ( 'NONE', ( #613 ), #3, .F. ) ;
#666 = ORIENTED_EDGE ( 'NONE', *, *, #124, .T. ) ;
#667 = ORIENTED_EDGE ( 'NONE', *, *, #400, .F. ) ;
#668 = AXIS2_PLACEMENT_3D ( 'NONE', #593, #497, #443 ) ;
#669 = ADVANCED_FACE ( 'NONE', ( #436, #656 ), #492, .F. ) ;
#670 = EDGE_CURVE ( 'NONE', #334, #397, #412, .T. ) ;
#671 = CIRCLE ( 'NONE', #266, 5.450000000000000200 ) ;
#672 = FACE_OUTER_BOUND ( 'NONE', #271, .T. ) ;
#673 = VERTEX_POINT ( 'NONE', #239 ) ;
#674 = DESIGN_CONTEXT ( 'detailed design', #134, 'design' ) ;
#675 = DIRECTION ( 'NONE',  ( 1.000000000000000000, 0.0000000000000000000, 0.0000000000000000000 ) ) ;
ENDSEC;
END-ISO-10303-21;
