ISO-10303-21;
HEADER;
FILE_DESCRIPTION (( 'STEP AP203' ),
    '1' );
FILE_NAME ('fiber array holder 15_01.STEP',
    '2026-01-22T13:38:02',
    ( '' ),
    ( '' ),
    'SwSTEP 2.0',
    'SolidWorks 2025',
    '' );
FILE_SCHEMA (( 'CONFIG_CONTROL_DESIGN' ));
ENDSEC;

DATA;
#1 = EDGE_LOOP ( 'NONE', ( #977, #1078, #529, #91 ) ) ;
#2 = CARTESIAN_POINT ( 'NONE',  ( -11.73929186359187327, 5.722803670081037630, -38.98465507974285060 ) ) ;
#3 = CARTESIAN_POINT ( 'NONE',  ( 5.735708136408105950, 1.194602001426025462, -22.08517638540411809 ) ) ;
#4 = AXIS2_PLACEMENT_3D ( 'NONE', #356, #362, #792 ) ;
#5 = ORIENTED_EDGE ( 'NONE', *, *, #309, .T. ) ;
#6 = APPROVAL_DATE_TIME ( #990, #367 ) ;
#7 = DIRECTION ( 'NONE',  ( 1.000000000000000000, 1.084202172485505543E-16, -3.636005999432003998E-15 ) ) ;
#8 = PLANE ( 'NONE',  #605 ) ;
#9 = ORIENTED_EDGE ( 'NONE', *, *, #228, .F. ) ;
#10 = VECTOR ( 'NONE', #359, 1000.000000000000114 ) ;
#11 = PERSON_AND_ORGANIZATION_ROLE ( 'design_supplier' ) ;
#12 = ADVANCED_FACE ( 'NONE', ( #750 ), #867, .F. ) ;
#13 = LINE ( 'NONE', #969, #726 ) ;
#14 = LINE ( 'NONE', #1290, #817 ) ;
#15 = VERTEX_POINT ( 'NONE', #222 ) ;
#16 = EDGE_CURVE ( 'NONE', #1229, #699, #487, .T. ) ;
#17 = APPROVAL_ROLE ( '' ) ;
#18 = FACE_OUTER_BOUND ( 'NONE', #1001, .T. ) ;
#19 = CARTESIAN_POINT ( 'NONE',  ( -26.26429186359187540, 8.722803670081050953, -74.44013775164788171 ) ) ;
#20 = CARTESIAN_POINT ( 'NONE',  ( -5.184291863591870886, 15.68280367008105181, 8.060862248352119508 ) ) ;
#21 = ORIENTED_EDGE ( 'NONE', *, *, #855, .F. ) ;
#22 = VECTOR ( 'NONE', #856, 1000.000000000000000 ) ;
#23 = APPROVAL_STATUS ( 'not_yet_approved' ) ;
#24 = CARTESIAN_POINT ( 'NONE',  ( -5.184291863591875327, 15.68280367008105181, -33.38913775164787978 ) ) ;
#25 = DIRECTION ( 'NONE',  ( -1.255529656919281400E-16, 0.000000000000000000, -1.000000000000000000 ) ) ;
#26 = LINE ( 'NONE', #461, #1172 ) ;
#27 = ORIENTED_EDGE ( 'NONE', *, *, #445, .T. ) ;
#28 = DATE_AND_TIME ( #562, #320 ) ;
#29 = AXIS2_PLACEMENT_3D ( 'NONE', #1173, #198, #636 ) ;
#30 = CIRCLE ( 'NONE', #963, 0.5956299999999997707 ) ;
#31 = DIRECTION ( 'NONE',  ( -1.000000000000000000, 0.000000000000000000, -0.000000000000000000 ) ) ;
#32 = EDGE_CURVE ( 'NONE', #301, #748, #539, .T. ) ;
#33 = DIRECTION ( 'NONE',  ( -1.000000000000000000, -1.084202172485504681E-16, 0.000000000000000000 ) ) ;
#34 = EDGE_CURVE ( 'NONE', #148, #380, #859, .T. ) ;
#35 = CARTESIAN_POINT ( 'NONE',  ( 2.735708136408127711, 8.722803670081042071, -44.58273129109694111 ) ) ;
#36 = ADVANCED_FACE ( 'NONE', ( #553 ), #570, .F. ) ;
#37 = ORIENTED_EDGE ( 'NONE', *, *, #156, .T. ) ;
#38 = CIRCLE ( 'NONE', #1263, 0.5956299999999997707 ) ;
#39 = CARTESIAN_POINT ( 'NONE',  ( -1.975720332787869963E-15, 18.22280367008105273, 4.422393386753884354E-16 ) ) ;
#40 = AXIS2_PLACEMENT_3D ( 'NONE', #377, #1334, #1347 ) ;
#41 = CARTESIAN_POINT ( 'NONE',  ( -15.34429186359187192, 15.68280367008104825, 8.060862248352119508 ) ) ;
#42 = DIRECTION ( 'NONE',  ( 1.000000000000000000, -0.000000000000000000, 3.573316797539113732E-15 ) ) ;
#43 = VERTEX_POINT ( 'NONE', #103 ) ;
#44 = ORIENTED_EDGE ( 'NONE', *, *, #1300, .F. ) ;
#45 = DIRECTION ( 'NONE',  ( 1.000000000000000000, 5.880418562633244003E-16, -2.377485591597888477E-14 ) ) ;
#46 = VECTOR ( 'NONE', #458, 1000.000000000000000 ) ;
#47 = DIRECTION ( 'NONE',  ( -1.084202172485504557E-16, 1.000000000000000000, 2.905110965495604487E-17 ) ) ;
#48 = FACE_OUTER_BOUND ( 'NONE', #842, .T. ) ;
#49 = VERTEX_POINT ( 'NONE', #344 ) ;
#50 = VERTEX_POINT ( 'NONE', #1083 ) ;
#51 = APPROVAL ( #1205, 'UNSPECIFIED' ) ;
#52 = CARTESIAN_POINT ( 'NONE',  ( -14.26429215238700543, 13.68280367008105358, -92.00696795350444290 ) ) ;
#53 = EDGE_CURVE ( 'NONE', #944, #1283, #774, .T. ) ;
#54 = DIRECTION ( 'NONE',  ( -8.095376221225116077E-15, 1.000000000000000000, 0.000000000000000000 ) ) ;
#55 = LINE ( 'NONE', #731, #194 ) ;
#56 = ORIENTED_EDGE ( 'NONE', *, *, #931, .T. ) ;
#57 = ORIENTED_EDGE ( 'NONE', *, *, #1279, .F. ) ;
#58 = EDGE_CURVE ( 'NONE', #748, #644, #110, .T. ) ;
#59 = ORIENTED_EDGE ( 'NONE', *, *, #1039, .F. ) ;
#60 = EDGE_CURVE ( 'NONE', #1398, #50, #559, .T. ) ;
#61 = DIRECTION ( 'NONE',  ( 1.000000000000000000, 1.084202172485504681E-16, 2.141176160863508742E-32 ) ) ;
#62 = CARTESIAN_POINT ( 'NONE',  ( -6.264292152387013424, 16.93280367008105358, -88.91133795350442881 ) ) ;
#63 = DIRECTION ( 'NONE',  ( -1.084202172485504434E-16, 1.000000000000000000, -0.000000000000000000 ) ) ;
#64 = DIRECTION ( 'NONE',  ( -0.9967746154846105489, -1.057391138883491735E-16, -0.08025189047933345421 ) ) ;
#65 = ORIENTED_EDGE ( 'NONE', *, *, #58, .T. ) ;
#66 = ORIENTED_EDGE ( 'NONE', *, *, #263, .F. ) ;
#67 = VERTEX_POINT ( 'NONE', #981 ) ;
#68 = LOCAL_TIME ( 8, 38, 2.000000000000000000, #557 ) ;
#69 = CARTESIAN_POINT ( 'NONE',  ( -8.489291863591873266, 18.22280367008105273, -74.43913775164789115 ) ) ;
#70 = EDGE_CURVE ( 'NONE', #75, #641, #1403, .T. ) ;
#71 = CARTESIAN_POINT ( 'NONE',  ( -6.264292152387003654, 18.22280367008105628, -92.00696795350444290 ) ) ;
#72 = CARTESIAN_POINT ( 'NONE',  ( -14.26429215238700543, 18.22280367008105273, -92.00696795350444290 ) ) ;
#73 = CARTESIAN_POINT ( 'NONE',  ( -12.03929186359187220, 15.68280367008105181, -74.43913775164789115 ) ) ;
#74 = ORIENTED_EDGE ( 'NONE', *, *, #16, .F. ) ;
#75 = VERTEX_POINT ( 'NONE', #987 ) ;
#76 = FACE_OUTER_BOUND ( 'NONE', #1139, .T. ) ;
#77 = EDGE_CURVE ( 'NONE', #1229, #15, #758, .T. ) ;
#78 = CARTESIAN_POINT ( 'NONE',  ( 2.735708136408127711, 11.72280367008103141, -44.58273129109694111 ) ) ;
#79 = CIRCLE ( 'NONE', #651, 0.5956299999999997707 ) ;
#80 = DIRECTION ( 'NONE',  ( -0.000000000000000000, -0.000000000000000000, 1.000000000000000000 ) ) ;
#81 = CARTESIAN_POINT ( 'NONE',  ( -8.489291863591873266, 18.22280367008105628, -92.00696795350444290 ) ) ;
#82 = ORIENTED_EDGE ( 'NONE', *, *, #587, .T. ) ;
#83 = EDGE_CURVE ( 'NONE', #1101, #1053, #38, .T. ) ;
#84 = ORIENTED_EDGE ( 'NONE', *, *, #727, .F. ) ;
#85 = CARTESIAN_POINT ( 'NONE',  ( -11.73929186359187327, 4.422803670081038696, -34.13298902990320016 ) ) ;
#86 = DIRECTION ( 'NONE',  ( -1.000000000000000000, -4.336808689942016750E-16, 0.000000000000000000 ) ) ;
#87 = LINE ( 'NONE', #525, #585 ) ;
#88 = DIRECTION ( 'NONE',  ( 1.000000000000000000, 3.414809992080328530E-16, 0.000000000000000000 ) ) ;
#89 = ORIENTED_EDGE ( 'NONE', *, *, #1070, .F. ) ;
#90 = CIRCLE ( 'NONE', #289, 0.5956299999999997707 ) ;
#91 = ORIENTED_EDGE ( 'NONE', *, *, #156, .F. ) ;
#92 = LINE ( 'NONE', #627, #1052 ) ;
#93 = DIRECTION ( 'NONE',  ( 1.000000000000000000, 1.084202172485505543E-16, -3.636005999432003998E-15 ) ) ;
#94 = CARTESIAN_POINT ( 'NONE',  ( -26.26429186359187540, 8.722803670081050953, -33.38657886839030198 ) ) ;
#95 = CARTESIAN_POINT ( 'NONE',  ( -57.36688256308445943, 13.68280367008108200, -74.43913775164789115 ) ) ;
#96 = ORIENTED_EDGE ( 'NONE', *, *, #772, .T. ) ;
#97 = CIRCLE ( 'NONE', #158, 0.5956299999999997707 ) ;
#98 = ORIENTED_EDGE ( 'NONE', *, *, #804, .F. ) ;
#99 = CC_DESIGN_PERSON_AND_ORGANIZATION_ASSIGNMENT ( #229, #11, ( #703 ) ) ;
#100 = CARTESIAN_POINT ( 'NONE',  ( -8.489291863591873266, 16.93280367008105358, -85.50696795350444290 ) ) ;
#101 = DIRECTION ( 'NONE',  ( -0.08025189047933335706, 0.000000000000000000, -0.9967746154846104378 ) ) ;
#102 = EDGE_LOOP ( 'NONE', ( #1161, #37, #405, #596 ) ) ;
#103 = CARTESIAN_POINT ( 'NONE',  ( -8.489291863591873266, 18.22280367008105273, -74.43913775164789115 ) ) ;
#104 = DIRECTION ( 'NONE',  ( 5.551115123125777772E-16, 1.000000000000000000, -0.000000000000000000 ) ) ;
#105 = VECTOR ( 'NONE', #237, 1000.000000000000000 ) ;
#106 = EDGE_CURVE ( 'NONE', #163, #824, #13, .T. ) ;
#107 = EDGE_LOOP ( 'NONE', ( #89, #1171, #1330, #189 ) ) ;
#108 = ORIENTED_EDGE ( 'NONE', *, *, #357, .F. ) ;
#109 = CARTESIAN_POINT ( 'NONE',  ( 0.000000000000000000, 0.000000000000000000, 0.000000000000000000 ) ) ;
#110 = LINE ( 'NONE', #1206, #174 ) ;
#111 = AXIS2_PLACEMENT_3D ( 'NONE', #129, #7, #992 ) ;
#112 = CARTESIAN_POINT ( 'NONE',  ( -5.184291863591875327, 15.68280367008105181, -33.38913775164787978 ) ) ;
#113 = EDGE_LOOP ( 'NONE', ( #1242, #1178, #98, #1147 ) ) ;
#114 = AXIS2_PLACEMENT_3D ( 'NONE', #1227, #33, #785 ) ;
#115 = CALENDAR_DATE ( 2026, 22, 1 ) ;
#116 = DIRECTION ( 'NONE',  ( 1.000000000000000000, 1.084202172485504557E-16, -1.255529656919281400E-16 ) ) ;
#117 = CARTESIAN_POINT ( 'NONE',  ( -11.73929186359187327, 4.422803670081038696, 8.060862248352119508 ) ) ;
#118 = AXIS2_PLACEMENT_3D ( 'NONE', #39, #1401, #472 ) ;
#119 = ORIENTED_EDGE ( 'NONE', *, *, #708, .T. ) ;
#120 = EDGE_CURVE ( 'NONE', #1053, #1101, #432, .T. ) ;
#121 = AXIS2_PLACEMENT_3D ( 'NONE', #100, #762, #1393 ) ;
#122 = COORDINATED_UNIVERSAL_TIME_OFFSET ( 5, 0, .BEHIND. ) ;
#123 = CARTESIAN_POINT ( 'NONE',  ( -12.03929186359187220, 16.93280367008105358, -89.50696795350444290 ) ) ;
#124 = DIRECTION ( 'NONE',  ( -0.08025189047933335706, 0.000000000000000000, -0.9967746154846104378 ) ) ;
#125 = ADVANCED_FACE ( 'NONE', ( #1188 ), #647, .F. ) ;
#126 = ORIENTED_EDGE ( 'NONE', *, *, #1253, .T. ) ;
#127 = MANIFOLD_SOLID_BREP ( 'Cut-Extrude11', #738 ) ;
#128 = CARTESIAN_POINT ( 'NONE',  ( -8.489291863591873266, 16.93280367008105358, -84.91133795350444302 ) ) ;
#129 = CARTESIAN_POINT ( 'NONE',  ( -14.26429215238699655, 16.93280367008105358, -89.50696795350445711 ) ) ;
#130 = DIRECTION ( 'NONE',  ( -6.672013369141570147E-16, 1.000000000000000000, 0.000000000000000000 ) ) ;
#131 = ORIENTED_EDGE ( 'NONE', *, *, #53, .F. ) ;
#132 = PERSON_AND_ORGANIZATION_ROLE ( 'classification_officer' ) ;
#133 = FACE_OUTER_BOUND ( 'NONE', #710, .T. ) ;
#134 = CARTESIAN_POINT ( 'NONE',  ( -23.26429186359189671, 11.72280367008104562, -74.44013775164788171 ) ) ;
#135 =( GEOMETRIC_REPRESENTATION_CONTEXT ( 3 ) GLOBAL_UNCERTAINTY_ASSIGNED_CONTEXT ( ( #916 ) ) GLOBAL_UNIT_ASSIGNED_CONTEXT ( ( #1073, #654, #1394 ) ) REPRESENTATION_CONTEXT ( 'NONE', 'WORKASPACE' ) );
#136 = DIRECTION ( 'NONE',  ( -6.672013369140449965E-16, 1.000000000000000000, 0.000000000000000000 ) ) ;
#137 = VERTEX_POINT ( 'NONE', #1092 ) ;
#138 = CARTESIAN_POINT ( 'NONE',  ( -12.03929186359187220, 18.22280367008105273, -92.00696795350444290 ) ) ;
#139 = EDGE_CURVE ( 'NONE', #693, #15, #548, .T. ) ;
#140 = CARTESIAN_POINT ( 'NONE',  ( -8.489291863591873266, 15.68280367008105536, -92.00696795350444290 ) ) ;
#141 = LINE ( 'NONE', #886, #10 ) ;
#142 = ORIENTED_EDGE ( 'NONE', *, *, #983, .T. ) ;
#143 = AXIS2_PLACEMENT_3D ( 'NONE', #273, #950, #292 ) ;
#144 = VECTOR ( 'NONE', #63, 1000.000000000000000 ) ;
#145 = DIRECTION ( 'NONE',  ( 1.067522139062647910E-15, 1.000000000000000000, 4.388676620525645601E-15 ) ) ;
#146 = DIRECTION ( 'NONE',  ( -1.726844129112431462E-16, 0.2588190451025140781, -0.9659258262890700886 ) ) ;
#147 = FACE_OUTER_BOUND ( 'NONE', #324, .T. ) ;
#148 = VERTEX_POINT ( 'NONE', #223 ) ;
#149 = CARTESIAN_POINT ( 'NONE',  ( -26.26429186359188961, 11.72280367008104029, -74.44013775164788171 ) ) ;
#150 = VECTOR ( 'NONE', #54, 1000.000000000000000 ) ;
#151 = CARTESIAN_POINT ( 'NONE',  ( -12.03929186359187220, 16.93280367008105358, -84.91133795350444302 ) ) ;
#152 = CARTESIAN_POINT ( 'NONE',  ( 4.235708136408205426, 5.722803670081264116, -38.98465507974325561 ) ) ;
#153 = ORIENTED_EDGE ( 'NONE', *, *, #283, .F. ) ;
#154 = ORIENTED_EDGE ( 'NONE', *, *, #690, .F. ) ;
#155 = CC_DESIGN_PERSON_AND_ORGANIZATION_ASSIGNMENT ( #448, #1332, ( #415 ) ) ;
#156 = EDGE_CURVE ( 'NONE', #67, #809, #1104, .T. ) ;
#157 = CARTESIAN_POINT ( 'NONE',  ( 5.735708136408130819, 18.22280367008105273, 8.060862248352119508 ) ) ;
#158 = AXIS2_PLACEMENT_3D ( 'NONE', #389, #61, #1353 ) ;
#159 = ADVANCED_FACE ( 'NONE', ( #1296 ), #661, .F. ) ;
#160 = CARTESIAN_POINT ( 'NONE',  ( 5.735708136408123714, 11.72280367008103674, -74.44013775164788171 ) ) ;
#161 = FACE_BOUND ( 'NONE', #536, .T. ) ;
#162 = VERTEX_POINT ( 'NONE', #231 ) ;
#163 = VERTEX_POINT ( 'NONE', #1308 ) ;
#164 = ADVANCED_FACE ( 'NONE', ( #339 ), #460, .F. ) ;
#165 = ORIENTED_EDGE ( 'NONE', *, *, #980, .F. ) ;
#166 = CARTESIAN_POINT ( 'NONE',  ( -14.26429215238695569, 13.68280367008105358, -78.17118748141884055 ) ) ;
#167 = AXIS2_PLACEMENT_3D ( 'NONE', #1032, #1159, #502 ) ;
#168 = LINE ( 'NONE', #730, #836 ) ;
#169 = CARTESIAN_POINT ( 'NONE',  ( -26.26429186359187540, 18.22280367008104918, -33.38657886839033040 ) ) ;
#170 = CARTESIAN_POINT ( 'NONE',  ( -15.79994024845412426, 11.72280367008105628, -72.44007076434976966 ) ) ;
#171 = VERTEX_POINT ( 'NONE', #665 ) ;
#172 = ORIENTED_EDGE ( 'NONE', *, *, #810, .F. ) ;
#173 = ORIENTED_EDGE ( 'NONE', *, *, #1087, .F. ) ;
#174 = VECTOR ( 'NONE', #655, 1000.000000000000227 ) ;
#175 = LINE ( 'NONE', #166, #1204 ) ;
#176 = FACE_OUTER_BOUND ( 'NONE', #854, .T. ) ;
#177 = PLANE ( 'NONE',  #354 ) ;
#178 = DIRECTION ( 'NONE',  ( -0.08025189047933344033, 0.000000000000000000, 0.9967746154846104378 ) ) ;
#179 = ORIENTED_EDGE ( 'NONE', *, *, #1041, .T. ) ;
#180 = VERTEX_POINT ( 'NONE', #1099 ) ;
#181 = EDGE_CURVE ( 'NONE', #1295, #1324, #476, .T. ) ;
#182 = DIRECTION ( 'NONE',  ( -0.9659258262890682012, -1.047258879322463403E-16, 0.2588190451025213501 ) ) ;
#183 = EDGE_CURVE ( 'NONE', #336, #301, #246, .T. ) ;
#184 = VECTOR ( 'NONE', #88, 1000.000000000000000 ) ;
#185 = CARTESIAN_POINT ( 'NONE',  ( -26.26429186359187540, 4.422803670081035143, -33.38657886839033040 ) ) ;
#186 = EDGE_CURVE ( 'NONE', #463, #1268, #917, .T. ) ;
#187 = DIRECTION ( 'NONE',  ( -5.551115123125777772E-16, -1.000000000000000000, 0.000000000000000000 ) ) ;
#188 = PLANE ( 'NONE',  #514 ) ;
#189 = ORIENTED_EDGE ( 'NONE', *, *, #832, .T. ) ;
#190 = VERTEX_POINT ( 'NONE', #474 ) ;
#191 = DIRECTION ( 'NONE',  ( -1.000000000000000000, 5.551115123125777772E-16, 0.000000000000000000 ) ) ;
#192 = DIRECTION ( 'NONE',  ( 0.000000000000000000, 1.000000000000000000, 4.046297593392448043E-16 ) ) ;
#193 = CARTESIAN_POINT ( 'NONE',  ( -12.03929186359187220, 16.93280367008105358, -85.50696795350444290 ) ) ;
#194 = VECTOR ( 'NONE', #840, 1000.000000000000000 ) ;
#195 = CARTESIAN_POINT ( 'NONE',  ( -6.264292152387002766, 13.68280367008105713, -92.00696795350444290 ) ) ;
#196 = VERTEX_POINT ( 'NONE', #1328 ) ;
#197 = ORIENTED_EDGE ( 'NONE', *, *, #464, .F. ) ;
#198 = DIRECTION ( 'NONE',  ( 1.000000000000000000, 1.084202172485504681E-16, 2.141176160863508742E-32 ) ) ;
#199 = CARTESIAN_POINT ( 'NONE',  ( -14.26429215238700543, 13.68280367008105358, -92.00696795350444290 ) ) ;
#200 = DIRECTION ( 'NONE',  ( -1.084202172485504557E-16, 1.000000000000000000, 2.905110965495604487E-17 ) ) ;
#201 = ORIENTED_EDGE ( 'NONE', *, *, #1175, .T. ) ;
#202 = ORIENTED_EDGE ( 'NONE', *, *, #813, .F. ) ;
#203 = CC_DESIGN_PERSON_AND_ORGANIZATION_ASSIGNMENT ( #239, #682, ( #703 ) ) ;
#204 = DIRECTION ( 'NONE',  ( 0.000000000000000000, -1.000000000000000000, 0.000000000000000000 ) ) ;
#205 = ADVANCED_FACE ( 'NONE', ( #1122 ), #691, .T. ) ;
#206 = CARTESIAN_POINT ( 'NONE',  ( 2.735708136408127711, 11.72280367008104385, -74.44013775164788171 ) ) ;
#207 = ORIENTED_EDGE ( 'NONE', *, *, #913, .T. ) ;
#208 = DIRECTION ( 'NONE',  ( 1.000000000000000000, -0.000000000000000000, 3.573316797539113732E-15 ) ) ;
#209 = VECTOR ( 'NONE', #124, 1000.000000000000227 ) ;
#210 = CARTESIAN_POINT ( 'NONE',  ( -14.26429215238699832, 16.93280367008105358, -90.10259795350445700 ) ) ;
#211 = ORIENTED_EDGE ( 'NONE', *, *, #806, .F. ) ;
#212 = ORIENTED_EDGE ( 'NONE', *, *, #230, .F. ) ;
#213 = PERSON_AND_ORGANIZATION_ROLE ( 'design_owner' ) ;
#214 = LINE ( 'NONE', #752, #233 ) ;
#215 = DIRECTION ( 'NONE',  ( 2.912417903693245288E-15, 0.000000000000000000, -1.000000000000000000 ) ) ;
#216 = VECTOR ( 'NONE', #533, 1000.000000000000000 ) ;
#217 = FACE_OUTER_BOUND ( 'NONE', #640, .T. ) ;
#218 = VECTOR ( 'NONE', #1247, 1000.000000000000000 ) ;
#219 = ORIENTED_EDGE ( 'NONE', *, *, #735, .F. ) ;
#220 = EDGE_CURVE ( 'NONE', #1156, #520, #370, .T. ) ;
#221 = COORDINATED_UNIVERSAL_TIME_OFFSET ( 5, 0, .BEHIND. ) ;
#222 = CARTESIAN_POINT ( 'NONE',  ( -6.264292152387022306, 16.93280367008105358, -86.10259795350442857 ) ) ;
#223 = CARTESIAN_POINT ( 'NONE',  ( -11.73929186359187327, 4.422803670081038696, 8.060862248352119508 ) ) ;
#224 = AXIS2_PLACEMENT_3D ( 'NONE', #123, #563, #679 ) ;
#225 = CARTESIAN_POINT ( 'NONE',  ( -14.26429215238695569, 13.68280367008105358, -78.17118748141884055 ) ) ;
#226 = ORIENTED_EDGE ( 'NONE', *, *, #1107, .T. ) ;
#227 = AXIS2_PLACEMENT_3D ( 'NONE', #134, #576, #999 ) ;
#228 = EDGE_CURVE ( 'NONE', #1101, #1295, #329, .T. ) ;
#229 = PERSON_AND_ORGANIZATION ( #887, #1224 ) ;
#230 = EDGE_CURVE ( 'NONE', #1140, #1243, #467, .T. ) ;
#231 = CARTESIAN_POINT ( 'NONE',  ( -12.03929186359187220, 15.68280367008105181, -74.43913775164789115 ) ) ;
#232 = CARTESIAN_POINT ( 'NONE',  ( -11.73929186359187327, 5.722803670081039407, 8.060862248352119508 ) ) ;
#233 = VECTOR ( 'NONE', #678, 1000.000000000000000 ) ;
#234 = EDGE_LOOP ( 'NONE', ( #1068, #131, #453, #920 ) ) ;
#235 = APPROVAL_ROLE ( '' ) ;
#236 = DIRECTION ( 'NONE',  ( 1.000000000000000000, -0.000000000000000000, 3.573316797539113732E-15 ) ) ;
#237 = DIRECTION ( 'NONE',  ( -0.2588190451025214056, 0.000000000000000000, 0.9659258262890680902 ) ) ;
#238 = ORIENTED_EDGE ( 'NONE', *, *, #1298, .F. ) ;
#239 = PERSON_AND_ORGANIZATION ( #887, #1224 ) ;
#240 = CARTESIAN_POINT ( 'NONE',  ( -15.34429186359187369, 15.68280367008105181, -33.38913775164787978 ) ) ;
#241 = CARTESIAN_POINT ( 'NONE',  ( -23.26429186359187185, 8.722803670081050953, 8.060862248352119508 ) ) ;
#242 = CARTESIAN_POINT ( 'NONE',  ( -8.489291863591873266, 16.93280367008105358, -86.10259795350444278 ) ) ;
#243 = ORIENTED_EDGE ( 'NONE', *, *, #1321, .T. ) ;
#244 = ADVANCED_FACE ( 'NONE', ( #250, #704, #588 ), #1010, .F. ) ;
#245 = LINE ( 'NONE', #1327, #736 ) ;
#246 = LINE ( 'NONE', #594, #1009 ) ;
#247 = CARTESIAN_POINT ( 'NONE',  ( -6.264292152387025858, 16.93280367008105358, -85.50696795350442869 ) ) ;
#248 = VERTEX_POINT ( 'NONE', #256 ) ;
#249 = DIRECTION ( 'NONE',  ( 1.000000000000000000, -0.000000000000000000, 3.573316797539113732E-15 ) ) ;
#250 = FACE_BOUND ( 'NONE', #436, .T. ) ;
#251 = LINE ( 'NONE', #698, #254 ) ;
#252 = ORIENTED_EDGE ( 'NONE', *, *, #337, .F. ) ;
#253 = AXIS2_PLACEMENT_3D ( 'NONE', #1164, #1285, #1063 ) ;
#254 = VECTOR ( 'NONE', #351, 1000.000000000000000 ) ;
#255 = LINE ( 'NONE', #907, #953 ) ;
#256 = CARTESIAN_POINT ( 'NONE',  ( -12.03929186359187220, 18.22280367008105273, -74.43913775164789115 ) ) ;
#257 = CARTESIAN_POINT ( 'NONE',  ( -26.26429186359188961, 11.72280367008104029, 8.060862248352119508 ) ) ;
#258 = EDGE_CURVE ( 'NONE', #1324, #1295, #592, .T. ) ;
#259 = VERTEX_POINT ( 'NONE', #1128 ) ;
#260 = ORIENTED_EDGE ( 'NONE', *, *, #806, .T. ) ;
#261 = LINE ( 'NONE', #157, #1390 ) ;
#262 = DIRECTION ( 'NONE',  ( 0.000000000000000000, 0.2190600990713345020, -0.9757113676671277380 ) ) ;
#263 = EDGE_CURVE ( 'NONE', #611, #397, #684, .T. ) ;
#264 = DIRECTION ( 'NONE',  ( 0.2588190451025214611, 1.496598245230914598E-16, 0.9659258262890679791 ) ) ;
#265 = CC_DESIGN_SECURITY_CLASSIFICATION ( #1114, ( #703 ) ) ;
#266 = ORIENTED_EDGE ( 'NONE', *, *, #835, .F. ) ;
#267 = ORIENTED_EDGE ( 'NONE', *, *, #914, .T. ) ;
#268 = VERTEX_POINT ( 'NONE', #151 ) ;
#269 = DIRECTION ( 'NONE',  ( -0.000000000000000000, -0.000000000000000000, 1.000000000000000000 ) ) ;
#270 = VECTOR ( 'NONE', #1141, 1000.000000000000114 ) ;
#271 = CARTESIAN_POINT ( 'NONE',  ( -57.36688256308445943, 5.722803670081074934, -38.98465507974325561 ) ) ;
#272 = PLANE ( 'NONE',  #167 ) ;
#273 = CARTESIAN_POINT ( 'NONE',  ( -26.26429186359188961, 5.722803670081044736, 8.060862248352119508 ) ) ;
#274 = ORIENTED_EDGE ( 'NONE', *, *, #973, .T. ) ;
#275 = ORIENTED_EDGE ( 'NONE', *, *, #1213, .F. ) ;
#276 = ORIENTED_EDGE ( 'NONE', *, *, #613, .F. ) ;
#277 = DIRECTION ( 'NONE',  ( 0.000000000000000000, 1.974886432808854754E-16, -1.000000000000000000 ) ) ;
#278 = VECTOR ( 'NONE', #555, 1000.000000000000000 ) ;
#279 = LINE ( 'NONE', #1151, #342 ) ;
#280 = CARTESIAN_POINT ( 'NONE',  ( -6.264292152387009871, 16.93280367008105358, -89.50696795350442869 ) ) ;
#281 = LINE ( 'NONE', #95, #1018 ) ;
#282 = EDGE_LOOP ( 'NONE', ( #681, #566 ) ) ;
#283 = EDGE_CURVE ( 'NONE', #776, #75, #1220, .T. ) ;
#284 = ORIENTED_EDGE ( 'NONE', *, *, #220, .F. ) ;
#285 = ADVANCED_FACE ( 'NONE', ( #901 ), #1342, .F. ) ;
#286 = ADVANCED_FACE ( 'NONE', ( #1004 ), #897, .F. ) ;
#287 = AXIS2_PLACEMENT_3D ( 'NONE', #769, #879, #885 ) ;
#288 = PLANE ( 'NONE',  #462 ) ;
#289 = AXIS2_PLACEMENT_3D ( 'NONE', #516, #93, #622 ) ;
#290 = LINE ( 'NONE', #71, #878 ) ;
#291 = DIRECTION ( 'NONE',  ( -1.000000000000000000, 5.551115123125777772E-16, 0.000000000000000000 ) ) ;
#292 = DIRECTION ( 'NONE',  ( 1.387778780781445478E-15, 1.000000000000000000, 0.000000000000000000 ) ) ;
#293 = ORIENTED_EDGE ( 'NONE', *, *, #258, .F. ) ;
#294 = ORIENTED_EDGE ( 'NONE', *, *, #1335, .F. ) ;
#295 = LOCAL_TIME ( 8, 38, 2.000000000000000000, #338 ) ;
#296 = PLANE ( 'NONE',  #253 ) ;
#297 = AXIS2_PLACEMENT_3D ( 'NONE', #683, #689, #645 ) ;
#298 = DIRECTION ( 'NONE',  ( 2.912417903693245288E-15, 0.000000000000000000, -1.000000000000000000 ) ) ;
#299 = FACE_OUTER_BOUND ( 'NONE', #1028, .T. ) ;
#300 = CARTESIAN_POINT ( 'NONE',  ( -15.34429186359187192, 15.68280367008104825, 8.060862248352119508 ) ) ;
#301 = VERTEX_POINT ( 'NONE', #803 ) ;
#302 = EDGE_LOOP ( 'NONE', ( #260, #179, #1072, #744 ) ) ;
#303 = PLANE ( 'NONE',  #1233 ) ;
#304 = DIRECTION ( 'NONE',  ( 1.000000000000000000, -0.000000000000000000, 3.573316797539113732E-15 ) ) ;
#305 = CARTESIAN_POINT ( 'NONE',  ( 5.735708136408123714, 11.72280367008103674, -74.44013775164788171 ) ) ;
#306 = DIRECTION ( 'NONE',  ( -1.084202172485504681E-16, 1.000000000000000000, 0.000000000000000000 ) ) ;
#307 = ORIENTED_EDGE ( 'NONE', *, *, #789, .T. ) ;
#308 = EDGE_CURVE ( 'NONE', #380, #190, #778, .T. ) ;
#309 = EDGE_CURVE ( 'NONE', #310, #180, #1135, .T. ) ;
#310 = VERTEX_POINT ( 'NONE', #241 ) ;
#311 = DIRECTION ( 'NONE',  ( -1.000000000000000000, -1.084202172485505543E-16, 3.636005999432003998E-15 ) ) ;
#312 = ADVANCED_FACE ( 'NONE', ( #494 ), #1110, .F. ) ;
#313 = EDGE_LOOP ( 'NONE', ( #686, #733, #808, #1293 ) ) ;
#314 = CARTESIAN_POINT ( 'NONE',  ( -15.34429186359187369, 15.68280367008105181, -33.38913775164787978 ) ) ;
#315 = EDGE_CURVE ( 'NONE', #809, #1389, #637, .T. ) ;
#316 = LINE ( 'NONE', #149, #366 ) ;
#317 = ORIENTED_EDGE ( 'NONE', *, *, #1312, .F. ) ;
#318 = LINE ( 'NONE', #225, #105 ) ;
#319 = EDGE_LOOP ( 'NONE', ( #498, #5, #44, #603 ) ) ;
#320 = LOCAL_TIME ( 8, 38, 2.000000000000000000, #1097 ) ;
#321 = ORIENTED_EDGE ( 'NONE', *, *, #936, .T. ) ;
#322 = VECTOR ( 'NONE', #325, 1000.000000000000000 ) ;
#323 = CARTESIAN_POINT ( 'NONE',  ( -12.03929186359187220, 15.68280367008105181, -92.00696795350444290 ) ) ;
#324 = EDGE_LOOP ( 'NONE', ( #1026, #1284, #219, #57, #888 ) ) ;
#325 = DIRECTION ( 'NONE',  ( 1.000000000000000000, 5.880418562633242031E-16, -0.000000000000000000 ) ) ;
#326 = ADVANCED_FACE ( 'NONE', ( #812 ), #924, .F. ) ;
#327 = DIRECTION ( 'NONE',  ( 0.000000000000000000, -0.2588190451025143002, 0.9659258262890700886 ) ) ;
#328 = VERTEX_POINT ( 'NONE', #524 ) ;
#329 = LINE ( 'NONE', #358, #1031 ) ;
#330 = CARTESIAN_POINT ( 'NONE',  ( -14.26429215238699655, 16.93280367008105358, -89.50696795350445711 ) ) ;
#331 = APPLICATION_CONTEXT ( 'configuration controlled 3d designs of mechanical parts and assemblies' ) ;
#332 = VECTOR ( 'NONE', #841, 1000.000000000000114 ) ;
#333 = DIRECTION ( 'NONE',  ( -1.255529656919281400E-16, 0.000000000000000000, -1.000000000000000000 ) ) ;
#334 = CIRCLE ( 'NONE', #720, 0.5956299999999997707 ) ;
#335 = ADVANCED_FACE ( 'NONE', ( #176 ), #1378, .F. ) ;
#336 = VERTEX_POINT ( 'NONE', #1362 ) ;
#337 = EDGE_CURVE ( 'NONE', #50, #163, #279, .T. ) ;
#338 = COORDINATED_UNIVERSAL_TIME_OFFSET ( 5, 0, .BEHIND. ) ;
#339 = FACE_OUTER_BOUND ( 'NONE', #1367, .T. ) ;
#340 = DIRECTION ( 'NONE',  ( 1.000000000000000000, -3.582905630244692893E-16, -0.000000000000000000 ) ) ;
#341 = ORIENTED_EDGE ( 'NONE', *, *, #1317, .T. ) ;
#342 = VECTOR ( 'NONE', #746, 1000.000000000000000 ) ;
#343 = CC_DESIGN_APPROVAL ( #955, ( #703 ) ) ;
#344 = CARTESIAN_POINT ( 'NONE',  ( -15.34429186359187369, 18.22280367008105273, -33.38913775164787978 ) ) ;
#345 = PLANE ( 'NONE',  #442 ) ;
#346 = VECTOR ( 'NONE', #200, 1000.000000000000000 ) ;
#347 = ORIENTED_EDGE ( 'NONE', *, *, #711, .T. ) ;
#348 = DATE_TIME_ROLE ( 'creation_date' ) ;
#349 = CARTESIAN_POINT ( 'NONE',  ( -4.728643478729624761, 8.722803670081029637, -72.44007076434976966 ) ) ;
#350 = CARTESIAN_POINT ( 'NONE',  ( 2.735708136408127711, 11.72280367008104385, -74.44013775164788171 ) ) ;
#351 = DIRECTION ( 'NONE',  ( -0.000000000000000000, -0.000000000000000000, 1.000000000000000000 ) ) ;
#352 = EDGE_CURVE ( 'NONE', #1148, #67, #616, .T. ) ;
#353 = ORIENTED_EDGE ( 'NONE', *, *, #688, .T. ) ;
#354 = AXIS2_PLACEMENT_3D ( 'NONE', #1379, #918, #1042 ) ;
#355 = APPLICATION_PROTOCOL_DEFINITION ( 'international standard', 'config_control_design', 1994, #331 ) ;
#356 = CARTESIAN_POINT ( 'NONE',  ( -6.264292152387011647, 16.93280367008105358, -89.50696795350442869 ) ) ;
#357 = EDGE_CURVE ( 'NONE', #612, #634, #290, .T. ) ;
#358 = CARTESIAN_POINT ( 'NONE',  ( -6.264292152387013424, 16.93280367008105358, -88.91133795350442881 ) ) ;
#359 = DIRECTION ( 'NONE',  ( -0.2588190451025212946, -4.081631577902215903E-17, 0.9659258262890680902 ) ) ;
#360 = VECTOR ( 'NONE', #1302, 1000.000000000000000 ) ;
#361 = ORIENTED_EDGE ( 'NONE', *, *, #418, .T. ) ;
#362 = DIRECTION ( 'NONE',  ( 1.000000000000000000, -0.000000000000000000, 3.573316797539113732E-15 ) ) ;
#363 = DIRECTION ( 'NONE',  ( 1.601283208593976993E-14, 1.000000000000000000, -0.000000000000000000 ) ) ;
#364 = LINE ( 'NONE', #371, #629 ) ;
#365 = ORIENTED_EDGE ( 'NONE', *, *, #1195, .T. ) ;
#366 = VECTOR ( 'NONE', #269, 1000.000000000000000 ) ;
#367 = APPROVAL ( #23, 'UNSPECIFIED' ) ;
#368 = DIRECTION ( 'NONE',  ( -0.000000000000000000, -1.000000000000000000, -0.000000000000000000 ) ) ;
#369 = EDGE_CURVE ( 'NONE', #717, #611, #1245, .T. ) ;
#370 = LINE ( 'NONE', #793, #1404 ) ;
#371 = CARTESIAN_POINT ( 'NONE',  ( -6.264292152387003654, 18.22280367008105628, -92.00696795350444290 ) ) ;
#372 = ORIENTED_EDGE ( 'NONE', *, *, #308, .F. ) ;
#373 = ORIENTED_EDGE ( 'NONE', *, *, #83, .F. ) ;
#374 = VECTOR ( 'NONE', #780, 1000.000000000000000 ) ;
#375 = EDGE_CURVE ( 'NONE', #734, #604, #90, .T. ) ;
#376 = DIRECTION ( 'NONE',  ( 4.185098856397604666E-17, -8.370197712795209331E-17, 1.000000000000000000 ) ) ;
#377 = CARTESIAN_POINT ( 'NONE',  ( -26.26429186359188961, 5.722803670081044736, 8.060862248352119508 ) ) ;
#378 = DIRECTION ( 'NONE',  ( -1.000000000000000000, -6.672013369140449965E-16, 0.000000000000000000 ) ) ;
#379 = ORIENTED_EDGE ( 'NONE', *, *, #1015, .F. ) ;
#380 = VERTEX_POINT ( 'NONE', #417 ) ;
#381 = ORIENTED_EDGE ( 'NONE', *, *, #983, .F. ) ;
#382 = DIRECTION ( 'NONE',  ( -1.084202172485504557E-16, 1.000000000000000000, 2.905110965495604487E-17 ) ) ;
#383 = DIRECTION ( 'NONE',  ( 0.000000000000000000, -1.000000000000000000, 0.000000000000000000 ) ) ;
#384 = DIRECTION ( 'NONE',  ( 2.912417903693245288E-15, 0.000000000000000000, 1.000000000000000000 ) ) ;
#385 = APPROVAL_PERSON_ORGANIZATION ( #670, #955, #895 ) ;
#386 = VERTEX_POINT ( 'NONE', #932 ) ;
#387 = EDGE_LOOP ( 'NONE', ( #1155, #294 ) ) ;
#388 = ORIENTED_EDGE ( 'NONE', *, *, #1149, .T. ) ;
#389 = CARTESIAN_POINT ( 'NONE',  ( -8.489291863591873266, 16.93280367008105358, -85.50696795350444290 ) ) ;
#390 = AXIS2_PLACEMENT_3D ( 'NONE', #869, #1297, #960 ) ;
#391 = CARTESIAN_POINT ( 'NONE',  ( -6.264292152387009871, 16.93280367008105358, -89.50696795350442869 ) ) ;
#392 = CARTESIAN_POINT ( 'NONE',  ( 5.735708136408123714, 11.72280367008103674, 8.060862248352119508 ) ) ;
#393 = DIRECTION ( 'NONE',  ( 0.000000000000000000, 1.000000000000000000, 2.905110965495604487E-17 ) ) ;
#394 = ORIENTED_EDGE ( 'NONE', *, *, #106, .T. ) ;
#395 = ORIENTED_EDGE ( 'NONE', *, *, #914, .F. ) ;
#396 = EDGE_CURVE ( 'NONE', #380, #336, #941, .T. ) ;
#397 = VERTEX_POINT ( 'NONE', #401 ) ;
#398 = DIRECTION ( 'NONE',  ( 0.000000000000000000, 1.000000000000000000, -1.549392514931273214E-16 ) ) ;
#399 = VECTOR ( 'NONE', #1043, 1000.000000000000000 ) ;
#400 = VECTOR ( 'NONE', #805, 1000.000000000000000 ) ;
#401 = CARTESIAN_POINT ( 'NONE',  ( -15.34429186359187192, 18.22280367008104918, 8.060862248352119508 ) ) ;
#402 = CARTESIAN_POINT ( 'NONE',  ( -14.26429215238698056, 16.93280367008105358, -85.50696795350445711 ) ) ;
#403 = DIRECTION ( 'NONE',  ( -0.000000000000000000, -0.000000000000000000, -1.000000000000000000 ) ) ;
#404 = ORIENTED_EDGE ( 'NONE', *, *, #669, .T. ) ;
#405 = ORIENTED_EDGE ( 'NONE', *, *, #315, .T. ) ;
#406 = VECTOR ( 'NONE', #798, 1000.000000000000000 ) ;
#407 = DIRECTION ( 'NONE',  ( 3.573316797539113732E-15, 2.507590735115167730E-16, -1.000000000000000000 ) ) ;
#408 = VECTOR ( 'NONE', #820, 1000.000000000000000 ) ;
#409 = DIRECTION ( 'NONE',  ( -1.000000000000000000, -1.084202172485504434E-16, -0.000000000000000000 ) ) ;
#410 = CARTESIAN_POINT ( 'NONE',  ( -5.264291863591871845, 13.68280367008105358, -74.43913775164789115 ) ) ;
#411 = FACE_OUTER_BOUND ( 'NONE', #881, .T. ) ;
#412 = ORIENTED_EDGE ( 'NONE', *, *, #1065, .F. ) ;
#413 = ORIENTED_EDGE ( 'NONE', *, *, #1070, .T. ) ;
#414 = CARTESIAN_POINT ( 'NONE',  ( -8.489291863591873266, 15.68280367008105181, -74.43913775164789115 ) ) ;
#415 = PRODUCT_DEFINITION ( 'UNKNOWN', '', #703, #1134 ) ;
#416 = AXIS2_PLACEMENT_3D ( 'NONE', #615, #398, #593 ) ;
#417 = CARTESIAN_POINT ( 'NONE',  ( -8.789291863591872200, 4.422803670081040472, 8.060862248352119508 ) ) ;
#418 = EDGE_CURVE ( 'NONE', #927, #386, #168, .T. ) ;
#419 = CARTESIAN_POINT ( 'NONE',  ( -23.26429186359187185, 8.722803670081050953, -44.58273129109695532 ) ) ;
#420 = LINE ( 'NONE', #1374, #399 ) ;
#421 = ORIENTED_EDGE ( 'NONE', *, *, #1149, .F. ) ;
#422 = EDGE_CURVE ( 'NONE', #259, #1366, #1158, .T. ) ;
#423 = ORIENTED_EDGE ( 'NONE', *, *, #481, .T. ) ;
#424 = FACE_BOUND ( 'NONE', #282, .T. ) ;
#425 = EDGE_CURVE ( 'NONE', #171, #328, #839, .T. ) ;
#426 = DIRECTION ( 'NONE',  ( 1.000000000000000000, 6.672013369140448979E-16, -0.000000000000000000 ) ) ;
#427 = VECTOR ( 'NONE', #1303, 1000.000000000000000 ) ;
#428 = DIRECTION ( 'NONE',  ( 1.000000000000000000, 1.084202172485504681E-16, 2.141176160863508742E-32 ) ) ;
#429 = VERTEX_POINT ( 'NONE', #740 ) ;
#430 = FACE_OUTER_BOUND ( 'NONE', #756, .T. ) ;
#431 = ORIENTED_EDGE ( 'NONE', *, *, #396, .T. ) ;
#432 = CIRCLE ( 'NONE', #111, 0.5956299999999997707 ) ;
#433 = CARTESIAN_POINT ( 'NONE',  ( -8.789291863591875753, 5.722803670080813809, -38.98465507974294297 ) ) ;
#434 = FACE_OUTER_BOUND ( 'NONE', #904, .T. ) ;
#435 = DIRECTION ( 'NONE',  ( 0.000000000000000000, 0.000000000000000000, 1.000000000000000000 ) ) ;
#436 = EDGE_LOOP ( 'NONE', ( #82, #126 ) ) ;
#437 = DIRECTION ( 'NONE',  ( -0.000000000000000000, -0.000000000000000000, 1.000000000000000000 ) ) ;
#438 = LINE ( 'NONE', #1202, #427 ) ;
#439 = ORIENTED_EDGE ( 'NONE', *, *, #1090, .T. ) ;
#440 = ORIENTED_EDGE ( 'NONE', *, *, #441, .F. ) ;
#441 = EDGE_CURVE ( 'NONE', #1389, #646, #1165, .T. ) ;
#442 = AXIS2_PLACEMENT_3D ( 'NONE', #117, #770, #666 ) ;
#443 = DIRECTION ( 'NONE',  ( -1.255529656919281400E-16, 0.000000000000000000, -1.000000000000000000 ) ) ;
#444 = CARTESIAN_POINT ( 'NONE',  ( -6.264292152387024082, 16.93280367008105358, -86.10259795350442857 ) ) ;
#445 = EDGE_CURVE ( 'NONE', #1310, #1081, #948, .T. ) ;
#446 = VERTEX_POINT ( 'NONE', #1064 ) ;
#447 = EDGE_CURVE ( 'NONE', #180, #1209, #500, .T. ) ;
#448 = PERSON_AND_ORGANIZATION ( #887, #1224 ) ;
#449 = CARTESIAN_POINT ( 'NONE',  ( -6.264292152387011647, 16.93280367008105358, -89.50696795350442869 ) ) ;
#450 = AXIS2_PLACEMENT_3D ( 'NONE', #633, #1154, #503 ) ;
#451 = CARTESIAN_POINT ( 'NONE',  ( -8.489291863591873266, 15.68280367008105536, -92.00696795350444290 ) ) ;
#452 = AXIS2_PLACEMENT_3D ( 'NONE', #247, #892, #795 ) ;
#453 = ORIENTED_EDGE ( 'NONE', *, *, #613, .T. ) ;
#454 = DATE_AND_TIME ( #115, #68 ) ;
#455 = DIRECTION ( 'NONE',  ( 1.000000000000000000, -0.000000000000000000, 3.573316797539113732E-15 ) ) ;
#456 = DIRECTION ( 'NONE',  ( -1.000000000000000000, -3.414809992080328530E-16, 0.000000000000000000 ) ) ;
#457 = ORIENTED_EDGE ( 'NONE', *, *, #964, .T. ) ;
#458 = DIRECTION ( 'NONE',  ( 0.000000000000000000, 0.000000000000000000, 1.000000000000000000 ) ) ;
#459 = EDGE_CURVE ( 'NONE', #1391, #1081, #79, .T. ) ;
#460 = PLANE ( 'NONE',  #287 ) ;
#461 = CARTESIAN_POINT ( 'NONE',  ( -6.264292152387009871, 16.93280367008105358, -90.10259795350442857 ) ) ;
#462 = AXIS2_PLACEMENT_3D ( 'NONE', #729, #182, #621 ) ;
#463 = VERTEX_POINT ( 'NONE', #199 ) ;
#464 = EDGE_CURVE ( 'NONE', #75, #301, #956, .T. ) ;
#465 = CALENDAR_DATE ( 2026, 22, 1 ) ;
#466 = DIRECTION ( 'NONE',  ( -0.000000000000000000, 0.000000000000000000, 1.000000000000000000 ) ) ;
#467 = LINE ( 'NONE', #140, #1129 ) ;
#468 = DIRECTION ( 'NONE',  ( 0.000000000000000000, 1.974886432808854754E-16, -1.000000000000000000 ) ) ;
#469 = VERTEX_POINT ( 'NONE', #1142 ) ;
#470 = AXIS2_PLACEMENT_3D ( 'NONE', #402, #830, #384 ) ;
#471 = PERSON_AND_ORGANIZATION ( #887, #1224 ) ;
#472 = DIRECTION ( 'NONE',  ( 1.000000000000000000, 1.084202172485504557E-16, 0.000000000000000000 ) ) ;
#473 = ADVANCED_FACE ( 'NONE', ( #76 ), #513, .F. ) ;
#474 = CARTESIAN_POINT ( 'NONE',  ( -8.789291863591852660, 5.722803670081039407, 8.060862248352119508 ) ) ;
#475 = DIRECTION ( 'NONE',  ( 5.551115123125777772E-16, 1.000000000000000000, -0.000000000000000000 ) ) ;
#476 = CIRCLE ( 'NONE', #224, 0.5956299999999997707 ) ;
#477 = EDGE_LOOP ( 'NONE', ( #96, #546, #852, #365 ) ) ;
#478 = VECTOR ( 'NONE', #383, 1000.000000000000000 ) ;
#479 = LINE ( 'NONE', #69, #532 ) ;
#480 = CARTESIAN_POINT ( 'NONE',  ( -57.36688256308445943, 13.68280367008108200, -74.43913775164789115 ) ) ;
#481 = EDGE_CURVE ( 'NONE', #1283, #612, #737, .T. ) ;
#482 = CARTESIAN_POINT ( 'NONE',  ( -26.26429186359188961, 5.722803670081044736, 8.060862248352119508 ) ) ;
#483 = VERTEX_POINT ( 'NONE', #414 ) ;
#484 = ORIENTED_EDGE ( 'NONE', *, *, #964, .F. ) ;
#485 = ADVANCED_FACE ( 'NONE', ( #851 ), #296, .T. ) ;
#486 = AXIS2_PLACEMENT_3D ( 'NONE', #958, #249, #1180 ) ;
#487 = CIRCLE ( 'NONE', #121, 0.5956299999999997707 ) ;
#488 = CARTESIAN_POINT ( 'NONE',  ( -23.26429186359187185, 8.722803670081050953, -74.44013775164788171 ) ) ;
#489 = DIRECTION ( 'NONE',  ( -1.000000000000000000, 2.312964634635746211E-15, 0.000000000000000000 ) ) ;
#490 = PLANE ( 'NONE',  #1235 ) ;
#491 = ORIENTED_EDGE ( 'NONE', *, *, #813, .T. ) ;
#492 = ORIENTED_EDGE ( 'NONE', *, *, #186, .T. ) ;
#493 = DIRECTION ( 'NONE',  ( 0.2588190451025212946, -5.986392980923259030E-16, 0.9659258262890680902 ) ) ;
#494 = FACE_OUTER_BOUND ( 'NONE', #1085, .T. ) ;
#495 = DIRECTION ( 'NONE',  ( -1.000000000000000000, 2.312964634635746211E-15, 0.000000000000000000 ) ) ;
#496 = ORIENTED_EDGE ( 'NONE', *, *, #906, .F. ) ;
#497 = ORIENTED_EDGE ( 'NONE', *, *, #32, .F. ) ;
#498 = ORIENTED_EDGE ( 'NONE', *, *, #804, .T. ) ;
#499 = LINE ( 'NONE', #922, #1071 ) ;
#500 = LINE ( 'NONE', #1386, #1305 ) ;
#501 = ADVANCED_FACE ( 'NONE', ( #838 ), #303, .F. ) ;
#502 = DIRECTION ( 'NONE',  ( 1.000000000000000000, 1.734723475976811828E-15, 0.000000000000000000 ) ) ;
#503 = DIRECTION ( 'NONE',  ( 0.000000000000000000, -1.000000000000000000, 0.000000000000000000 ) ) ;
#504 = ORIENTED_EDGE ( 'NONE', *, *, #1041, .F. ) ;
#505 = ORIENTED_EDGE ( 'NONE', *, *, #120, .F. ) ;
#506 = VERTEX_POINT ( 'NONE', #85 ) ;
#507 = CARTESIAN_POINT ( 'NONE',  ( -16.00090214277746270, 8.722803670081050953, -71.69007076434976966 ) ) ;
#508 = CARTESIAN_POINT ( 'NONE',  ( -15.34429186359187369, 15.68280367008105181, -33.38913775164787978 ) ) ;
#509 = CARTESIAN_POINT ( 'NONE',  ( -26.26429186359187540, 4.422803670081035143, -33.38657886839033040 ) ) ;
#510 = FACE_BOUND ( 'NONE', #894, .T. ) ;
#511 = ORIENTED_EDGE ( 'NONE', *, *, #34, .F. ) ;
#512 = ORIENTED_EDGE ( 'NONE', *, *, #1216, .T. ) ;
#513 = PLANE ( 'NONE',  #584 ) ;
#514 = AXIS2_PLACEMENT_3D ( 'NONE', #1033, #64, #624 ) ;
#515 = VECTOR ( 'NONE', #1137, 1000.000000000000000 ) ;
#516 = CARTESIAN_POINT ( 'NONE',  ( -14.26429215238698056, 16.93280367008105358, -85.50696795350445711 ) ) ;
#517 = CARTESIAN_POINT ( 'NONE',  ( -8.489291863591873266, 16.93280367008105358, -88.91133795350444302 ) ) ;
#518 = CARTESIAN_POINT ( 'NONE',  ( -5.264291863591876286, 13.68280367008104648, -74.43913775164789115 ) ) ;
#519 = ORIENTED_EDGE ( 'NONE', *, *, #708, .F. ) ;
#520 = VERTEX_POINT ( 'NONE', #1270 ) ;
#521 = EDGE_CURVE ( 'NONE', #951, #1391, #92, .T. ) ;
#522 = PLANE ( 'NONE',  #825 ) ;
#523 = VECTOR ( 'NONE', #1239, 1000.000000000000000 ) ;
#524 = CARTESIAN_POINT ( 'NONE',  ( 5.735708136408101510, 5.722803670081016314, -33.38657886839033040 ) ) ;
#525 = CARTESIAN_POINT ( 'NONE',  ( -26.26429186359188961, 5.722803670081034078, -33.38657886839033040 ) ) ;
#526 = FACE_OUTER_BOUND ( 'NONE', #1020, .T. ) ;
#527 = ORIENTED_EDGE ( 'NONE', *, *, #1195, .F. ) ;
#528 = APPROVAL_PERSON_ORGANIZATION ( #1319, #367, #17 ) ;
#529 = ORIENTED_EDGE ( 'NONE', *, *, #1338, .T. ) ;
#530 = ADVANCED_FACE ( 'NONE', ( #1055, #424, #1385 ), #522, .T. ) ;
#531 = CARTESIAN_POINT ( 'NONE',  ( -6.264292152387052504, 18.22280367008105273, -78.17118963701504697 ) ) ;
#532 = VECTOR ( 'NONE', #277, 1000.000000000000000 ) ;
#533 = DIRECTION ( 'NONE',  ( 1.000000000000000000, -0.000000000000000000, 3.573316797539113732E-15 ) ) ;
#534 = MECHANICAL_CONTEXT ( 'NONE', #659, 'mechanical' ) ;
#535 = LINE ( 'NONE', #300, #184 ) ;
#536 = EDGE_LOOP ( 'NONE', ( #317, #1138 ) ) ;
#537 = DIRECTION ( 'NONE',  ( -0.08025189047933335706, 0.000000000000000000, -0.9967746154846104378 ) ) ;
#538 = ORIENTED_EDGE ( 'NONE', *, *, #973, .F. ) ;
#539 = LINE ( 'NONE', #433, #642 ) ;
#540 = VECTOR ( 'NONE', #1019, 1000.000000000000000 ) ;
#541 = DIRECTION ( 'NONE',  ( 0.000000000000000000, 0.000000000000000000, 1.000000000000000000 ) ) ;
#542 = FACE_OUTER_BOUND ( 'NONE', #1259, .T. ) ;
#543 = ORIENTED_EDGE ( 'NONE', *, *, #768, .F. ) ;
#544 = CARTESIAN_POINT ( 'NONE',  ( -6.264292152387024082, 16.93280367008105358, -86.10259795350442857 ) ) ;
#545 = CARTESIAN_POINT ( 'NONE',  ( -5.947353853819769414E-15, 15.68280367008105536, -7.378981852358757226E-17 ) ) ;
#546 = ORIENTED_EDGE ( 'NONE', *, *, #669, .F. ) ;
#547 = EDGE_CURVE ( 'NONE', #1310, #951, #1371, .T. ) ;
#548 = CIRCLE ( 'NONE', #1331, 0.5956299999999997707 ) ;
#549 = ORIENTED_EDGE ( 'NONE', *, *, #650, .T. ) ;
#550 = ADVANCED_FACE ( 'NONE', ( #934, #510, #411 ), #926, .F. ) ;
#551 = PLANE ( 'NONE',  #1306 ) ;
#552 = ADVANCED_FACE ( 'NONE', ( #526 ), #1248, .F. ) ;
#553 = FACE_OUTER_BOUND ( 'NONE', #800, .T. ) ;
#554 = PRODUCT ( 'fiber array holder 15_01', 'fiber array holder 15_01', '', ( #534 ) ) ;
#555 = DIRECTION ( 'NONE',  ( 3.636005999432003998E-15, 0.000000000000000000, 1.000000000000000000 ) ) ;
#556 = ORIENTED_EDGE ( 'NONE', *, *, #315, .F. ) ;
#557 = COORDINATED_UNIVERSAL_TIME_OFFSET ( 5, 0, .BEHIND. ) ;
#558 = VECTOR ( 'NONE', #1368, 1000.000000000000114 ) ;
#559 = LINE ( 'NONE', #19, #972 ) ;
#560 = DIRECTION ( 'NONE',  ( 1.000000000000000000, -0.000000000000000000, 3.573316797539113732E-15 ) ) ;
#561 = VERTEX_POINT ( 'NONE', #716 ) ;
#562 = CALENDAR_DATE ( 2026, 22, 1 ) ;
#563 = DIRECTION ( 'NONE',  ( -1.000000000000000000, -1.084202172485504681E-16, 0.000000000000000000 ) ) ;
#564 = CARTESIAN_POINT ( 'NONE',  ( -26.26429186359187540, 18.22280367008104918, 8.060862248352119508 ) ) ;
#565 = CIRCLE ( 'NONE', #1373, 0.5956299999999997707 ) ;
#566 = ORIENTED_EDGE ( 'NONE', *, *, #83, .T. ) ;
#567 = CC_DESIGN_PERSON_AND_ORGANIZATION_ASSIGNMENT ( #1186, #213, ( #554 ) ) ;
#568 = EDGE_CURVE ( 'NONE', #1013, #1366, #742, .T. ) ;
#569 = PLANE ( 'NONE',  #118 ) ;
#570 = PLANE ( 'NONE',  #664 ) ;
#571 = EDGE_CURVE ( 'NONE', #561, #259, #943, .T. ) ;
#572 = CARTESIAN_POINT ( 'NONE',  ( -12.03929186359187220, 15.68280367008105181, -92.00696795350444290 ) ) ;
#573 = EDGE_LOOP ( 'NONE', ( #935, #202, #865, #1118, #728, #413, #676, #707 ) ) ;
#574 = ADVANCED_FACE ( 'NONE', ( #610 ), #188, .F. ) ;
#575 = CARTESIAN_POINT ( 'NONE',  ( 5.735708136408120161, 8.722803670081047400, -33.38657886839035882 ) ) ;
#576 = DIRECTION ( 'NONE',  ( -1.734723475976809855E-15, 1.000000000000000000, 0.000000000000000000 ) ) ;
#577 = CARTESIAN_POINT ( 'NONE',  ( -8.789291863591872200, -5.864227281915759687E-15, 0.000000000000000000 ) ) ;
#578 = VERTEX_POINT ( 'NONE', #831 ) ;
#579 = EDGE_CURVE ( 'NONE', #162, #717, #1388, .T. ) ;
#580 = CARTESIAN_POINT ( 'NONE',  ( -14.26429215238697878, 16.93280367008105358, -84.91133795350445723 ) ) ;
#581 = DIRECTION ( 'NONE',  ( 2.312964634635746211E-15, 1.000000000000000000, 0.000000000000000000 ) ) ;
#582 = DIRECTION ( 'NONE',  ( -1.084202172485504557E-16, 1.000000000000000000, 2.905110965495604487E-17 ) ) ;
#583 = EDGE_LOOP ( 'NONE', ( #602, #1113, #718, #1299 ) ) ;
#584 = AXIS2_PLACEMENT_3D ( 'NONE', #940, #954, #1377 ) ;
#585 = VECTOR ( 'NONE', #949, 1000.000000000000114 ) ;
#586 = PLANE ( 'NONE',  #1136 ) ;
#587 = EDGE_CURVE ( 'NONE', #755, #268, #1121, .T. ) ;
#588 = FACE_OUTER_BOUND ( 'NONE', #952, .T. ) ;
#589 = ADVANCED_FACE ( 'NONE', ( #1050 ), #618, .T. ) ;
#590 = CARTESIAN_POINT ( 'NONE',  ( 4.235708136408203650, 5.722803670081015426, -38.98465507974325561 ) ) ;
#591 = ORIENTED_EDGE ( 'NONE', *, *, #768, .T. ) ;
#592 = CIRCLE ( 'NONE', #767, 0.5956299999999997707 ) ;
#593 = DIRECTION ( 'NONE',  ( 0.000000000000000000, 1.549392514931273214E-16, 1.000000000000000000 ) ) ;
#594 = CARTESIAN_POINT ( 'NONE',  ( -8.789291863591875753, 4.422803670080816651, -34.13298902990327832 ) ) ;
#595 = PLANE ( 'NONE',  #801 ) ;
#596 = ORIENTED_EDGE ( 'NONE', *, *, #1210, .F. ) ;
#597 = ORIENTED_EDGE ( 'NONE', *, *, #579, .T. ) ;
#598 = VECTOR ( 'NONE', #145, 1000.000000000000000 ) ;
#599 = LINE ( 'NONE', #811, #558 ) ;
#600 = CARTESIAN_POINT ( 'NONE',  ( -12.03929186359187220, 16.93280367008105358, -89.50696795350444290 ) ) ;
#601 = CARTESIAN_POINT ( 'NONE',  ( 2.735708136408127711, 8.722803670081042071, 8.060862248352119508 ) ) ;
#602 = ORIENTED_EDGE ( 'NONE', *, *, #445, .F. ) ;
#603 = ORIENTED_EDGE ( 'NONE', *, *, #1107, .F. ) ;
#604 = VERTEX_POINT ( 'NONE', #1058 ) ;
#605 = AXIS2_PLACEMENT_3D ( 'NONE', #545, #1084, #456 ) ;
#606 = EDGE_CURVE ( 'NONE', #641, #446, #420, .T. ) ;
#607 = DIRECTION ( 'NONE',  ( -1.084202172485504557E-16, 1.000000000000000000, 2.905110965495604487E-17 ) ) ;
#608 = CARTESIAN_POINT ( 'NONE',  ( -6.264292152387025858, 16.93280367008105358, -85.50696795350442869 ) ) ;
#609 = LINE ( 'NONE', #305, #515 ) ;
#610 = FACE_OUTER_BOUND ( 'NONE', #477, .T. ) ;
#611 = VERTEX_POINT ( 'NONE', #1265 ) ;
#612 = VERTEX_POINT ( 'NONE', #732 ) ;
#613 = EDGE_CURVE ( 'NONE', #944, #1402, #1160, .T. ) ;
#614 = ORIENTED_EDGE ( 'NONE', *, *, #1065, .T. ) ;
#615 = CARTESIAN_POINT ( 'NONE',  ( -24.76429186359213830, 5.722803670081043848, -33.38657886839033040 ) ) ;
#616 = LINE ( 'NONE', #78, #1011 ) ;
#617 = LINE ( 'NONE', #509, #144 ) ;
#618 = PLANE ( 'NONE',  #628 ) ;
#619 = ORIENTED_EDGE ( 'NONE', *, *, #369, .T. ) ;
#620 = ORIENTED_EDGE ( 'NONE', *, *, #1253, .F. ) ;
#621 = DIRECTION ( 'NONE',  ( 0.2588190451025212946, 0.000000000000000000, 0.9659258262890680902 ) ) ;
#622 = DIRECTION ( 'NONE',  ( 2.912417903693245288E-15, 0.000000000000000000, 1.000000000000000000 ) ) ;
#623 = CARTESIAN_POINT ( 'NONE',  ( -8.489291863591873266, 15.68280367008105181, -74.43913775164789115 ) ) ;
#624 = DIRECTION ( 'NONE',  ( -0.08025189047933344033, 0.000000000000000000, 0.9967746154846104378 ) ) ;
#625 = ORIENTED_EDGE ( 'NONE', *, *, #447, .F. ) ;
#626 = ORIENTED_EDGE ( 'NONE', *, *, #1127, .F. ) ;
#627 = CARTESIAN_POINT ( 'NONE',  ( -6.264292152387009871, 16.93280367008105358, -90.10259795350442857 ) ) ;
#628 = AXIS2_PLACEMENT_3D ( 'NONE', #195, #1364, #393 ) ;
#629 = VECTOR ( 'NONE', #799, 1000.000000000000000 ) ;
#630 = CARTESIAN_POINT ( 'NONE',  ( 5.735708136408123714, 5.722803670081041183, 8.060862248352119508 ) ) ;
#631 = FACE_BOUND ( 'NONE', #387, .T. ) ;
#632 = EDGE_CURVE ( 'NONE', #446, #644, #281, .T. ) ;
#633 = CARTESIAN_POINT ( 'NONE',  ( -12.03929186359187220, 16.93280367008105358, -85.50696795350444290 ) ) ;
#634 = VERTEX_POINT ( 'NONE', #81 ) ;
#635 = ORIENTED_EDGE ( 'NONE', *, *, #181, .T. ) ;
#636 = DIRECTION ( 'NONE',  ( 0.000000000000000000, 1.000000000000000000, 0.000000000000000000 ) ) ;
#637 = LINE ( 'NONE', #1040, #478 ) ;
#638 = CARTESIAN_POINT ( 'NONE',  ( 5.735708136408127267, 11.72280367008103674, 8.060862248352119508 ) ) ;
#639 = FACE_OUTER_BOUND ( 'NONE', #1132, .T. ) ;
#640 = EDGE_LOOP ( 'NONE', ( #1191, #201, #1146, #591, #597, #619, #962, #1344 ) ) ;
#641 = VERTEX_POINT ( 'NONE', #724 ) ;
#642 = VECTOR ( 'NONE', #426, 1000.000000000000000 ) ;
#643 = VECTOR ( 'NONE', #1315, 1000.000000000000000 ) ;
#644 = VERTEX_POINT ( 'NONE', #518 ) ;
#645 = DIRECTION ( 'NONE',  ( 2.912417903693245288E-15, 0.000000000000000000, -1.000000000000000000 ) ) ;
#646 = VERTEX_POINT ( 'NONE', #848 ) ;
#647 = CYLINDRICAL_SURFACE ( 'NONE', #658, 0.5956299999999997707 ) ;
#648 = LINE ( 'NONE', #1077, #1005 ) ;
#649 = ORIENTED_EDGE ( 'NONE', *, *, #1312, .T. ) ;
#650 = EDGE_CURVE ( 'NONE', #699, #693, #1274, .T. ) ;
#651 = AXIS2_PLACEMENT_3D ( 'NONE', #391, #304, #1174 ) ;
#652 = CARTESIAN_POINT ( 'NONE',  ( -8.789291863591872200, 4.422803670081040472, 8.060862248352119508 ) ) ;
#653 = VECTOR ( 'NONE', #80, 1000.000000000000000 ) ;
#654 =( NAMED_UNIT ( * ) PLANE_ANGLE_UNIT ( ) SI_UNIT ( $, .RADIAN. ) );
#655 = DIRECTION ( 'NONE',  ( -0.2529395540447327284, 0.2119367210732688023, -0.9439832669387541175 ) ) ;
#656 = LINE ( 'NONE', #674, #278 ) ;
#657 = EDGE_LOOP ( 'NONE', ( #252, #921, #1051, #1352 ) ) ;
#658 = AXIS2_PLACEMENT_3D ( 'NONE', #1322, #236, #215 ) ;
#659 = APPLICATION_CONTEXT ( 'configuration controlled 3d designs of mechanical parts and assemblies' ) ;
#660 = VECTOR ( 'NONE', #1254, 1000.000000000000000 ) ;
#661 = CYLINDRICAL_SURFACE ( 'NONE', #1086, 0.5956299999999997707 ) ;
#662 = CARTESIAN_POINT ( 'NONE',  ( -6.264292152387011647, 16.93280367008105358, -89.50696795350442869 ) ) ;
#663 = ORIENTED_EDGE ( 'NONE', *, *, #1175, .F. ) ;
#664 = AXIS2_PLACEMENT_3D ( 'NONE', #975, #116, #443 ) ;
#665 = CARTESIAN_POINT ( 'NONE',  ( 5.735708136408123714, 5.722803670081041183, 8.060862248352119508 ) ) ;
#666 = DIRECTION ( 'NONE',  ( -1.000000000000000000, -5.880418562633244003E-16, 0.000000000000000000 ) ) ;
#667 = EDGE_CURVE ( 'NONE', #611, #1156, #535, .T. ) ;
#668 = ORIENTED_EDGE ( 'NONE', *, *, #735, .T. ) ;
#669 = EDGE_CURVE ( 'NONE', #717, #49, #1282, .T. ) ;
#670 = PERSON_AND_ORGANIZATION ( #887, #1224 ) ;
#671 = CYLINDRICAL_SURFACE ( 'NONE', #297, 0.5956299999999997707 ) ;
#672 = ADVANCED_FACE ( 'NONE', ( #639 ), #1067, .F. ) ;
#673 = DIRECTION ( 'NONE',  ( 2.912417903693245288E-15, 0.000000000000000000, -1.000000000000000000 ) ) ;
#674 = CARTESIAN_POINT ( 'NONE',  ( -14.26429215238700543, 18.22280367008105273, -92.00696795350444290 ) ) ;
#675 = ADVANCED_FACE ( 'NONE', ( #542 ), #671, .F. ) ;
#676 = ORIENTED_EDGE ( 'NONE', *, *, #1127, .T. ) ;
#677 = PERSON_AND_ORGANIZATION ( #887, #1224 ) ;
#678 = DIRECTION ( 'NONE',  ( 1.000000000000000000, 1.194301876748234251E-16, -0.000000000000000000 ) ) ;
#679 = DIRECTION ( 'NONE',  ( 0.000000000000000000, -1.000000000000000000, 0.000000000000000000 ) ) ;
#680 = CARTESIAN_POINT ( 'NONE',  ( 5.735708136408130819, 18.22280367008105273, 8.060862248352119508 ) ) ;
#681 = ORIENTED_EDGE ( 'NONE', *, *, #120, .T. ) ;
#682 = PERSON_AND_ORGANIZATION_ROLE ( 'creator' ) ;
#683 = CARTESIAN_POINT ( 'NONE',  ( -6.264292152387025858, 16.93280367008105358, -85.50696795350442869 ) ) ;
#684 = LINE ( 'NONE', #41, #1311 ) ;
#685 = DIRECTION ( 'NONE',  ( -8.095376221225116077E-15, 1.000000000000000000, 2.980772560465776344E-14 ) ) ;
#686 = ORIENTED_EDGE ( 'NONE', *, *, #727, .T. ) ;
#687 = ADVANCED_FACE ( 'NONE', ( #1109 ), #1212, .F. ) ;
#688 = EDGE_CURVE ( 'NONE', #771, #646, #1320, .T. ) ;
#689 = DIRECTION ( 'NONE',  ( 1.000000000000000000, -0.000000000000000000, 3.573316797539113732E-15 ) ) ;
#690 = EDGE_CURVE ( 'NONE', #1243, #429, #1074, .T. ) ;
#691 = PLANE ( 'NONE',  #1218 ) ;
#692 = LINE ( 'NONE', #1130, #374 ) ;
#693 = VERTEX_POINT ( 'NONE', #1103 ) ;
#694 = VECTOR ( 'NONE', #846, 1000.000000000000000 ) ;
#695 = VECTOR ( 'NONE', #582, 1000.000000000000000 ) ;
#696 = LINE ( 'NONE', #1126, #1162 ) ;
#697 = DIRECTION ( 'NONE',  ( -1.000000000000000000, -1.084202172485504681E-16, 0.000000000000000000 ) ) ;
#698 = CARTESIAN_POINT ( 'NONE',  ( 2.735708136408127711, 8.722803670081042071, -74.44013775164788171 ) ) ;
#699 = VERTEX_POINT ( 'NONE', #128 ) ;
#700 = ORIENTED_EDGE ( 'NONE', *, *, #690, .T. ) ;
#701 = VECTOR ( 'NONE', #363, 1000.000000000000000 ) ;
#702 = CARTESIAN_POINT ( 'NONE',  ( -11.73929186359187327, 5.722803670081037630, -38.98465507974285060 ) ) ;
#703 = PRODUCT_DEFINITION_FORMATION_WITH_SPECIFIED_SOURCE ( 'ANY', '', #554, .NOT_KNOWN. ) ;
#704 = FACE_BOUND ( 'NONE', #1036, .T. ) ;
#705 = FACE_OUTER_BOUND ( 'NONE', #928, .T. ) ;
#706 = ORIENTED_EDGE ( 'NONE', *, *, #936, .F. ) ;
#707 = ORIENTED_EDGE ( 'NONE', *, *, #568, .F. ) ;
#708 = EDGE_CURVE ( 'NONE', #328, #771, #1119, .T. ) ;
#709 = VECTOR ( 'NONE', #1037, 1000.000000000000000 ) ;
#710 = EDGE_LOOP ( 'NONE', ( #1021, #423, #1095, #395, #381, #165, #719, #870 ) ) ;
#711 = EDGE_CURVE ( 'NONE', #429, #248, #896, .T. ) ;
#712 = CARTESIAN_POINT ( 'NONE',  ( 5.735708136408130819, 18.22280367008105273, 8.060862248352119508 ) ) ;
#713 = ADVANCED_FACE ( 'NONE', ( #967 ), #586, .F. ) ;
#714 = DIRECTION ( 'NONE',  ( 1.000000000000000000, -5.551115123125777772E-16, 0.000000000000000000 ) ) ;
#715 = CARTESIAN_POINT ( 'NONE',  ( -12.03929186359187220, 16.93280367008105358, -88.91133795350444302 ) ) ;
#716 = CARTESIAN_POINT ( 'NONE',  ( -23.26429186359189671, 11.72280367008104562, -44.58273129109685584 ) ) ;
#717 = VERTEX_POINT ( 'NONE', #240 ) ;
#718 = ORIENTED_EDGE ( 'NONE', *, *, #521, .T. ) ;
#719 = ORIENTED_EDGE ( 'NONE', *, *, #418, .F. ) ;
#720 = AXIS2_PLACEMENT_3D ( 'NONE', #280, #1281, #1273 ) ;
#721 = CARTESIAN_POINT ( 'NONE',  ( 2.735708136408127711, 11.72280367008104385, 8.060862248352119508 ) ) ;
#722 = DIRECTION ( 'NONE',  ( -8.095376221225116077E-15, 1.000000000000000000, 0.000000000000000000 ) ) ;
#723 = DIRECTION ( 'NONE',  ( 0.000000000000000000, -1.000000000000000000, 0.000000000000000000 ) ) ;
#724 = CARTESIAN_POINT ( 'NONE',  ( -24.76429186359197487, 5.722803670081057170, -38.98465507974325561 ) ) ;
#725 = EDGE_LOOP ( 'NONE', ( #173, #1199, #321, #172 ) ) ;
#726 = VECTOR ( 'NONE', #863, 1000.000000000000000 ) ;
#727 = EDGE_CURVE ( 'NONE', #771, #1148, #1008, .T. ) ;
#728 = ORIENTED_EDGE ( 'NONE', *, *, #1111, .T. ) ;
#729 = CARTESIAN_POINT ( 'NONE',  ( -5.264291863591870957, 4.422803670081036920, -74.43913775164789115 ) ) ;
#730 = CARTESIAN_POINT ( 'NONE',  ( -26.26429186359187540, 18.22280367008104918, 8.060862248352119508 ) ) ;
#731 = CARTESIAN_POINT ( 'NONE',  ( -26.26429186359187540, 8.722803670081050953, 8.060862248352119508 ) ) ;
#732 = CARTESIAN_POINT ( 'NONE',  ( -6.264292152387003654, 18.22280367008105628, -92.00696795350444290 ) ) ;
#733 = ORIENTED_EDGE ( 'NONE', *, *, #1210, .T. ) ;
#734 = VERTEX_POINT ( 'NONE', #580 ) ;
#735 = EDGE_CURVE ( 'NONE', #190, #171, #214, .T. ) ;
#736 = VECTOR ( 'NONE', #777, 1000.000000000000227 ) ;
#737 = LINE ( 'NONE', #531, #761 ) ;
#738 = CLOSED_SHELL ( 'NONE', ( #675, #1190, #786, #159, #1022, #1355, #552, #957, #961, #1194, #937, #739, #821, #485, #1230, #1231, #501, #286, #164, #312, #326, #12, #1272, #687, #285, #1061, #1400, #574, #713, #36, #205, #530, #589, #1313, #473, #244, #550, #125, #1079, #335, #672 ) ) ;
#739 = ADVANCED_FACE ( 'NONE', ( #133 ), #569, .F. ) ;
#740 = CARTESIAN_POINT ( 'NONE',  ( -12.03929186359187220, 18.22280367008105273, -92.00696795350444290 ) ) ;
#741 = LINE ( 'NONE', #623, #218 ) ;
#742 = LINE ( 'NONE', #1145, #938 ) ;
#743 = ORIENTED_EDGE ( 'NONE', *, *, #832, .F. ) ;
#744 = ORIENTED_EDGE ( 'NONE', *, *, #283, .T. ) ;
#745 = DIRECTION ( 'NONE',  ( -5.551115123125777772E-16, -1.000000000000000000, 0.000000000000000000 ) ) ;
#746 = DIRECTION ( 'NONE',  ( -1.387778780781445281E-15, -1.000000000000000000, -0.000000000000000000 ) ) ;
#747 = DIRECTION ( 'NONE',  ( 1.000000000000000000, -5.551115123125777772E-16, 0.000000000000000000 ) ) ;
#748 = VERTEX_POINT ( 'NONE', #861 ) ;
#749 = VERTEX_POINT ( 'NONE', #1294 ) ;
#750 = FACE_OUTER_BOUND ( 'NONE', #113, .T. ) ;
#751 = CARTESIAN_POINT ( 'NONE',  ( -6.264292152387002766, 13.68280367008105713, -92.00696795350444290 ) ) ;
#752 = CARTESIAN_POINT ( 'NONE',  ( 5.735708136408123714, 5.722803670081041183, 8.060862248352119508 ) ) ;
#753 = EDGE_LOOP ( 'NONE', ( #796, #1027, #153, #412, #394 ) ) ;
#754 = CARTESIAN_POINT ( 'NONE',  ( -6.264292152387011647, 16.93280367008105358, -88.91133795350442881 ) ) ;
#755 = VERTEX_POINT ( 'NONE', #991 ) ;
#756 = EDGE_LOOP ( 'NONE', ( #211, #807, #1177, #21 ) ) ;
#757 = CYLINDRICAL_SURFACE ( 'NONE', #4, 0.5956299999999997707 ) ;
#758 = LINE ( 'NONE', #544, #784 ) ;
#759 = FACE_OUTER_BOUND ( 'NONE', #1277, .T. ) ;
#760 = ORIENTED_EDGE ( 'NONE', *, *, #375, .T. ) ;
#761 = VECTOR ( 'NONE', #407, 1000.000000000000000 ) ;
#762 = DIRECTION ( 'NONE',  ( 1.000000000000000000, 1.084202172485504681E-16, 2.141176160863508742E-32 ) ) ;
#763 = AXIS2_PLACEMENT_3D ( 'NONE', #193, #822, #723 ) ;
#764 = CARTESIAN_POINT ( 'NONE',  ( -6.264292152387051615, 13.68280367008105358, -78.17118963701504697 ) ) ;
#765 = PLANE ( 'NONE',  #390 ) ;
#766 = ORIENTED_EDGE ( 'NONE', *, *, #571, .F. ) ;
#767 = AXIS2_PLACEMENT_3D ( 'NONE', #600, #697, #1017 ) ;
#768 = EDGE_CURVE ( 'NONE', #1243, #162, #1115, .T. ) ;
#769 = CARTESIAN_POINT ( 'NONE',  ( 0.000000000000000000, 0.000000000000000000, 8.060862248352119508 ) ) ;
#770 = DIRECTION ( 'NONE',  ( -5.880418562633244003E-16, 1.000000000000000000, 0.000000000000000000 ) ) ;
#771 = VERTEX_POINT ( 'NONE', #575 ) ;
#772 = EDGE_CURVE ( 'NONE', #248, #49, #245, .T. ) ;
#773 = VECTOR ( 'NONE', #493, 1000.000000000000114 ) ;
#774 = LINE ( 'NONE', #764, #360 ) ;
#775 = CARTESIAN_POINT ( 'NONE',  ( -5.184291863591875327, 18.22280367008105273, -33.38913775164787978 ) ) ;
#776 = VERTEX_POINT ( 'NONE', #997 ) ;
#777 = DIRECTION ( 'NONE',  ( -0.08025189047933344033, 0.000000000000000000, 0.9967746154846104378 ) ) ;
#778 = LINE ( 'NONE', #1214, #701 ) ;
#779 = CIRCLE ( 'NONE', #763, 0.5956299999999997707 ) ;
#780 = DIRECTION ( 'NONE',  ( -1.084202172485504557E-16, 1.000000000000000000, 2.905110965495604487E-17 ) ) ;
#781 = ORIENTED_EDGE ( 'NONE', *, *, #181, .F. ) ;
#782 = SECURITY_CLASSIFICATION_LEVEL ( 'unclassified' ) ;
#783 = CARTESIAN_POINT ( 'NONE',  ( 5.735708136408123714, 11.72280367008121615, -33.38657886839034461 ) ) ;
#784 = VECTOR ( 'NONE', #1314, 1000.000000000000000 ) ;
#785 = DIRECTION ( 'NONE',  ( 1.084202172485504681E-16, -1.000000000000000000, 0.000000000000000000 ) ) ;
#786 = ADVANCED_FACE ( 'NONE', ( #18 ), #757, .F. ) ;
#787 = CARTESIAN_POINT ( 'NONE',  ( -15.26429186359187185, 4.422803670081036920, -74.43913775164789115 ) ) ;
#788 = ORIENTED_EDGE ( 'NONE', *, *, #980, .T. ) ;
#789 = EDGE_CURVE ( 'NONE', #1402, #463, #883, .T. ) ;
#790 = EDGE_CURVE ( 'NONE', #259, #1209, #316, .T. ) ;
#791 = CC_DESIGN_APPROVAL ( #51, ( #415 ) ) ;
#792 = DIRECTION ( 'NONE',  ( 2.912417903693245288E-15, 0.000000000000000000, -1.000000000000000000 ) ) ;
#793 = CARTESIAN_POINT ( 'NONE',  ( -5.184291863591870886, 15.68280367008105181, 8.060862248352119508 ) ) ;
#794 = VECTOR ( 'NONE', #1133, 1000.000000000000000 ) ;
#795 = DIRECTION ( 'NONE',  ( 2.912417903693245288E-15, 0.000000000000000000, -1.000000000000000000 ) ) ;
#796 = ORIENTED_EDGE ( 'NONE', *, *, #1370, .T. ) ;
#797 = CARTESIAN_POINT ( 'NONE',  ( -4.527681584406280990, 11.72280367008105983, -71.69007076434976966 ) ) ;
#798 = DIRECTION ( 'NONE',  ( -1.084202172485504557E-16, 1.000000000000000000, 2.905110965495604487E-17 ) ) ;
#799 = DIRECTION ( 'NONE',  ( -1.000000000000000000, -4.336808689942016750E-16, 0.000000000000000000 ) ) ;
#800 = EDGE_LOOP ( 'NONE', ( #788, #850, #284, #274 ) ) ;
#801 = AXIS2_PLACEMENT_3D ( 'NONE', #590, #136, #378 ) ;
#802 = CARTESIAN_POINT ( 'NONE',  ( -11.73929186359287691, 4.422803670081038696, -34.13298902990320016 ) ) ;
#803 = CARTESIAN_POINT ( 'NONE',  ( -8.789291863591875753, 5.722803670081048288, -38.98465507974325561 ) ) ;
#804 = EDGE_CURVE ( 'NONE', #1266, #310, #1340, .T. ) ;
#805 = DIRECTION ( 'NONE',  ( -1.387778780781445281E-15, -1.000000000000000000, -0.000000000000000000 ) ) ;
#806 = EDGE_CURVE ( 'NONE', #75, #506, #1261, .T. ) ;
#807 = ORIENTED_EDGE ( 'NONE', *, *, #464, .T. ) ;
#808 = ORIENTED_EDGE ( 'NONE', *, *, #441, .T. ) ;
#809 = VERTEX_POINT ( 'NONE', #721 ) ;
#810 = EDGE_CURVE ( 'NONE', #927, #749, #261, .T. ) ;
#811 = CARTESIAN_POINT ( 'NONE',  ( -5.264291863591872733, 18.22280367008105273, -74.43913775164789115 ) ) ;
#812 = FACE_OUTER_BOUND ( 'NONE', #319, .T. ) ;
#813 = EDGE_CURVE ( 'NONE', #49, #397, #696, .T. ) ;
#814 = CARTESIAN_POINT ( 'NONE',  ( -8.789291863591875753, 5.722803670080813809, -38.98465507974294297 ) ) ;
#815 = ORIENTED_EDGE ( 'NONE', *, *, #908, .T. ) ;
#816 = ORIENTED_EDGE ( 'NONE', *, *, #908, .F. ) ;
#817 = VECTOR ( 'NONE', #333, 1000.000000000000000 ) ;
#818 = ORIENTED_EDGE ( 'NONE', *, *, #422, .F. ) ;
#819 = LINE ( 'NONE', #507, #270 ) ;
#820 = DIRECTION ( 'NONE',  ( 4.185098856397604666E-17, -8.370197712795209331E-17, 1.000000000000000000 ) ) ;
#821 = ADVANCED_FACE ( 'NONE', ( #1047 ), #1150, .F. ) ;
#822 = DIRECTION ( 'NONE',  ( -1.000000000000000000, -1.084202172485504681E-16, 0.000000000000000000 ) ) ;
#823 = CARTESIAN_POINT ( 'NONE',  ( -8.489291863591873266, 15.68280367008105181, -74.43913775164789115 ) ) ;
#824 = VERTEX_POINT ( 'NONE', #1346 ) ;
#825 = AXIS2_PLACEMENT_3D ( 'NONE', #845, #311, #1278 ) ;
#826 = ORIENTED_EDGE ( 'NONE', *, *, #77, .T. ) ;
#827 = AXIS2_PLACEMENT_3D ( 'NONE', #1057, #291, #187 ) ;
#828 = LINE ( 'NONE', #1238, #1318 ) ;
#829 = CARTESIAN_POINT ( 'NONE',  ( -23.26429186359187185, 8.722803670081050953, -74.44013775164788171 ) ) ;
#830 = DIRECTION ( 'NONE',  ( 1.000000000000000000, 1.084202172485505543E-16, -3.636005999432003998E-15 ) ) ;
#831 = CARTESIAN_POINT ( 'NONE',  ( -14.26429215238695569, 13.68280367008105358, -78.17118748141884055 ) ) ;
#832 = EDGE_CURVE ( 'NONE', #578, #196, #175, .T. ) ;
#833 = VECTOR ( 'NONE', #1182, 1000.000000000000000 ) ;
#834 = ORIENTED_EDGE ( 'NONE', *, *, #1360, .F. ) ;
#835 = EDGE_CURVE ( 'NONE', #749, #1283, #599, .T. ) ;
#836 = VECTOR ( 'NONE', #409, 1000.000000000000000 ) ;
#837 = EDGE_CURVE ( 'NONE', #776, #148, #1023, .T. ) ;
#838 = FACE_OUTER_BOUND ( 'NONE', #725, .T. ) ;
#839 = LINE ( 'NONE', #630, #1200 ) ;
#840 = DIRECTION ( 'NONE',  ( 1.000000000000000000, 0.000000000000000000, 0.000000000000000000 ) ) ;
#841 = DIRECTION ( 'NONE',  ( -0.2588190451025212946, -4.489794735692445012E-16, 0.9659258262890680902 ) ) ;
#842 = EDGE_LOOP ( 'NONE', ( #1184, #372, #431, #1316 ) ) ;
#843 = ORIENTED_EDGE ( 'NONE', *, *, #375, .F. ) ;
#844 = VECTOR ( 'NONE', #1232, 1000.000000000000000 ) ;
#845 = CARTESIAN_POINT ( 'NONE',  ( -14.26429215238700543, 13.68280367008105358, -92.00696795350444290 ) ) ;
#846 = DIRECTION ( 'NONE',  ( 1.000000000000000000, 1.734723475976811828E-15, 0.000000000000000000 ) ) ;
#847 = FACE_OUTER_BOUND ( 'NONE', #234, .T. ) ;
#848 = CARTESIAN_POINT ( 'NONE',  ( 5.735708136408120161, 8.722803670081047400, 8.060862248352119508 ) ) ;
#849 = ORIENTED_EDGE ( 'NONE', *, *, #606, .F. ) ;
#850 = ORIENTED_EDGE ( 'NONE', *, *, #913, .F. ) ;
#851 = FACE_OUTER_BOUND ( 'NONE', #302, .T. ) ;
#852 = ORIENTED_EDGE ( 'NONE', *, *, #579, .F. ) ;
#853 = CARTESIAN_POINT ( 'NONE',  ( -6.264292152387002766, 13.68280367008105713, -92.00696795350444290 ) ) ;
#854 = EDGE_LOOP ( 'NONE', ( #968, #74, #826, #649 ) ) ;
#855 = EDGE_CURVE ( 'NONE', #506, #336, #1016, .T. ) ;
#856 = DIRECTION ( 'NONE',  ( -1.084202172485504557E-16, 1.000000000000000000, 2.905110965495604487E-17 ) ) ;
#857 = ORIENTED_EDGE ( 'NONE', *, *, #1317, .F. ) ;
#858 = EDGE_CURVE ( 'NONE', #734, #268, #828, .T. ) ;
#859 = LINE ( 'NONE', #652, #322 ) ;
#860 = DIRECTION ( 'NONE',  ( 1.084202172485504557E-16, -1.000000000000000000, 0.000000000000000000 ) ) ;
#861 = CARTESIAN_POINT ( 'NONE',  ( 4.235708136408227631, 5.722803670081041183, -38.98465507974325561 ) ) ;
#862 = EDGE_LOOP ( 'NONE', ( #154, #212, #439, #108, #275, #307, #492, #994 ) ) ;
#863 = DIRECTION ( 'NONE',  ( -0.000000000000000000, -0.000000000000000000, -1.000000000000000000 ) ) ;
#864 = DIRECTION ( 'NONE',  ( 5.585380689719807578E-15, 0.9659258262890700886, 0.2588190451025143002 ) ) ;
#865 = ORIENTED_EDGE ( 'NONE', *, *, #772, .F. ) ;
#866 = VECTOR ( 'NONE', #435, 1000.000000000000000 ) ;
#867 = PLANE ( 'NONE',  #1098 ) ;
#868 = DIRECTION ( 'NONE',  ( -1.000000000000000000, -0.000000000000000000, -0.000000000000000000 ) ) ;
#869 = CARTESIAN_POINT ( 'NONE',  ( -1.975720332787869963E-15, 18.22280367008105273, 4.422393386753884354E-16 ) ) ;
#870 = ORIENTED_EDGE ( 'NONE', *, *, #810, .T. ) ;
#871 = ADVANCED_BREP_SHAPE_REPRESENTATION ( 'fiber array holder 15_01', ( #127, #923 ), #135 ) ;
#872 = VECTOR ( 'NONE', #714, 1000.000000000000000 ) ;
#873 = VECTOR ( 'NONE', #104, 1000.000000000000000 ) ;
#874 = DIRECTION ( 'NONE',  ( 2.912417903693245288E-15, 0.000000000000000000, -1.000000000000000000 ) ) ;
#875 = CARTESIAN_POINT ( 'NONE',  ( -8.489291863591873266, 16.93280367008105358, -90.10259795350444278 ) ) ;
#876 = EDGE_LOOP ( 'NONE', ( #373, #1046, #293, #421 ) ) ;
#877 = SHAPE_DEFINITION_REPRESENTATION ( #1292, #871 ) ;
#878 = VECTOR ( 'NONE', #86, 1000.000000000000000 ) ;
#879 = DIRECTION ( 'NONE',  ( 0.000000000000000000, 0.000000000000000000, -1.000000000000000000 ) ) ;
#880 = DIRECTION ( 'NONE',  ( -1.000000000000000000, -1.084202172485504434E-16, -0.000000000000000000 ) ) ;
#881 = EDGE_LOOP ( 'NONE', ( #267, #974, #663, #1375 ) ) ;
#882 = APPROVAL_PERSON_ORGANIZATION ( #677, #51, #235 ) ;
#883 = LINE ( 'NONE', #853, #1045 ) ;
#884 = VECTOR ( 'NONE', #368, 1000.000000000000000 ) ;
#885 = DIRECTION ( 'NONE',  ( -1.000000000000000000, 0.000000000000000000, -0.000000000000000000 ) ) ;
#886 = CARTESIAN_POINT ( 'NONE',  ( -26.26429186359187540, 18.22280367008104918, -33.38657886839033040 ) ) ;
#887 = PERSON ( 'UNSPECIFIED', 'UNSPECIFIED', 'UNSPECIFIED', ('UNSPECIFIED'), ('UNSPECIFIED'), ('UNSPECIFIED') ) ;
#888 = ORIENTED_EDGE ( 'NONE', *, *, #32, .T. ) ;
#889 = DIRECTION ( 'NONE',  ( -1.084202172485504557E-16, 1.000000000000000000, 2.905110965495604487E-17 ) ) ;
#890 = DIRECTION ( 'NONE',  ( -1.000000000000000000, -9.773090005503141810E-16, 0.000000000000000000 ) ) ;
#891 = VECTOR ( 'NONE', #933, 1000.000000000000000 ) ;
#892 = DIRECTION ( 'NONE',  ( 1.000000000000000000, -0.000000000000000000, 3.573316797539113732E-15 ) ) ;
#893 = EDGE_CURVE ( 'NONE', #463, #578, #1244, .T. ) ;
#894 = EDGE_LOOP ( 'NONE', ( #512, #1337 ) ) ;
#895 = APPROVAL_ROLE ( '' ) ;
#896 = LINE ( 'NONE', #138, #866 ) ;
#897 = PLANE ( 'NONE',  #40 ) ;
#898 = CYLINDRICAL_SURFACE ( 'NONE', #452, 0.5956299999999997707 ) ;
#899 = ORIENTED_EDGE ( 'NONE', *, *, #1222, .F. ) ;
#900 = CARTESIAN_POINT ( 'NONE',  ( -6.264292152387051615, 13.68280367008105358, -78.17118963701504697 ) ) ;
#901 = FACE_OUTER_BOUND ( 'NONE', #1, .T. ) ;
#902 = VECTOR ( 'NONE', #889, 1000.000000000000000 ) ;
#903 = CARTESIAN_POINT ( 'NONE',  ( -8.489291863591873266, 15.68280367008105181, -74.43913775164789115 ) ) ;
#904 = EDGE_LOOP ( 'NONE', ( #491, #66, #1163, #404 ) ) ;
#905 = ORIENTED_EDGE ( 'NONE', *, *, #1170, .F. ) ;
#906 = EDGE_CURVE ( 'NONE', #67, #469, #1361, .T. ) ;
#907 = CARTESIAN_POINT ( 'NONE',  ( -5.184291863591875327, 15.68280367008105181, -33.38913775164787978 ) ) ;
#908 = EDGE_CURVE ( 'NONE', #699, #1229, #97, .T. ) ;
#909 = DIRECTION ( 'NONE',  ( 1.000000000000000000, -0.000000000000000000, 3.573316797539113732E-15 ) ) ;
#910 = DIRECTION ( 'NONE',  ( -0.2588190451025212946, 0.000000000000000000, 0.9659258262890680902 ) ) ;
#911 = ORIENTED_EDGE ( 'NONE', *, *, #34, .T. ) ;
#912 = ORIENTED_EDGE ( 'NONE', *, *, #1170, .T. ) ;
#913 = EDGE_CURVE ( 'NONE', #520, #137, #255, .T. ) ;
#914 = EDGE_CURVE ( 'NONE', #43, #634, #479, .T. ) ;
#915 = DIRECTION ( 'NONE',  ( 1.000000000000000000, -0.000000000000000000, 3.573316797539113732E-15 ) ) ;
#916 = UNCERTAINTY_MEASURE_WITH_UNIT (LENGTH_MEASURE( 1.000000000000000082E-05 ), #1073, 'distance_accuracy_value', 'NONE');
#917 = LINE ( 'NONE', #1234, #406 ) ;
#918 = DIRECTION ( 'NONE',  ( 1.000000000000000000, 1.084202172485503448E-16, 3.573316797539113732E-15 ) ) ;
#919 = ORIENTED_EDGE ( 'NONE', *, *, #337, .T. ) ;
#920 = ORIENTED_EDGE ( 'NONE', *, *, #1213, .T. ) ;
#921 = ORIENTED_EDGE ( 'NONE', *, *, #60, .F. ) ;
#922 = CARTESIAN_POINT ( 'NONE',  ( 5.735708136408123714, 11.72280367008121615, -33.38657886839034461 ) ) ;
#923 = AXIS2_PLACEMENT_3D ( 'NONE', #109, #541, #966 ) ;
#924 = PLANE ( 'NONE',  #946 ) ;
#925 = CARTESIAN_POINT ( 'NONE',  ( -6.264292152387024082, 16.93280367008105358, -85.50696795350442869 ) ) ;
#926 = PLANE ( 'NONE',  #1192 ) ;
#927 = VERTEX_POINT ( 'NONE', #712 ) ;
#928 = EDGE_LOOP ( 'NONE', ( #816, #549, #1384, #965 ) ) ;
#929 = ORIENTED_EDGE ( 'NONE', *, *, #1339, .T. ) ;
#930 = FACE_OUTER_BOUND ( 'NONE', #1034, .T. ) ;
#931 = EDGE_CURVE ( 'NONE', #1398, #1266, #819, .T. ) ;
#932 = CARTESIAN_POINT ( 'NONE',  ( -5.184291863591870886, 18.22280367008105273, 8.060862248352119508 ) ) ;
#933 = DIRECTION ( 'NONE',  ( 0.000000000000000000, 0.000000000000000000, 1.000000000000000000 ) ) ;
#934 = FACE_BOUND ( 'NONE', #945, .T. ) ;
#935 = ORIENTED_EDGE ( 'NONE', *, *, #1062, .F. ) ;
#936 = EDGE_CURVE ( 'NONE', #469, #749, #499, .T. ) ;
#937 = ADVANCED_FACE ( 'NONE', ( #930 ), #288, .F. ) ;
#938 = VECTOR ( 'NONE', #403, 1000.000000000000000 ) ;
#939 = ORIENTED_EDGE ( 'NONE', *, *, #1338, .F. ) ;
#940 = CARTESIAN_POINT ( 'NONE',  ( 4.922277863084190130E-16, 13.68280367008103582, 4.437641327258286925E-15 ) ) ;
#941 = LINE ( 'NONE', #1048, #1089 ) ;
#942 = DIRECTION ( 'NONE',  ( 2.912417903693245288E-15, 0.000000000000000000, -1.000000000000000000 ) ) ;
#943 = LINE ( 'NONE', #170, #332 ) ;
#944 = VERTEX_POINT ( 'NONE', #900 ) ;
#945 = EDGE_LOOP ( 'NONE', ( #1345, #815 ) ) ;
#946 = AXIS2_PLACEMENT_3D ( 'NONE', #829, #1262, #722 ) ;
#947 = DIRECTION ( 'NONE',  ( 1.000000000000000000, -0.000000000000000000, 3.573316797539113732E-15 ) ) ;
#948 = LINE ( 'NONE', #62, #216 ) ;
#949 = DIRECTION ( 'NONE',  ( 0.2588190451025256245, 1.496598245231085189E-16, -0.9659258262890669799 ) ) ;
#950 = DIRECTION ( 'NONE',  ( 1.000000000000000000, -1.387778780781445478E-15, 0.000000000000000000 ) ) ;
#951 = VERTEX_POINT ( 'NONE', #875 ) ;
#952 = EDGE_LOOP ( 'NONE', ( #347, #527, #543, #700 ) ) ;
#953 = VECTOR ( 'NONE', #382, 1000.000000000000000 ) ;
#954 = DIRECTION ( 'NONE',  ( -0.000000000000000000, 1.000000000000000000, 2.507590735115167730E-16 ) ) ;
#955 = APPROVAL ( #985, 'UNSPECIFIED' ) ;
#956 = LINE ( 'NONE', #271, #872 ) ;
#957 = ADVANCED_FACE ( 'NONE', ( #759 ), #345, .F. ) ;
#958 = CARTESIAN_POINT ( 'NONE',  ( -6.264292152387025858, 16.93280367008105358, -85.50696795350442869 ) ) ;
#959 = ORIENTED_EDGE ( 'NONE', *, *, #893, .F. ) ;
#960 = DIRECTION ( 'NONE',  ( 1.000000000000000000, 1.084202172485504557E-16, 0.000000000000000000 ) ) ;
#961 = ADVANCED_FACE ( 'NONE', ( #430 ), #976, .F. ) ;
#962 = ORIENTED_EDGE ( 'NONE', *, *, #667, .T. ) ;
#963 = AXIS2_PLACEMENT_3D ( 'NONE', #925, #1153, #942 ) ;
#964 = EDGE_CURVE ( 'NONE', #604, #755, #1405, .T. ) ;
#965 = ORIENTED_EDGE ( 'NONE', *, *, #77, .F. ) ;
#966 = DIRECTION ( 'NONE',  ( 1.000000000000000000, 0.000000000000000000, 0.000000000000000000 ) ) ;
#967 = FACE_OUTER_BOUND ( 'NONE', #1260, .T. ) ;
#968 = ORIENTED_EDGE ( 'NONE', *, *, #650, .F. ) ;
#969 = CARTESIAN_POINT ( 'NONE',  ( -26.26429186359188961, 5.722803670081044736, 8.060862248352119508 ) ) ;
#970 = LINE ( 'NONE', #451, #695 ) ;
#971 = ORIENTED_EDGE ( 'NONE', *, *, #587, .F. ) ;
#972 = VECTOR ( 'NONE', #437, 1000.000000000000000 ) ;
#973 = EDGE_CURVE ( 'NONE', #1156, #386, #1309, .T. ) ;
#974 = ORIENTED_EDGE ( 'NONE', *, *, #1090, .F. ) ;
#975 = CARTESIAN_POINT ( 'NONE',  ( -5.184291863591870886, 15.68280367008105181, 8.060862248352119508 ) ) ;
#976 = PLANE ( 'NONE',  #1246 ) ;
#977 = ORIENTED_EDGE ( 'NONE', *, *, #906, .T. ) ;
#978 = VECTOR ( 'NONE', #1395, 1000.000000000000000 ) ;
#979 = DATE_TIME_ROLE ( 'classification_date' ) ;
#980 = EDGE_CURVE ( 'NONE', #386, #137, #14, .T. ) ;
#981 = CARTESIAN_POINT ( 'NONE',  ( 2.735708136408126823, 11.72280367008104385, -44.58273129109695532 ) ) ;
#982 = DIRECTION ( 'NONE',  ( 2.912417903693245288E-15, 0.000000000000000000, -1.000000000000000000 ) ) ;
#983 = EDGE_CURVE ( 'NONE', #137, #43, #1093, .T. ) ;
#984 = ORIENTED_EDGE ( 'NONE', *, *, #58, .F. ) ;
#985 = APPROVAL_STATUS ( 'not_yet_approved' ) ;
#986 = CIRCLE ( 'NONE', #470, 0.5956299999999997707 ) ;
#987 = CARTESIAN_POINT ( 'NONE',  ( -11.73929186359187682, 5.722803670081050065, -38.98465507974325561 ) ) ;
#988 = CARTESIAN_POINT ( 'NONE',  ( -5.184291863591870886, 15.68280367008105181, 8.060862248352119508 ) ) ;
#989 = ORIENTED_EDGE ( 'NONE', *, *, #790, .T. ) ;
#990 = DATE_AND_TIME ( #465, #295 ) ;
#991 = CARTESIAN_POINT ( 'NONE',  ( -12.03929186359187220, 16.93280367008105358, -86.10259795350444278 ) ) ;
#992 = DIRECTION ( 'NONE',  ( 2.912417903693245288E-15, 0.000000000000000000, 1.000000000000000000 ) ) ;
#993 = CARTESIAN_POINT ( 'NONE',  ( -8.489291863591873266, 16.93280367008105358, -89.50696795350444290 ) ) ;
#994 = ORIENTED_EDGE ( 'NONE', *, *, #1111, .F. ) ;
#995 = LOCAL_TIME ( 8, 38, 2.000000000000000000, #221 ) ;
#996 = CALENDAR_DATE ( 2026, 22, 1 ) ;
#997 = CARTESIAN_POINT ( 'NONE',  ( -11.73929186359187327, 5.722803670081039407, 8.060862248352119508 ) ) ;
#998 = VECTOR ( 'NONE', #537, 1000.000000000000227 ) ;
#999 = DIRECTION ( 'NONE',  ( -1.000000000000000000, -1.734723475976809855E-15, 0.000000000000000000 ) ) ;
#1000 = FACE_OUTER_BOUND ( 'NONE', #1223, .T. ) ;
#1001 = EDGE_LOOP ( 'NONE', ( #1075, #27, #1044, #1060 ) ) ;
#1002 = CARTESIAN_POINT ( 'NONE',  ( -12.03929186359187220, 15.68280367008105181, -92.00696795350444290 ) ) ;
#1003 = VECTOR ( 'NONE', #178, 1000.000000000000227 ) ;
#1004 = FACE_OUTER_BOUND ( 'NONE', #657, .T. ) ;
#1005 = VECTOR ( 'NONE', #880, 1000.000000000000000 ) ;
#1006 = CARTESIAN_POINT ( 'NONE',  ( -8.489291863591873266, 15.68280367008105536, -92.00696795350444290 ) ) ;
#1007 = ORIENTED_EDGE ( 'NONE', *, *, #837, .T. ) ;
#1008 = LINE ( 'NONE', #349, #1226 ) ;
#1009 = VECTOR ( 'NONE', #146, 1000.000000000000000 ) ;
#1010 = PLANE ( 'NONE',  #114 ) ;
#1011 = VECTOR ( 'NONE', #192, 1000.000000000000000 ) ;
#1012 = CARTESIAN_POINT ( 'NONE',  ( -14.26429215238699477, 16.93280367008105358, -88.91133795350445723 ) ) ;
#1013 = VERTEX_POINT ( 'NONE', #564 ) ;
#1014 = ORIENTED_EDGE ( 'NONE', *, *, #1039, .T. ) ;
#1015 = EDGE_CURVE ( 'NONE', #520, #483, #1100, .T. ) ;
#1016 = LINE ( 'NONE', #802, #1341 ) ;
#1017 = DIRECTION ( 'NONE',  ( 0.000000000000000000, -1.000000000000000000, 0.000000000000000000 ) ) ;
#1018 = VECTOR ( 'NONE', #747, 1000.000000000000000 ) ;
#1019 = DIRECTION ( 'NONE',  ( -1.084202172485504557E-16, 1.000000000000000000, 2.905110965495604487E-17 ) ) ;
#1020 = EDGE_LOOP ( 'NONE', ( #818, #989, #1381, #1125 ) ) ;
#1021 = ORIENTED_EDGE ( 'NONE', *, *, #835, .T. ) ;
#1022 = ADVANCED_FACE ( 'NONE', ( #1189 ), #765, .F. ) ;
#1023 = LINE ( 'NONE', #1157, #884 ) ;
#1024 = CARTESIAN_POINT ( 'NONE',  ( -23.26429186359187185, 8.722803670081050953, 8.060862248352119508 ) ) ;
#1025 = CARTESIAN_POINT ( 'NONE',  ( -12.03929186359187220, 16.93280367008105358, -90.10259795350444278 ) ) ;
#1026 = ORIENTED_EDGE ( 'NONE', *, *, #1222, .T. ) ;
#1027 = ORIENTED_EDGE ( 'NONE', *, *, #70, .F. ) ;
#1028 = EDGE_LOOP ( 'NONE', ( #119, #353, #905, #1203 ) ) ;
#1029 = DIRECTION ( 'NONE',  ( -0.000000000000000000, -0.000000000000000000, -1.000000000000000000 ) ) ;
#1030 = DIRECTION ( 'NONE',  ( 1.000000000000000000, -0.000000000000000000, 3.573316797539113732E-15 ) ) ;
#1031 = VECTOR ( 'NONE', #909, 1000.000000000000000 ) ;
#1032 = CARTESIAN_POINT ( 'NONE',  ( 2.735708136408127711, 8.722803670081042071, -74.44013775164788171 ) ) ;
#1033 = CARTESIAN_POINT ( 'NONE',  ( -12.03929186359187220, 15.68280367008105181, -74.43913775164789115 ) ) ;
#1034 = EDGE_LOOP ( 'NONE', ( #1358, #84, #519, #899, #65, #341, #1237, #266, #706, #496 ) ) ;
#1035 = ORIENTED_EDGE ( 'NONE', *, *, #309, .F. ) ;
#1036 = EDGE_LOOP ( 'NONE', ( #1275, #635 ) ) ;
#1037 = DIRECTION ( 'NONE',  ( 3.636005999432003998E-15, 0.000000000000000000, 1.000000000000000000 ) ) ;
#1038 = LOCAL_TIME ( 8, 38, 2.000000000000000000, #122 ) ;
#1039 = EDGE_CURVE ( 'NONE', #578, #446, #318, .T. ) ;
#1040 = CARTESIAN_POINT ( 'NONE',  ( 2.735708136408127711, 11.72280367008104385, 8.060862248352119508 ) ) ;
#1041 = EDGE_CURVE ( 'NONE', #506, #148, #438, .T. ) ;
#1042 = DIRECTION ( 'NONE',  ( 3.573316797539113732E-15, 0.000000000000000000, -1.000000000000000000 ) ) ;
#1043 = DIRECTION ( 'NONE',  ( 0.2529395540447327284, 0.2119367210732684970, -0.9439832669387542285 ) ) ;
#1044 = ORIENTED_EDGE ( 'NONE', *, *, #1335, .T. ) ;
#1045 = VECTOR ( 'NONE', #1288, 1000.000000000000000 ) ;
#1046 = ORIENTED_EDGE ( 'NONE', *, *, #228, .T. ) ;
#1047 = FACE_OUTER_BOUND ( 'NONE', #753, .T. ) ;
#1048 = CARTESIAN_POINT ( 'NONE',  ( -8.789291863591875753, 4.422803670080814875, -33.38657886839033040 ) ) ;
#1049 = LINE ( 'NONE', #814, #891 ) ;
#1050 = FACE_OUTER_BOUND ( 'NONE', #862, .T. ) ;
#1051 = ORIENTED_EDGE ( 'NONE', *, *, #1321, .F. ) ;
#1052 = VECTOR ( 'NONE', #947, 1000.000000000000000 ) ;
#1053 = VERTEX_POINT ( 'NONE', #210 ) ;
#1054 = AXIS2_PLACEMENT_3D ( 'NONE', #662, #560, #982 ) ;
#1055 = FACE_BOUND ( 'NONE', #1106, .T. ) ;
#1056 = CARTESIAN_POINT ( 'NONE',  ( 2.735708136408127711, 8.722803670081042071, 8.060862248352119508 ) ) ;
#1057 = CARTESIAN_POINT ( 'NONE',  ( 5.735708136408130819, 18.22280367008105273, 8.060862248352119508 ) ) ;
#1058 = CARTESIAN_POINT ( 'NONE',  ( -14.26429215238698234, 16.93280367008105358, -86.10259795350445700 ) ) ;
#1059 = ORIENTED_EDGE ( 'NONE', *, *, #396, .F. ) ;
#1060 = ORIENTED_EDGE ( 'NONE', *, *, #521, .F. ) ;
#1061 = ADVANCED_FACE ( 'NONE', ( #217 ), #8, .T. ) ;
#1062 = EDGE_CURVE ( 'NONE', #397, #1013, #648, .T. ) ;
#1063 = DIRECTION ( 'NONE',  ( 0.000000000000000000, 0.000000000000000000, 1.000000000000000000 ) ) ;
#1064 = CARTESIAN_POINT ( 'NONE',  ( -15.26429186359187007, 13.68280367008104648, -74.43913775164789115 ) ) ;
#1065 = EDGE_CURVE ( 'NONE', #163, #776, #1207, .T. ) ;
#1066 = CARTESIAN_POINT ( 'NONE',  ( -6.264292152387008095, 16.93280367008105358, -90.10259795350442857 ) ) ;
#1067 = CYLINDRICAL_SURFACE ( 'NONE', #486, 0.5956299999999997707 ) ;
#1068 = ORIENTED_EDGE ( 'NONE', *, *, #481, .F. ) ;
#1069 = ORIENTED_EDGE ( 'NONE', *, *, #308, .T. ) ;
#1070 = EDGE_CURVE ( 'NONE', #1268, #196, #656, .T. ) ;
#1071 = VECTOR ( 'NONE', #1252, 1000.000000000000000 ) ;
#1072 = ORIENTED_EDGE ( 'NONE', *, *, #837, .F. ) ;
#1073 =( LENGTH_UNIT ( ) NAMED_UNIT ( * ) SI_UNIT ( .MILLI., .METRE. ) );
#1074 = LINE ( 'NONE', #1002, #902 ) ;
#1075 = ORIENTED_EDGE ( 'NONE', *, *, #547, .F. ) ;
#1076 = DIRECTION ( 'NONE',  ( 1.000000000000000000, 1.084202172485505543E-16, -3.636005999432003998E-15 ) ) ;
#1077 = CARTESIAN_POINT ( 'NONE',  ( -26.26429186359187540, 18.22280367008104918, 8.060862248352119508 ) ) ;
#1078 = ORIENTED_EDGE ( 'NONE', *, *, #1382, .T. ) ;
#1079 = ADVANCED_FACE ( 'NONE', ( #1105 ), #1198, .F. ) ;
#1080 = VECTOR ( 'NONE', #495, 1000.000000000000000 ) ;
#1081 = VERTEX_POINT ( 'NONE', #754 ) ;
#1082 = DIRECTION ( 'NONE',  ( -1.000000000000000000, -1.084202172485504557E-16, 4.185098856397603433E-17 ) ) ;
#1083 = CARTESIAN_POINT ( 'NONE',  ( -26.26429186359188606, 8.722803670081050953, 8.060862248352119508 ) ) ;
#1084 = DIRECTION ( 'NONE',  ( -3.414809992080328530E-16, 1.000000000000000000, 4.287395217801149005E-32 ) ) ;
#1085 = EDGE_LOOP ( 'NONE', ( #1365, #1291, #1251, #766 ) ) ;
#1086 = AXIS2_PLACEMENT_3D ( 'NONE', #449, #208, #874 ) ;
#1087 = EDGE_CURVE ( 'NONE', #1396, #927, #1397, .T. ) ;
#1088 = DATE_AND_TIME ( #1307, #995 ) ;
#1089 = VECTOR ( 'NONE', #1369, 1000.000000000000000 ) ;
#1090 = EDGE_CURVE ( 'NONE', #1140, #634, #970, .T. ) ;
#1091 = EDGE_CURVE ( 'NONE', #1013, #1209, #1215, .T. ) ;
#1092 = CARTESIAN_POINT ( 'NONE',  ( -5.184291863591875327, 18.22280367008105273, -33.38913775164787978 ) ) ;
#1093 = LINE ( 'NONE', #775, #209 ) ;
#1094 = CC_DESIGN_APPROVAL ( #367, ( #1114 ) ) ;
#1095 = ORIENTED_EDGE ( 'NONE', *, *, #357, .T. ) ;
#1096 = AXIS2_PLACEMENT_3D ( 'NONE', #206, #31, #466 ) ;
#1097 = COORDINATED_UNIVERSAL_TIME_OFFSET ( 5, 0, .BEHIND. ) ;
#1098 = AXIS2_PLACEMENT_3D ( 'NONE', #1179, #204, #1301 ) ;
#1099 = CARTESIAN_POINT ( 'NONE',  ( -23.26429186359189671, 11.72280367008104562, 8.060862248352119508 ) ) ;
#1100 = LINE ( 'NONE', #112, #998 ) ;
#1101 = VERTEX_POINT ( 'NONE', #1012 ) ;
#1102 = DATE_AND_TIME ( #996, #1038 ) ;
#1103 = CARTESIAN_POINT ( 'NONE',  ( -6.264292152387025858, 16.93280367008105358, -84.91133795350442881 ) ) ;
#1104 = LINE ( 'NONE', #350, #833 ) ;
#1105 = FACE_OUTER_BOUND ( 'NONE', #583, .T. ) ;
#1106 = EDGE_LOOP ( 'NONE', ( #929, #760 ) ) ;
#1107 = EDGE_CURVE ( 'NONE', #1266, #561, #1117, .T. ) ;
#1108 = APPROVAL_DATE_TIME ( #28, #51 ) ;
#1109 = FACE_OUTER_BOUND ( 'NONE', #102, .T. ) ;
#1110 = PLANE ( 'NONE',  #227 ) ;
#1111 = EDGE_CURVE ( 'NONE', #429, #1268, #364, .T. ) ;
#1112 = DIRECTION ( 'NONE',  ( 1.000000000000000000, 1.084202172485504681E-16, 2.141176160863508742E-32 ) ) ;
#1113 = ORIENTED_EDGE ( 'NONE', *, *, #1216, .F. ) ;
#1114 = SECURITY_CLASSIFICATION ( '', '', #782 ) ;
#1115 = LINE ( 'NONE', #323, #46 ) ;
#1116 = DIRECTION ( 'NONE',  ( -5.416286128862729808E-16, -0.9757113676671278490, -0.2190600990713345297 ) ) ;
#1117 = LINE ( 'NONE', #1336, #1211 ) ;
#1118 = ORIENTED_EDGE ( 'NONE', *, *, #711, .F. ) ;
#1119 = LINE ( 'NONE', #783, #598 ) ;
#1120 = PRODUCT_RELATED_PRODUCT_CATEGORY ( 'detail', '', ( #554 ) ) ;
#1121 = CIRCLE ( 'NONE', #450, 0.5956299999999997707 ) ;
#1122 = FACE_OUTER_BOUND ( 'NONE', #1181, .T. ) ;
#1123 = AXIS2_PLACEMENT_3D ( 'NONE', #787, #1236, #910 ) ;
#1124 = DIRECTION ( 'NONE',  ( 0.000000000000000000, 1.000000000000000000, 0.000000000000000000 ) ) ;
#1125 = ORIENTED_EDGE ( 'NONE', *, *, #568, .T. ) ;
#1126 = CARTESIAN_POINT ( 'NONE',  ( -15.34429186359187369, 18.22280367008105273, -33.38913775164787978 ) ) ;
#1127 = EDGE_CURVE ( 'NONE', #196, #1366, #141, .T. ) ;
#1128 = CARTESIAN_POINT ( 'NONE',  ( -26.26429186359187540, 11.72280367008104029, -33.38657886839033040 ) ) ;
#1129 = VECTOR ( 'NONE', #890, 1000.000000000000000 ) ;
#1130 = CARTESIAN_POINT ( 'NONE',  ( -6.264292152387002766, 13.68280367008105713, -92.00696795350444290 ) ) ;
#1131 = ORIENTED_EDGE ( 'NONE', *, *, #1062, .T. ) ;
#1132 = EDGE_LOOP ( 'NONE', ( #1217, #1350, #457, #620 ) ) ;
#1133 = DIRECTION ( 'NONE',  ( 0.000000000000000000, -0.2588190451025150773, 0.9659258262890698665 ) ) ;
#1134 = DESIGN_CONTEXT ( 'detailed design', #331, 'design' ) ;
#1135 = LINE ( 'NONE', #1024, #150 ) ;
#1136 = AXIS2_PLACEMENT_3D ( 'NONE', #24, #1187, #101 ) ;
#1137 = DIRECTION ( 'NONE',  ( -0.000000000000000000, -0.000000000000000000, 1.000000000000000000 ) ) ;
#1138 = ORIENTED_EDGE ( 'NONE', *, *, #139, .F. ) ;
#1139 = EDGE_LOOP ( 'NONE', ( #1357, #59, #959, #1399, #276, #857 ) ) ;
#1140 = VERTEX_POINT ( 'NONE', #1006 ) ;
#1141 = DIRECTION ( 'NONE',  ( 0.2588190451025212946, 0.000000000000000000, -0.9659258262890680902 ) ) ;
#1142 = CARTESIAN_POINT ( 'NONE',  ( 5.735708136408123714, 11.72280367008103674, -33.38657886839035882 ) ) ;
#1143 = LINE ( 'NONE', #410, #1326 ) ;
#1144 = VECTOR ( 'NONE', #468, 1000.000000000000000 ) ;
#1145 = CARTESIAN_POINT ( 'NONE',  ( -26.26429186359187540, 18.22280367008104918, 8.060862248352119508 ) ) ;
#1146 = ORIENTED_EDGE ( 'NONE', *, *, #230, .T. ) ;
#1147 = ORIENTED_EDGE ( 'NONE', *, *, #931, .F. ) ;
#1148 = VERTEX_POINT ( 'NONE', #35 ) ;
#1149 = EDGE_CURVE ( 'NONE', #1053, #1324, #26, .T. ) ;
#1150 = PLANE ( 'NONE',  #416 ) ;
#1151 = CARTESIAN_POINT ( 'NONE',  ( -26.26429186359188961, 5.722803670081044736, 8.060862248352119508 ) ) ;
#1152 = VECTOR ( 'NONE', #868, 1000.000000000000000 ) ;
#1153 = DIRECTION ( 'NONE',  ( 1.000000000000000000, -0.000000000000000000, 3.573316797539113732E-15 ) ) ;
#1154 = DIRECTION ( 'NONE',  ( -1.000000000000000000, -1.084202172485504681E-16, 0.000000000000000000 ) ) ;
#1155 = ORIENTED_EDGE ( 'NONE', *, *, #459, .F. ) ;
#1156 = VERTEX_POINT ( 'NONE', #20 ) ;
#1157 = CARTESIAN_POINT ( 'NONE',  ( -11.73929186359187327, 4.422803670081038696, 8.060862248352119508 ) ) ;
#1158 = LINE ( 'NONE', #185, #660 ) ;
#1159 = DIRECTION ( 'NONE',  ( 1.734723475976811828E-15, -1.000000000000000000, 0.000000000000000000 ) ) ;
#1160 = LINE ( 'NONE', #1258, #1255 ) ;
#1161 = ORIENTED_EDGE ( 'NONE', *, *, #352, .T. ) ;
#1162 = VECTOR ( 'NONE', #376, 1000.000000000000000 ) ;
#1163 = ORIENTED_EDGE ( 'NONE', *, *, #369, .F. ) ;
#1164 = CARTESIAN_POINT ( 'NONE',  ( -11.73929186359187327, 0.000000000000000000, 0.000000000000000000 ) ) ;
#1165 = LINE ( 'NONE', #1056, #694 ) ;
#1166 = DIRECTION ( 'NONE',  ( -0.2588190451025212946, 0.000000000000000000, -0.9659258262890680902 ) ) ;
#1167 = DIRECTION ( 'NONE',  ( 3.573316797539113732E-15, 2.507590735115167730E-16, -1.000000000000000000 ) ) ;
#1168 = ORIENTED_EDGE ( 'NONE', *, *, #1087, .T. ) ;
#1169 = CC_DESIGN_PERSON_AND_ORGANIZATION_ASSIGNMENT ( #471, #132, ( #1114 ) ) ;
#1170 = EDGE_CURVE ( 'NONE', #171, #646, #1343, .T. ) ;
#1171 = ORIENTED_EDGE ( 'NONE', *, *, #186, .F. ) ;
#1172 = VECTOR ( 'NONE', #42, 1000.000000000000000 ) ;
#1173 = CARTESIAN_POINT ( 'NONE',  ( -8.489291863591873266, 16.93280367008105358, -89.50696795350444290 ) ) ;
#1174 = DIRECTION ( 'NONE',  ( 2.912417903693245288E-15, 0.000000000000000000, -1.000000000000000000 ) ) ;
#1175 = EDGE_CURVE ( 'NONE', #483, #1140, #1240, .T. ) ;
#1176 = CARTESIAN_POINT ( 'NONE',  ( -15.34429186359187369, 15.68280367008105181, -33.38913775164787978 ) ) ;
#1177 = ORIENTED_EDGE ( 'NONE', *, *, #183, .F. ) ;
#1178 = ORIENTED_EDGE ( 'NONE', *, *, #1298, .T. ) ;
#1179 = CARTESIAN_POINT ( 'NONE',  ( -26.26429186359187540, 8.722803670081050953, -74.44013775164788171 ) ) ;
#1180 = DIRECTION ( 'NONE',  ( 2.912417903693245288E-15, 0.000000000000000000, -1.000000000000000000 ) ) ;
#1181 = EDGE_LOOP ( 'NONE', ( #984, #497, #197, #1241, #1196, #1304 ) ) ;
#1182 = DIRECTION ( 'NONE',  ( -0.000000000000000000, -0.000000000000000000, 1.000000000000000000 ) ) ;
#1183 = CARTESIAN_POINT ( 'NONE',  ( 5.735708136408130819, 18.22280367008105273, 8.060862248352119508 ) ) ;
#1184 = ORIENTED_EDGE ( 'NONE', *, *, #1279, .T. ) ;
#1185 = EDGE_LOOP ( 'NONE', ( #9, #505, #388, #781 ) ) ;
#1186 = PERSON_AND_ORGANIZATION ( #887, #1224 ) ;
#1187 = DIRECTION ( 'NONE',  ( 0.9967746154846105489, 1.104019268290144406E-16, -0.08025189047933337094 ) ) ;
#1188 = FACE_OUTER_BOUND ( 'NONE', #1185, .T. ) ;
#1189 = FACE_OUTER_BOUND ( 'NONE', #573, .T. ) ;
#1190 = ADVANCED_FACE ( 'NONE', ( #705 ), #898, .F. ) ;
#1191 = ORIENTED_EDGE ( 'NONE', *, *, #1015, .T. ) ;
#1192 = AXIS2_PLACEMENT_3D ( 'NONE', #823, #428, #306 ) ;
#1193 = VECTOR ( 'NONE', #475, 1000.000000000000000 ) ;
#1194 = ADVANCED_FACE ( 'NONE', ( #1000 ), #1329, .T. ) ;
#1195 = EDGE_CURVE ( 'NONE', #162, #248, #1228, .T. ) ;
#1196 = ORIENTED_EDGE ( 'NONE', *, *, #606, .T. ) ;
#1197 = DIRECTION ( 'NONE',  ( 2.912417903693245288E-15, 0.000000000000000000, 1.000000000000000000 ) ) ;
#1198 = CYLINDRICAL_SURFACE ( 'NONE', #1054, 0.5956299999999997707 ) ;
#1199 = ORIENTED_EDGE ( 'NONE', *, *, #1382, .F. ) ;
#1200 = VECTOR ( 'NONE', #1271, 1000.000000000000000 ) ;
#1201 = CARTESIAN_POINT ( 'NONE',  ( -6.264292152387024082, 16.93280367008105358, -85.50696795350442869 ) ) ;
#1202 = CARTESIAN_POINT ( 'NONE',  ( -11.73929186359187327, 4.422803670081038696, -34.13298902990320016 ) ) ;
#1203 = ORIENTED_EDGE ( 'NONE', *, *, #425, .T. ) ;
#1204 = VECTOR ( 'NONE', #607, 1000.000000000000000 ) ;
#1205 = APPROVAL_STATUS ( 'not_yet_approved' ) ;
#1206 = CARTESIAN_POINT ( 'NONE',  ( -7.350154039258267602, 15.43053660884993583, -82.22368136882101908 ) ) ;
#1207 = LINE ( 'NONE', #232, #1257 ) ;
#1208 = CC_DESIGN_DATE_AND_TIME_ASSIGNMENT ( #1088, #348, ( #415 ) ) ;
#1209 = VERTEX_POINT ( 'NONE', #257 ) ;
#1210 = EDGE_CURVE ( 'NONE', #1148, #1389, #251, .T. ) ;
#1211 = VECTOR ( 'NONE', #685, 1000.000000000000000 ) ;
#1212 = PLANE ( 'NONE',  #1096 ) ;
#1213 = EDGE_CURVE ( 'NONE', #1402, #612, #692, .T. ) ;
#1214 = CARTESIAN_POINT ( 'NONE',  ( -8.789291863591852660, 5.722803670081039407, 8.060862248352119508 ) ) ;
#1215 = LINE ( 'NONE', #482, #400 ) ;
#1216 = EDGE_CURVE ( 'NONE', #951, #1310, #565, .T. ) ;
#1217 = ORIENTED_EDGE ( 'NONE', *, *, #858, .F. ) ;
#1218 = AXIS2_PLACEMENT_3D ( 'NONE', #480, #1116, #262 ) ;
#1219 = DIRECTION ( 'NONE',  ( -0.2588190451025212946, -4.489794735692449942E-16, -0.9659258262890680902 ) ) ;
#1220 = LINE ( 'NONE', #1354, #523 ) ;
#1221 = LINE ( 'NONE', #152, #1348 ) ;
#1222 = EDGE_CURVE ( 'NONE', #748, #328, #1221, .T. ) ;
#1223 = EDGE_LOOP ( 'NONE', ( #1359, #1286, #626, #743, #1014, #849, #1289, #243, #56, #226 ) ) ;
#1224 = ORGANIZATION ( 'UNSPECIFIED', 'UNSPECIFIED', '' ) ;
#1225 = DIRECTION ( 'NONE',  ( -0.000000000000000000, -0.000000000000000000, 1.000000000000000000 ) ) ;
#1226 = VECTOR ( 'NONE', #1219, 1000.000000000000114 ) ;
#1227 = CARTESIAN_POINT ( 'NONE',  ( -12.03929186359187220, 15.68280367008105181, -92.00696795350444290 ) ) ;
#1228 = LINE ( 'NONE', #1323, #540 ) ;
#1229 = VERTEX_POINT ( 'NONE', #242 ) ;
#1230 = ADVANCED_FACE ( 'NONE', ( #147 ), #595, .F. ) ;
#1231 = ADVANCED_FACE ( 'NONE', ( #48 ), #490, .T. ) ;
#1232 = DIRECTION ( 'NONE',  ( -0.000000000000000000, -0.000000000000000000, 1.000000000000000000 ) ) ;
#1233 = AXIS2_PLACEMENT_3D ( 'NONE', #1392, #191, #745 ) ;
#1234 = CARTESIAN_POINT ( 'NONE',  ( -14.26429215238700543, 13.68280367008105358, -92.00696795350444290 ) ) ;
#1235 = AXIS2_PLACEMENT_3D ( 'NONE', #577, #1349, #130 ) ;
#1236 = DIRECTION ( 'NONE',  ( -0.9659258262890682012, -1.047258879322463403E-16, -0.2588190451025213501 ) ) ;
#1237 = ORIENTED_EDGE ( 'NONE', *, *, #53, .T. ) ;
#1238 = CARTESIAN_POINT ( 'NONE',  ( -6.264292152387027635, 16.93280367008105358, -84.91133795350442881 ) ) ;
#1239 = DIRECTION ( 'NONE',  ( 0.000000000000000000, -3.098785029862411336E-16, -1.000000000000000000 ) ) ;
#1240 = LINE ( 'NONE', #903, #1144 ) ;
#1241 = ORIENTED_EDGE ( 'NONE', *, *, #70, .T. ) ;
#1242 = ORIENTED_EDGE ( 'NONE', *, *, #60, .T. ) ;
#1243 = VERTEX_POINT ( 'NONE', #572 ) ;
#1244 = LINE ( 'NONE', #52, #709 ) ;
#1245 = LINE ( 'NONE', #508, #408 ) ;
#1246 = AXIS2_PLACEMENT_3D ( 'NONE', #3, #864, #327 ) ;
#1247 = DIRECTION ( 'NONE',  ( -1.084202172485504557E-16, 1.000000000000000000, 2.905110965495604487E-17 ) ) ;
#1248 = PLANE ( 'NONE',  #143 ) ;
#1249 = ORIENTED_EDGE ( 'NONE', *, *, #667, .F. ) ;
#1250 = ORIENTED_EDGE ( 'NONE', *, *, #1091, .T. ) ;
#1251 = ORIENTED_EDGE ( 'NONE', *, *, #790, .F. ) ;
#1252 = DIRECTION ( 'NONE',  ( 1.067522139062647910E-15, 1.000000000000000000, 4.388676620525645601E-15 ) ) ;
#1253 = EDGE_CURVE ( 'NONE', #268, #755, #779, .T. ) ;
#1254 = DIRECTION ( 'NONE',  ( -1.084202172485504434E-16, 1.000000000000000000, -0.000000000000000000 ) ) ;
#1255 = VECTOR ( 'NONE', #1167, 1000.000000000000000 ) ;
#1256 = FACE_OUTER_BOUND ( 'NONE', #313, .T. ) ;
#1257 = VECTOR ( 'NONE', #340, 1000.000000000000000 ) ;
#1258 = CARTESIAN_POINT ( 'NONE',  ( -6.264292152387051615, 13.68280367008105358, -78.17118963701504697 ) ) ;
#1259 = EDGE_LOOP ( 'NONE', ( #843, #1351, #971, #484 ) ) ;
#1260 = EDGE_LOOP ( 'NONE', ( #142, #834, #379, #207 ) ) ;
#1261 = LINE ( 'NONE', #702, #794 ) ;
#1262 = DIRECTION ( 'NONE',  ( 1.000000000000000000, 8.095376221225116077E-15, 0.000000000000000000 ) ) ;
#1263 = AXIS2_PLACEMENT_3D ( 'NONE', #330, #1076, #1197 ) ;
#1264 = PLANE ( 'NONE',  #827 ) ;
#1265 = CARTESIAN_POINT ( 'NONE',  ( -15.34429186359187369, 15.68280367008104825, 8.060862248352119508 ) ) ;
#1266 = VERTEX_POINT ( 'NONE', #419 ) ;
#1267 = AXIS2_PLACEMENT_3D ( 'NONE', #608, #1030, #298 ) ;
#1268 = VERTEX_POINT ( 'NONE', #72 ) ;
#1269 = CC_DESIGN_DATE_AND_TIME_ASSIGNMENT ( #454, #979, ( #1114 ) ) ;
#1270 = CARTESIAN_POINT ( 'NONE',  ( -5.184291863591875327, 15.68280367008105181, -33.38913775164787978 ) ) ;
#1271 = DIRECTION ( 'NONE',  ( -0.000000000000000000, -0.000000000000000000, -1.000000000000000000 ) ) ;
#1272 = ADVANCED_FACE ( 'NONE', ( #1256 ), #272, .F. ) ;
#1273 = DIRECTION ( 'NONE',  ( 2.912417903693245288E-15, 0.000000000000000000, -1.000000000000000000 ) ) ;
#1274 = LINE ( 'NONE', #1380, #978 ) ;
#1275 = ORIENTED_EDGE ( 'NONE', *, *, #258, .T. ) ;
#1276 = VECTOR ( 'NONE', #1225, 1000.000000000000000 ) ;
#1277 = EDGE_LOOP ( 'NONE', ( #1059, #511, #504, #1376 ) ) ;
#1278 = DIRECTION ( 'NONE',  ( 3.636005999432003998E-15, 0.000000000000000000, 1.000000000000000000 ) ) ;
#1279 = EDGE_CURVE ( 'NONE', #301, #190, #1049, .T. ) ;
#1280 = DIRECTION ( 'NONE',  ( -1.000000000000000000, -1.734723475976809658E-15, 0.000000000000000000 ) ) ;
#1281 = DIRECTION ( 'NONE',  ( 1.000000000000000000, -0.000000000000000000, 3.573316797539113732E-15 ) ) ;
#1282 = LINE ( 'NONE', #1176, #346 ) ;
#1283 = VERTEX_POINT ( 'NONE', #1363 ) ;
#1284 = ORIENTED_EDGE ( 'NONE', *, *, #425, .F. ) ;
#1285 = DIRECTION ( 'NONE',  ( -1.000000000000000000, 0.000000000000000000, 0.000000000000000000 ) ) ;
#1286 = ORIENTED_EDGE ( 'NONE', *, *, #422, .T. ) ;
#1287 = APPLICATION_PROTOCOL_DEFINITION ( 'international standard', 'config_control_design', 1994, #659 ) ;
#1288 = DIRECTION ( 'NONE',  ( -1.000000000000000000, -4.336808689942016750E-16, 0.000000000000000000 ) ) ;
#1289 = ORIENTED_EDGE ( 'NONE', *, *, #1370, .F. ) ;
#1290 = CARTESIAN_POINT ( 'NONE',  ( -5.184291863591870886, 18.22280367008105273, 8.060862248352119508 ) ) ;
#1291 = ORIENTED_EDGE ( 'NONE', *, *, #447, .T. ) ;
#1292 = PRODUCT_DEFINITION_SHAPE ( 'NONE', 'NONE',  #415 ) ;
#1293 = ORIENTED_EDGE ( 'NONE', *, *, #688, .F. ) ;
#1294 = CARTESIAN_POINT ( 'NONE',  ( 5.735708136408130819, 18.22280367008105273, -33.38657886839033040 ) ) ;
#1295 = VERTEX_POINT ( 'NONE', #715 ) ;
#1296 = FACE_OUTER_BOUND ( 'NONE', #876, .T. ) ;
#1297 = DIRECTION ( 'NONE',  ( 1.084202172485504557E-16, -1.000000000000000000, -2.905110965495604487E-17 ) ) ;
#1298 = EDGE_CURVE ( 'NONE', #50, #310, #55, .T. ) ;
#1299 = ORIENTED_EDGE ( 'NONE', *, *, #459, .T. ) ;
#1300 = EDGE_CURVE ( 'NONE', #561, #180, #1356, .T. ) ;
#1301 = DIRECTION ( 'NONE',  ( 0.000000000000000000, -0.000000000000000000, -1.000000000000000000 ) ) ;
#1302 = DIRECTION ( 'NONE',  ( -1.084202172485504557E-16, 1.000000000000000000, 2.905110965495604487E-17 ) ) ;
#1303 = DIRECTION ( 'NONE',  ( 0.000000000000000000, 0.000000000000000000, 1.000000000000000000 ) ) ;
#1304 = ORIENTED_EDGE ( 'NONE', *, *, #632, .T. ) ;
#1305 = VECTOR ( 'NONE', #1280, 1000.000000000000000 ) ;
#1306 = AXIS2_PLACEMENT_3D ( 'NONE', #314, #1082, #860 ) ;
#1307 = CALENDAR_DATE ( 2026, 22, 1 ) ;
#1308 = CARTESIAN_POINT ( 'NONE',  ( -26.26429186359188961, 5.722803670081044736, 8.060862248352119508 ) ) ;
#1309 = LINE ( 'NONE', #988, #22 ) ;
#1310 = VERTEX_POINT ( 'NONE', #517 ) ;
#1311 = VECTOR ( 'NONE', #47, 1000.000000000000000 ) ;
#1312 = EDGE_CURVE ( 'NONE', #15, #693, #30, .T. ) ;
#1313 = ADVANCED_FACE ( 'NONE', ( #161, #631, #847 ), #177, .T. ) ;
#1314 = DIRECTION ( 'NONE',  ( 1.000000000000000000, -0.000000000000000000, 3.573316797539113732E-15 ) ) ;
#1315 = DIRECTION ( 'NONE',  ( 1.000000000000000000, -0.000000000000000000, 3.573316797539113732E-15 ) ) ;
#1316 = ORIENTED_EDGE ( 'NONE', *, *, #183, .T. ) ;
#1317 = EDGE_CURVE ( 'NONE', #644, #944, #1143, .T. ) ;
#1318 = VECTOR ( 'NONE', #915, 1000.000000000000000 ) ;
#1319 = PERSON_AND_ORGANIZATION ( #887, #1224 ) ;
#1320 = LINE ( 'NONE', #1333, #1276 ) ;
#1321 = EDGE_CURVE ( 'NONE', #824, #1398, #617, .T. ) ;
#1322 = CARTESIAN_POINT ( 'NONE',  ( -6.264292152387011647, 16.93280367008105358, -89.50696795350442869 ) ) ;
#1323 = CARTESIAN_POINT ( 'NONE',  ( -12.03929186359187220, 15.68280367008105181, -74.43913775164789115 ) ) ;
#1324 = VERTEX_POINT ( 'NONE', #1025 ) ;
#1325 = APPROVAL_DATE_TIME ( #1102, #955 ) ;
#1326 = VECTOR ( 'NONE', #1166, 1000.000000000000114 ) ;
#1327 = CARTESIAN_POINT ( 'NONE',  ( -12.03929186359187220, 18.22280367008105273, -74.43913775164789115 ) ) ;
#1328 = CARTESIAN_POINT ( 'NONE',  ( -14.26429215238695569, 18.22280367008105273, -78.17118748141884055 ) ) ;
#1329 = PLANE ( 'NONE',  #1123 ) ;
#1330 = ORIENTED_EDGE ( 'NONE', *, *, #893, .T. ) ;
#1331 = AXIS2_PLACEMENT_3D ( 'NONE', #1201, #455, #673 ) ;
#1332 = PERSON_AND_ORGANIZATION_ROLE ( 'creator' ) ;
#1333 = CARTESIAN_POINT ( 'NONE',  ( 5.735708136408120161, 8.722803670081047400, -74.44013775164788171 ) ) ;
#1334 = DIRECTION ( 'NONE',  ( 1.000000000000000000, -1.387778780781445478E-15, 0.000000000000000000 ) ) ;
#1335 = EDGE_CURVE ( 'NONE', #1081, #1391, #334, .T. ) ;
#1336 = CARTESIAN_POINT ( 'NONE',  ( -23.26429186359187185, 8.722803670080160998, -44.58273129109694821 ) ) ;
#1337 = ORIENTED_EDGE ( 'NONE', *, *, #547, .T. ) ;
#1338 = EDGE_CURVE ( 'NONE', #1396, #809, #1372, .T. ) ;
#1339 = EDGE_CURVE ( 'NONE', #604, #734, #986, .T. ) ;
#1340 = LINE ( 'NONE', #488, #844 ) ;
#1341 = VECTOR ( 'NONE', #45, 1000.000000000000000 ) ;
#1342 = PLANE ( 'NONE',  #1383 ) ;
#1343 = LINE ( 'NONE', #680, #1193 ) ;
#1344 = ORIENTED_EDGE ( 'NONE', *, *, #220, .T. ) ;
#1345 = ORIENTED_EDGE ( 'NONE', *, *, #16, .T. ) ;
#1346 = CARTESIAN_POINT ( 'NONE',  ( -26.26429186359188961, 5.722803670081043848, -33.38657886839033040 ) ) ;
#1347 = DIRECTION ( 'NONE',  ( 1.387778780781445478E-15, 1.000000000000000000, 0.000000000000000000 ) ) ;
#1348 = VECTOR ( 'NONE', #264, 1000.000000000000114 ) ;
#1349 = DIRECTION ( 'NONE',  ( 1.000000000000000000, 6.672013369141570147E-16, -0.000000000000000000 ) ) ;
#1350 = ORIENTED_EDGE ( 'NONE', *, *, #1339, .F. ) ;
#1351 = ORIENTED_EDGE ( 'NONE', *, *, #858, .T. ) ;
#1352 = ORIENTED_EDGE ( 'NONE', *, *, #106, .F. ) ;
#1353 = DIRECTION ( 'NONE',  ( 0.000000000000000000, 1.000000000000000000, 0.000000000000000000 ) ) ;
#1354 = CARTESIAN_POINT ( 'NONE',  ( -11.73929186359187327, 5.722803670081039407, -33.38657886839033040 ) ) ;
#1355 = ADVANCED_FACE ( 'NONE', ( #299 ), #1264, .F. ) ;
#1356 = LINE ( 'NONE', #1387, #653 ) ;
#1357 = ORIENTED_EDGE ( 'NONE', *, *, #632, .F. ) ;
#1358 = ORIENTED_EDGE ( 'NONE', *, *, #352, .F. ) ;
#1359 = ORIENTED_EDGE ( 'NONE', *, *, #571, .T. ) ;
#1360 = EDGE_CURVE ( 'NONE', #483, #43, #741, .T. ) ;
#1361 = LINE ( 'NONE', #797, #773 ) ;
#1362 = CARTESIAN_POINT ( 'NONE',  ( -8.789291863591875753, 4.422803670080816651, -34.13298902990327832 ) ) ;
#1363 = CARTESIAN_POINT ( 'NONE',  ( -6.264292152387052504, 18.22280367008105273, -78.17118963701504697 ) ) ;
#1364 = DIRECTION ( 'NONE',  ( -1.259891048040718120E-32, 2.905110965495604487E-17, -1.000000000000000000 ) ) ;
#1365 = ORIENTED_EDGE ( 'NONE', *, *, #1300, .T. ) ;
#1366 = VERTEX_POINT ( 'NONE', #169 ) ;
#1367 = EDGE_LOOP ( 'NONE', ( #1249, #1406, #1131, #1250, #625, #1035, #238, #919, #614, #1007, #911, #1069, #668, #912, #440, #556, #939, #1168, #361, #538 ) ) ;
#1368 = DIRECTION ( 'NONE',  ( -0.2588190451025213501, -0.000000000000000000, -0.9659258262890680902 ) ) ;
#1369 = DIRECTION ( 'NONE',  ( 0.000000000000000000, 2.324088772399064151E-15, -1.000000000000000000 ) ) ;
#1370 = EDGE_CURVE ( 'NONE', #824, #641, #87, .T. ) ;
#1371 = CIRCLE ( 'NONE', #29, 0.5956299999999997707 ) ;
#1372 = LINE ( 'NONE', #392, #1080 ) ;
#1373 = AXIS2_PLACEMENT_3D ( 'NONE', #993, #1112, #1124 ) ;
#1374 = CARTESIAN_POINT ( 'NONE',  ( -17.95794901026158286, 11.42580252402940921, -64.38627242210553447 ) ) ;
#1375 = ORIENTED_EDGE ( 'NONE', *, *, #1360, .T. ) ;
#1376 = ORIENTED_EDGE ( 'NONE', *, *, #855, .T. ) ;
#1377 = DIRECTION ( 'NONE',  ( 0.000000000000000000, -2.507590735115167730E-16, 1.000000000000000000 ) ) ;
#1378 = CYLINDRICAL_SURFACE ( 'NONE', #1267, 0.5956299999999997707 ) ;
#1379 = CARTESIAN_POINT ( 'NONE',  ( -6.264292152387051615, 13.68280367008105358, -78.17118963701504697 ) ) ;
#1380 = CARTESIAN_POINT ( 'NONE',  ( -6.264292152387027635, 16.93280367008105358, -84.91133795350442881 ) ) ;
#1381 = ORIENTED_EDGE ( 'NONE', *, *, #1091, .F. ) ;
#1382 = EDGE_CURVE ( 'NONE', #469, #1396, #609, .T. ) ;
#1383 = AXIS2_PLACEMENT_3D ( 'NONE', #160, #581, #489 ) ;
#1384 = ORIENTED_EDGE ( 'NONE', *, *, #139, .T. ) ;
#1385 = FACE_OUTER_BOUND ( 'NONE', #107, .T. ) ;
#1386 = CARTESIAN_POINT ( 'NONE',  ( -23.26429186359189671, 11.72280367008104562, 8.060862248352119508 ) ) ;
#1387 = CARTESIAN_POINT ( 'NONE',  ( -23.26429186359189671, 11.72280367008104562, -74.44013775164788171 ) ) ;
#1388 = LINE ( 'NONE', #73, #1003 ) ;
#1389 = VERTEX_POINT ( 'NONE', #601 ) ;
#1390 = VECTOR ( 'NONE', #1029, 1000.000000000000000 ) ;
#1391 = VERTEX_POINT ( 'NONE', #1066 ) ;
#1392 = CARTESIAN_POINT ( 'NONE',  ( 5.735708136408130819, 18.22280367008105273, 8.060862248352119508 ) ) ;
#1393 = DIRECTION ( 'NONE',  ( 0.000000000000000000, 1.000000000000000000, 0.000000000000000000 ) ) ;
#1394 =( NAMED_UNIT ( * ) SI_UNIT ( $, .STERADIAN. ) SOLID_ANGLE_UNIT ( ) );
#1395 = DIRECTION ( 'NONE',  ( 1.000000000000000000, -0.000000000000000000, 3.573316797539113732E-15 ) ) ;
#1396 = VERTEX_POINT ( 'NONE', #638 ) ;
#1397 = LINE ( 'NONE', #1183, #873 ) ;
#1398 = VERTEX_POINT ( 'NONE', #94 ) ;
#1399 = ORIENTED_EDGE ( 'NONE', *, *, #789, .F. ) ;
#1400 = ADVANCED_FACE ( 'NONE', ( #434 ), #551, .F. ) ;
#1401 = DIRECTION ( 'NONE',  ( 1.084202172485504557E-16, -1.000000000000000000, -2.905110965495604487E-17 ) ) ;
#1402 = VERTEX_POINT ( 'NONE', #751 ) ;
#1403 = LINE ( 'NONE', #2, #1152 ) ;
#1404 = VECTOR ( 'NONE', #25, 1000.000000000000000 ) ;
#1405 = LINE ( 'NONE', #444, #643 ) ;
#1406 = ORIENTED_EDGE ( 'NONE', *, *, #263, .T. ) ;
ENDSEC;
END-ISO-10303-21;
