ISO-10303-21;
HEADER;
FILE_DESCRIPTION (( 'STEP AP203' ),
    '1' );
FILE_NAME ('HFV002 Tapered V-Groove Fiber Holder.STEP',
    '2014-04-01T09:05:46',
    ( '' ),
    ( '' ),
    'SwSTEP 2.0',
    'SolidWorks 2012',
    '' );
FILE_SCHEMA (( 'CONFIG_CONTROL_DESIGN' ));
ENDSEC;

DATA;
#1 = PRODUCT ( 'HFV002 Tapered V-Groove Fiber Holder', 'HFV002 Tapered V-Groove Fiber Holder', '', ( #195 ) ) ;
#2 = PERSON ( 'UNSPECIFIED', 'UNSPECIFIED', 'UNSPECIFIED', ('UNSPECIFIED'), ('UNSPECIFIED'), ('UNSPECIFIED') ) ;
#3 = PRODUCT ( '131238 - Basic Tapered BV Assy', '131238 - Basic Tapered BV Assy', '', ( #191 ) ) ;
#4 = PRODUCT ( '131207 - Fibre Holder', '131207 - Fibre Holder', '', ( #211 ) ) ;
#5 = PERSON ( 'NAUO-PER1', 'UNSPECIFIED', 'UNSPECIFIED', ('UNSPECIFIED'), ('UNSPECIFIED'), ('UNSPECIFIED') ) ;
#6 = PERSON ( 'NAUO-PER2', 'UNSPECIFIED', 'UNSPECIFIED', ('UNSPECIFIED'), ('UNSPECIFIED'), ('UNSPECIFIED') ) ;
#7 = ADVANCED_FACE ( 'NONE', ( #558 ), #878, .F. ) ;
#8 = ADVANCED_FACE ( 'NONE', ( #559, #898 ), #949, .F. ) ;
#9 = ADVANCED_FACE ( 'NONE', ( #299 ), #888, .F. ) ;
#10 = ADVANCED_FACE ( 'NONE', ( #885 ), #980, .T. ) ;
#11 = ADVANCED_FACE ( 'NONE', ( #894 ), #876, .F. ) ;
#12 = ADVANCED_FACE ( 'NONE', ( #893 ), #895, .F. ) ;
#13 = ADVANCED_FACE ( 'NONE', ( #882 ), #988, .T. ) ;
#14 = ADVANCED_FACE ( 'NONE', ( #886 ), #993, .T. ) ;
#15 = ADVANCED_FACE ( 'NONE', ( #903 ), #984, .T. ) ;
#16 = ADVANCED_FACE ( 'NONE', ( #872 ), #998, .T. ) ;
#17 = ADVANCED_FACE ( 'NONE', ( #891 ), #953, .T. ) ;
#18 = ADVANCED_FACE ( 'NONE', ( #875 ), #940, .F. ) ;
#19 = ADVANCED_FACE ( 'NONE', ( #924 ), #942, .T. ) ;
#20 = ADVANCED_FACE ( 'NONE', ( #877 ), #962, .T. ) ;
#21 = ADVANCED_FACE ( 'NONE', ( #890, #889 ), #936, .T. ) ;
#22 = ADVANCED_FACE ( 'NONE', ( #874 ), #933, .F. ) ;
#23 = ADVANCED_FACE ( 'NONE', ( #892 ), #976, .F. ) ;
#24 = ADVANCED_FACE ( 'NONE', ( #880 ), #972, .T. ) ;
#25 = ADVANCED_FACE ( 'NONE', ( #925 ), #899, .F. ) ;
#26 = ADVANCED_FACE ( 'NONE', ( #881 ), #929, .F. ) ;
#27 = ADVANCED_FACE ( 'NONE', ( #884 ), #931, .F. ) ;
#28 = ADVANCED_FACE ( 'NONE', ( #927 ), #923, .F. ) ;
#29 = ADVANCED_FACE ( 'NONE', ( #904 ), #928, .F. ) ;
#30 = ADVANCED_FACE ( 'NONE', ( #871 ), #1015, .F. ) ;
#31 = ADVANCED_FACE ( 'NONE', ( #905 ), #1020, .F. ) ;
#32 = ADVANCED_FACE ( 'NONE', ( #926 ), #922, .F. ) ;
#33 = ADVANCED_FACE ( 'NONE', ( #920 ), #1026, .F. ) ;
#34 = ADVANCED_FACE ( 'NONE', ( #896 ), #1031, .T. ) ;
#35 = ADVANCED_FACE ( 'NONE', ( #919 ), #1035, .F. ) ;
#36 = ADVANCED_FACE ( 'NONE', ( #914 ), #1039, .F. ) ;
#37 = ADVANCED_FACE ( 'NONE', ( #915 ), #1043, .F. ) ;
#38 = ADVANCED_FACE ( 'NONE', ( #916 ), #1047, .T. ) ;
#39 = ADVANCED_FACE ( 'NONE', ( #911 ), #1051, .F. ) ;
#40 = VECTOR ( 'NONE', #1110, 1000.000000000000000 ) ;
#41 = VECTOR ( 'NONE', #1104, 1000.000000000000000 ) ;
#42 = LINE ( 'NONE', #1092, #41 ) ;
#43 = AXIS2_PLACEMENT_3D ( 'NONE', #1235, #1236, #1237 ) ;
#44 = AXIS2_PLACEMENT_3D ( 'NONE', #1227, #1228, #1229 ) ;
#45 = DESIGN_CONTEXT ( 'detailed design', #169, 'design' ) ;
#46 = DESIGN_CONTEXT ( 'detailed design', #175, 'design' ) ;
#47 = PRODUCT_DEFINITION_SHAPE ( 'NONE', 'NONE',  #1315 ) ;
#48 = DESIGN_CONTEXT ( 'detailed design', #174, 'design' ) ;
#49 = PRODUCT_DEFINITION_SHAPE ( 'NONE', 'NONE',  #568 ) ;
#50 = PRODUCT_DEFINITION_SHAPE ( 'NONE', 'NONE',  #585 ) ;
#51 = PRODUCT_DEFINITION_SHAPE ( 'NONE', 'NONE',  #1316 ) ;
#52 = PRODUCT_DEFINITION_SHAPE ( 'NONE', 'NONE',  #602 ) ;
#53 = LINE ( 'NONE', #1109, #40 ) ;
#54 = LINE ( 'NONE', #1111, #55 ) ;
#55 = VECTOR ( 'NONE', #1112, 1000.000000000000000 ) ;
#56 = SHAPE_REPRESENTATION ( '131207 - Fibre Holder', ( #59 ), #60 ) ;
#57 = SHAPE_REPRESENTATION ( '131238 - Basic Tapered BV Assy', ( #140, #139 ), #1314 ) ;
#58 = SHAPE_REPRESENTATION ( 'HFV002 Tapered V-Groove Fiber Holder', ( #563, #561 ), #562 ) ;
#59 = AXIS2_PLACEMENT_3D ( 'NONE', #1292, #1293, #1294 ) ;
#60 =( GEOMETRIC_REPRESENTATION_CONTEXT ( 3 ) GLOBAL_UNCERTAINTY_ASSIGNED_CONTEXT ( ( #146 ) ) GLOBAL_UNIT_ASSIGNED_CONTEXT ( ( #1289, #1290, #1291 ) ) REPRESENTATION_CONTEXT ( 'NONE', 'WORKASPACE' ) );
#61 = LINE ( 'NONE', #1106, #630 ) ;
#62 = EDGE_CURVE ( 'NONE', #505, #500, #908, .T. ) ;
#63 = EDGE_CURVE ( 'NONE', #503, #505, #917, .T. ) ;
#64 = EDGE_CURVE ( 'NONE', #491, #503, #921, .T. ) ;
#65 = EDGE_CURVE ( 'NONE', #507, #506, #910, .T. ) ;
#66 = EDGE_CURVE ( 'NONE', #507, #516, #909, .T. ) ;
#67 = EDGE_CURVE ( 'NONE', #511, #488, #913, .T. ) ;
#68 = EDGE_CURVE ( 'NONE', #502, #488, #906, .T. ) ;
#69 = EDGE_CURVE ( 'NONE', #511, #498, #900, .T. ) ;
#70 = EDGE_CURVE ( 'NONE', #522, #498, #873, .T. ) ;
#71 = EDGE_CURVE ( 'NONE', #486, #495, #221, .T. ) ;
#72 = EDGE_CURVE ( 'NONE', #495, #487, #230, .T. ) ;
#73 = EDGE_CURVE ( 'NONE', #486, #511, #246, .T. ) ;
#74 = EDGE_CURVE ( 'NONE', #522, #502, #219, .T. ) ;
#75 = EDGE_CURVE ( 'NONE', #518, #507, #220, .T. ) ;
#76 = EDGE_CURVE ( 'NONE', #477, #487, #224, .T. ) ;
#77 = EDGE_CURVE ( 'NONE', #477, #486, #248, .T. ) ;
#78 = EDGE_CURVE ( 'NONE', #487, #478, #238, .T. ) ;
#79 = EDGE_CURVE ( 'NONE', #474, #478, #223, .T. ) ;
#80 = EDGE_CURVE ( 'NONE', #474, #477, #231, .T. ) ;
#81 = EDGE_CURVE ( 'NONE', #478, #475, #233, .T. ) ;
#82 = EDGE_CURVE ( 'NONE', #472, #475, #240, .T. ) ;
#83 = EDGE_CURVE ( 'NONE', #472, #474, #227, .T. ) ;
#84 = EDGE_CURVE ( 'NONE', #510, #475, #228, .T. ) ;
#85 = EDGE_CURVE ( 'NONE', #517, #472, #42, .T. ) ;
#86 = EDGE_CURVE ( 'NONE', #350, #496, #149, .T. ) ;
#87 = EDGE_CURVE ( 'NONE', #350, #489, #225, .T. ) ;
#88 = EDGE_CURVE ( 'NONE', #489, #522, #53, .T. ) ;
#89 = EDGE_CURVE ( 'NONE', #502, #485, #54, .T. ) ;
#90 = EDGE_CURVE ( 'NONE', #485, #471, #883, .T. ) ;
#91 = EDGE_CURVE ( 'NONE', #515, #471, #61, .T. ) ;
#92 = EDGE_CURVE ( 'NONE', #515, #496, #632, .T. ) ;
#93 = EDGE_CURVE ( 'NONE', #350, #468, #631, .T. ) ;
#94 = EDGE_CURVE ( 'NONE', #468, #497, #637, .T. ) ;
#95 = EDGE_CURVE ( 'NONE', #497, #480, #636, .T. ) ;
#96 = EDGE_CURVE ( 'NONE', #470, #480, #639, .T. ) ;
#97 = EDGE_CURVE ( 'NONE', #508, #470, #634, .T. ) ;
#98 = EDGE_CURVE ( 'NONE', #489, #504, #641, .T. ) ;
#99 = EDGE_CURVE ( 'NONE', #496, #499, #645, .T. ) ;
#100 = EDGE_CURVE ( 'NONE', #515, #513, #647, .T. ) ;
#101 = EDGE_CURVE ( 'NONE', #513, #494, #643, .T. ) ;
#102 = EDGE_CURVE ( 'NONE', #494, #499, #651, .T. ) ;
#103 = EDGE_CURVE ( 'NONE', #512, #470, #653, .T. ) ;
#104 = EDGE_CURVE ( 'NONE', #509, #512, #655, .T. ) ;
#105 = EDGE_CURVE ( 'NONE', #490, #480, #649, .T. ) ;
#106 = EDGE_CURVE ( 'NONE', #512, #490, #657, .T. ) ;
#107 = EDGE_CURVE ( 'NONE', #473, #497, #661, .T. ) ;
#108 = EDGE_CURVE ( 'NONE', #473, #490, #659, .T. ) ;
#109 = EDGE_CURVE ( 'NONE', #500, #501, #665, .T. ) ;
#110 = EDGE_CURVE ( 'NONE', #520, #468, #667, .T. ) ;
#111 = EDGE_CURVE ( 'NONE', #492, #520, #668, .T. ) ;
#112 = EDGE_CURVE ( 'NONE', #492, #473, #663, .T. ) ;
#113 = EDGE_CURVE ( 'NONE', #520, #469, #672, .T. ) ;
#114 = EDGE_CURVE ( 'NONE', #493, #469, #674, .T. ) ;
#115 = EDGE_CURVE ( 'NONE', #492, #493, #670, .T. ) ;
#116 = EDGE_CURVE ( 'NONE', #469, #521, #678, .T. ) ;
#117 = EDGE_CURVE ( 'NONE', #519, #521, #680, .T. ) ;
#118 = EDGE_CURVE ( 'NONE', #493, #519, #676, .T. ) ;
#119 = EDGE_CURVE ( 'NONE', #521, #484, #684, .T. ) ;
#120 = EDGE_CURVE ( 'NONE', #483, #484, #686, .T. ) ;
#121 = EDGE_CURVE ( 'NONE', #519, #483, #682, .T. ) ;
#122 = EDGE_CURVE ( 'NONE', #484, #481, #690, .T. ) ;
#123 = EDGE_CURVE ( 'NONE', #482, #481, #692, .T. ) ;
#124 = EDGE_CURVE ( 'NONE', #483, #482, #688, .T. ) ;
#125 = EDGE_CURVE ( 'NONE', #481, #499, #696, .T. ) ;
#126 = EDGE_CURVE ( 'NONE', #482, #494, #698, .T. ) ;
#127 = EDGE_CURVE ( 'NONE', #513, #476, #700, .T. ) ;
#128 = EDGE_CURVE ( 'NONE', #476, #479, #702, .T. ) ;
#129 = EDGE_CURVE ( 'NONE', #488, #479, #704, .T. ) ;
#130 = EDGE_CURVE ( 'NONE', #479, #485, #705, .T. ) ;
#131 = EDGE_CURVE ( 'NONE', #471, #476, #707, .T. ) ;
#132 = EDGE_CURVE ( 'NONE', #506, #507, #709, .T. ) ;
#133 = EDGE_CURVE ( 'NONE', #505, #503, #694, .T. ) ;
#134 = EDGE_CURVE ( 'NONE', #517, #510, #711, .T. ) ;
#135 = EDGE_CURVE ( 'NONE', #495, #498, #712, .T. ) ;
#136 = EDGE_CURVE ( 'NONE', #514, #516, #715, .T. ) ;
#137 = EDGE_CURVE ( 'NONE', #518, #506, #713, .T. ) ;
#138 = EDGE_CURVE ( 'NONE', #517, #509, #718, .T. ) ;
#139 = AXIS2_PLACEMENT_3D ( 'NONE', #1298, #1299, #1300 ) ;
#140 = AXIS2_PLACEMENT_3D ( 'NONE', #1295, #1296, #1297 ) ;
#141 = AXIS2_PLACEMENT_3D ( 'NONE', #1212, #1213, #1214 ) ;
#142 = AXIS2_PLACEMENT_3D ( 'NONE', #1204, #1205, #1206 ) ;
#143 = AXIS2_PLACEMENT_3D ( 'NONE', #1199, #1200, #1201 ) ;
#144 = UNCERTAINTY_MEASURE_WITH_UNIT (LENGTH_MEASURE( 1.000000000000000100E-005 ), #1301, 'distance_accuracy_value', 'NONE');
#145 = UNCERTAINTY_MEASURE_WITH_UNIT (LENGTH_MEASURE( 1.000000000000000100E-005 ), #1310, 'distance_accuracy_value', 'NONE');
#146 = UNCERTAINTY_MEASURE_WITH_UNIT (LENGTH_MEASURE( 1.000000000000000100E-005 ), #1289, 'distance_accuracy_value', 'NONE');
#147 = MANIFOLD_SOLID_BREP ( 'Fillet1', #467 ) ;
#148 = ADVANCED_BREP_SHAPE_REPRESENTATION ( '', ( #147, #59 ), #60 ) ;
#149 = LINE ( 'NONE', #1105, #902 ) ;
#150 = PERSON_AND_ORGANIZATION_ROLE ( 'classification_officer' ) ;
#151 = DATE_TIME_ROLE ( 'classification_date' ) ;
#152 = APPROVAL_ROLE ( '' ) ;
#153 = APPROVAL_STATUS ( 'not_yet_approved' ) ;
#154 = SECURITY_CLASSIFICATION_LEVEL ( 'unclassified' ) ;
#155 =( REPRESENTATION_RELATIONSHIP ('NONE','NONE', #57, #56 ) REPRESENTATION_RELATIONSHIP_WITH_TRANSFORMATION ( #856 )SHAPE_REPRESENTATION_RELATIONSHIP( ) );
#156 = PERSON_AND_ORGANIZATION_ROLE ( 'classification_officer' ) ;
#157 = DATE_TIME_ROLE ( 'classification_date' ) ;
#158 = APPROVAL_ROLE ( '' ) ;
#159 = APPROVAL_STATUS ( 'not_yet_approved' ) ;
#160 = SECURITY_CLASSIFICATION_LEVEL ( 'unclassified' ) ;
#161 =( REPRESENTATION_RELATIONSHIP ('NONE','NONE', #58, #57 ) REPRESENTATION_RELATIONSHIP_WITH_TRANSFORMATION ( #841 )SHAPE_REPRESENTATION_RELATIONSHIP( ) );
#162 = APPROVAL_ROLE ( '' ) ;
#163 = APPROVAL_STATUS ( 'not_yet_approved' ) ;
#164 = DATE_TIME_ROLE ( 'classification_date' ) ;
#165 = PERSON_AND_ORGANIZATION_ROLE ( 'classification_officer' ) ;
#166 = SECURITY_CLASSIFICATION_LEVEL ( 'unclassified' ) ;
#167 = PERSON_AND_ORGANIZATION_ROLE ( 'design_supplier' ) ;
#168 = PERSON_AND_ORGANIZATION_ROLE ( 'creator' ) ;
#169 = APPLICATION_CONTEXT ( 'configuration controlled 3d designs of mechanical parts and assemblies' ) ;
#170 = PERSON_AND_ORGANIZATION_ROLE ( 'creator' ) ;
#171 = APPROVAL_STATUS ( 'not_yet_approved' ) ;
#172 = APPROVAL_STATUS ( 'not_yet_approved' ) ;
#173 = APPROVAL_STATUS ( 'not_yet_approved' ) ;
#174 = APPLICATION_CONTEXT ( 'configuration controlled 3d designs of mechanical parts and assemblies' ) ;
#175 = APPLICATION_CONTEXT ( 'configuration controlled 3d designs of mechanical parts and assemblies' ) ;
#176 = APPROVAL_STATUS ( 'not_yet_approved' ) ;
#177 = APPLICATION_CONTEXT ( 'configuration controlled 3d designs of mechanical parts and assemblies' ) ;
#178 = APPLICATION_PROTOCOL_DEFINITION ( 'international standard', 'config_control_design', 1994, #169 ) ;
#179 = DATE_TIME_ROLE ( 'creation_date' ) ;
#180 = APPLICATION_PROTOCOL_DEFINITION ( 'international standard', 'config_control_design', 1994, #213 ) ;
#181 = PERSON_AND_ORGANIZATION_ROLE ( 'design_supplier' ) ;
#182 = PERSON_AND_ORGANIZATION_ROLE ( 'creator' ) ;
#183 = APPLICATION_CONTEXT ( 'configuration controlled 3d designs of mechanical parts and assemblies' ) ;
#184 = APPROVAL_ROLE ( '' ) ;
#185 = APPROVAL_STATUS ( 'not_yet_approved' ) ;
#186 = DATE_TIME_ROLE ( 'creation_date' ) ;
#187 = SECURITY_CLASSIFICATION_LEVEL ( 'unclassified' ) ;
#188 = PERSON_AND_ORGANIZATION_ROLE ( 'creator' ) ;
#189 = APPROVAL_ROLE ( '' ) ;
#190 = DATE_TIME_ROLE ( 'classification_date' ) ;
#191 = MECHANICAL_CONTEXT ( 'NONE', #183, 'mechanical' ) ;
#192 = APPROVAL_ROLE ( '' ) ;
#193 = APPROVAL_ROLE ( '' ) ;
#194 = APPROVAL_ROLE ( '' ) ;
#195 = MECHANICAL_CONTEXT ( 'NONE', #213, 'mechanical' ) ;
#196 = APPROVAL_STATUS ( 'not_yet_approved' ) ;
#197 = PERSON_AND_ORGANIZATION_ROLE ( 'design_owner' ) ;
#198 = PERSON_AND_ORGANIZATION_ROLE ( 'design_owner' ) ;
#199 = APPLICATION_PROTOCOL_DEFINITION ( 'international standard', 'config_control_design', 1994, #175 ) ;
#200 = PERSON_AND_ORGANIZATION_ROLE ( 'classification_officer' ) ;
#201 = PERSON_AND_ORGANIZATION_ROLE ( 'creator' ) ;
#202 = APPROVAL_ROLE ( '' ) ;
#203 = APPROVAL_ROLE ( '' ) ;
#204 = PERSON_AND_ORGANIZATION_ROLE ( 'design_owner' ) ;
#205 = APPLICATION_PROTOCOL_DEFINITION ( 'international standard', 'config_control_design', 1994, #177 ) ;
#206 = PERSON_AND_ORGANIZATION_ROLE ( 'classification_officer' ) ;
#207 = PERSON_AND_ORGANIZATION_ROLE ( 'creator' ) ;
#208 = APPROVAL_STATUS ( 'not_yet_approved' ) ;
#209 = DATE_TIME_ROLE ( 'creation_date' ) ;
#210 = APPLICATION_PROTOCOL_DEFINITION ( 'international standard', 'config_control_design', 1994, #174 ) ;
#211 = MECHANICAL_CONTEXT ( 'NONE', #177, 'mechanical' ) ;
#212 = SECURITY_CLASSIFICATION_LEVEL ( 'unclassified' ) ;
#213 = APPLICATION_CONTEXT ( 'configuration controlled 3d designs of mechanical parts and assemblies' ) ;
#214 = APPROVAL_ROLE ( '' ) ;
#215 = DATE_TIME_ROLE ( 'classification_date' ) ;
#216 = PERSON_AND_ORGANIZATION_ROLE ( 'design_supplier' ) ;
#217 = APPROVAL_STATUS ( 'not_yet_approved' ) ;
#218 = APPLICATION_PROTOCOL_DEFINITION ( 'international standard', 'config_control_design', 1994, #183 ) ;
#219 = LINE ( 'NONE', #1081, #243 ) ;
#220 = LINE ( 'NONE', #1073, #232 ) ;
#221 = LINE ( 'NONE', #1075, #244 ) ;
#222 = VECTOR ( 'NONE', #1100, 1000.000000000000000 ) ;
#223 = LINE ( 'NONE', #1091, #226 ) ;
#224 = LINE ( 'NONE', #1085, #235 ) ;
#225 = LINE ( 'NONE', #1098, #237 ) ;
#226 = VECTOR ( 'NONE', #1093, 1000.000000000000000 ) ;
#227 = LINE ( 'NONE', #1086, #222 ) ;
#228 = LINE ( 'NONE', #1101, #245 ) ;
#229 = VECTOR ( 'NONE', #1094, 1000.000000000000000 ) ;
#230 = LINE ( 'NONE', #1071, #241 ) ;
#231 = LINE ( 'NONE', #1082, #229 ) ;
#232 = VECTOR ( 'NONE', #1084, 1000.000000000000000 ) ;
#233 = LINE ( 'NONE', #1095, #236 ) ;
#234 = VECTOR ( 'NONE', #1090, 1000.000000000000000 ) ;
#235 = VECTOR ( 'NONE', #1087, 1000.000000000000000 ) ;
#236 = VECTOR ( 'NONE', #1096, 1000.000000000000100 ) ;
#237 = VECTOR ( 'NONE', #1108, 1000.000000000000000 ) ;
#238 = LINE ( 'NONE', #1089, #234 ) ;
#239 = VECTOR ( 'NONE', #1080, 1000.000000000000000 ) ;
#240 = LINE ( 'NONE', #1097, #242 ) ;
#241 = VECTOR ( 'NONE', #1078, 1000.000000000000100 ) ;
#242 = VECTOR ( 'NONE', #1099, 1000.000000000000000 ) ;
#243 = VECTOR ( 'NONE', #1083, 1000.000000000000000 ) ;
#244 = VECTOR ( 'NONE', #1077, 1000.000000000000000 ) ;
#245 = VECTOR ( 'NONE', #1103, 1000.000000000000000 ) ;
#246 = LINE ( 'NONE', #1079, #239 ) ;
#247 = VECTOR ( 'NONE', #1088, 1000.000000000000000 ) ;
#248 = LINE ( 'NONE', #1076, #247 ) ;
#249 = AXIS2_PLACEMENT_3D ( 'NONE', #1040, #1049, #1050 ) ;
#250 = AXIS2_PLACEMENT_3D ( 'NONE', #1115, #1116, #1117 ) ;
#251 = AXIS2_PLACEMENT_3D ( 'NONE', #1058, #1059, #1060 ) ;
#252 = AXIS2_PLACEMENT_3D ( 'NONE', #1191, #1192, #1193 ) ;
#253 = AXIS2_PLACEMENT_3D ( 'NONE', #1064, #1065, #1066 ) ;
#254 = AXIS2_PLACEMENT_3D ( 'NONE', #1044, #1052, #1053 ) ;
#255 = AXIS2_PLACEMENT_3D ( 'NONE', #1036, #1045, #1046 ) ;
#256 = AXIS2_PLACEMENT_3D ( 'NONE', #1154, #1155, #1156 ) ;
#257 = AXIS2_PLACEMENT_3D ( 'NONE', #1032, #1041, #1042 ) ;
#258 = AXIS2_PLACEMENT_3D ( 'NONE', #952, #979, #1007 ) ;
#259 = AXIS2_PLACEMENT_3D ( 'NONE', #1012, #970, #969 ) ;
#260 = AXIS2_PLACEMENT_3D ( 'NONE', #963, #968, #975 ) ;
#261 = AXIS2_PLACEMENT_3D ( 'NONE', #958, #967, #971 ) ;
#262 = AXIS2_PLACEMENT_3D ( 'NONE', #1009, #932, #1001 ) ;
#263 = AXIS2_PLACEMENT_3D ( 'NONE', #934, #1003, #1002 ) ;
#264 = AXIS2_PLACEMENT_3D ( 'NONE', #1016, #1022, #1023 ) ;
#265 = AXIS2_PLACEMENT_3D ( 'NONE', #1025, #1024, #1017 ) ;
#266 = AXIS2_PLACEMENT_3D ( 'NONE', #1006, #939, #941 ) ;
#267 = AXIS2_PLACEMENT_3D ( 'NONE', #994, #956, #957 ) ;
#268 = AXIS2_PLACEMENT_3D ( 'NONE', #990, #986, #996 ) ;
#269 = AXIS2_PLACEMENT_3D ( 'NONE', #989, #982, #983 ) ;
#270 = AXIS2_PLACEMENT_3D ( 'NONE', #1005, #991, #992 ) ;
#271 = EDGE_CURVE ( 'NONE', #503, #501, #717, .T. ) ;
#272 = AXIS2_PLACEMENT_3D ( 'NONE', #985, #1008, #997 ) ;
#273 = AXIS2_PLACEMENT_3D ( 'NONE', #981, #1004, #1010 ) ;
#274 = AXIS2_PLACEMENT_3D ( 'NONE', #1021, #1029, #1030 ) ;
#275 = AXIS2_PLACEMENT_3D ( 'NONE', #959, #955, #948 ) ;
#276 = AXIS2_PLACEMENT_3D ( 'NONE', #1027, #1033, #1034 ) ;
#277 = AXIS2_PLACEMENT_3D ( 'NONE', #930, #995, #987 ) ;
#278 = AXIS2_PLACEMENT_3D ( 'NONE', #950, #946, #947 ) ;
#279 = AXIS2_PLACEMENT_3D ( 'NONE', #999, #937, #954 ) ;
#280 = AXIS2_PLACEMENT_3D ( 'NONE', #951, #961, #960 ) ;
#281 = AXIS2_PLACEMENT_3D ( 'NONE', #938, #965, #966 ) ;
#282 = AXIS2_PLACEMENT_3D ( 'NONE', #945, #944, #943 ) ;
#283 = EDGE_CURVE ( 'NONE', #504, #510, #720, .T. ) ;
#284 = AXIS2_PLACEMENT_3D ( 'NONE', #1011, #1018, #1019 ) ;
#285 = AXIS2_PLACEMENT_3D ( 'NONE', #935, #978, #977 ) ;
#286 = AXIS2_PLACEMENT_3D ( 'NONE', #964, #974, #973 ) ;
#287 = EDGE_CURVE ( 'NONE', #509, #508, #723, .T. ) ;
#288 = EDGE_CURVE ( 'NONE', #504, #508, #725, .T. ) ;
#289 = EDGE_CURVE ( 'NONE', #501, #500, #727, .T. ) ;
#290 = EDGE_CURVE ( 'NONE', #491, #505, #729, .T. ) ;
#291 = EDGE_CURVE ( 'NONE', #506, #514, #730, .T. ) ;
#292 = EDGE_CURVE ( 'NONE', #516, #514, #732, .T. ) ;
#293 = AXIS2_PLACEMENT_3D ( 'NONE', #1014, #1013, #1000 ) ;
#294 = AXIS2_PLACEMENT_3D ( 'NONE', #1028, #1037, #1038 ) ;
#295 = ORIENTED_EDGE ( 'NONE', *, *, #81, .F. ) ;
#296 = ORIENTED_EDGE ( 'NONE', *, *, #112, .F. ) ;
#297 = ORIENTED_EDGE ( 'NONE', *, *, #72, .F. ) ;
#298 = ORIENTED_EDGE ( 'NONE', *, *, #121, .T. ) ;
#299 = FACE_OUTER_BOUND ( 'NONE', #534, .T. ) ;
#300 = ORIENTED_EDGE ( 'NONE', *, *, #126, .F. ) ;
#301 = ORIENTED_EDGE ( 'NONE', *, *, #85, .F. ) ;
#302 = ORIENTED_EDGE ( 'NONE', *, *, #78, .F. ) ;
#303 = ORIENTED_EDGE ( 'NONE', *, *, #283, .T. ) ;
#304 = ORIENTED_EDGE ( 'NONE', *, *, #104, .T. ) ;
#305 = ORIENTED_EDGE ( 'NONE', *, *, #138, .T. ) ;
#306 = ORIENTED_EDGE ( 'NONE', *, *, #80, .F. ) ;
#307 = ORIENTED_EDGE ( 'NONE', *, *, #83, .F. ) ;
#308 = ORIENTED_EDGE ( 'NONE', *, *, #120, .T. ) ;
#309 = ORIENTED_EDGE ( 'NONE', *, *, #122, .T. ) ;
#310 = ORIENTED_EDGE ( 'NONE', *, *, #114, .F. ) ;
#311 = ORIENTED_EDGE ( 'NONE', *, *, #113, .T. ) ;
#312 = ORIENTED_EDGE ( 'NONE', *, *, #123, .T. ) ;
#313 = ORIENTED_EDGE ( 'NONE', *, *, #124, .F. ) ;
#314 = ORIENTED_EDGE ( 'NONE', *, *, #123, .F. ) ;
#315 = ORIENTED_EDGE ( 'NONE', *, *, #67, .F. ) ;
#316 = ORIENTED_EDGE ( 'NONE', *, *, #129, .F. ) ;
#317 = ORIENTED_EDGE ( 'NONE', *, *, #128, .T. ) ;
#318 = ORIENTED_EDGE ( 'NONE', *, *, #127, .T. ) ;
#319 = ORIENTED_EDGE ( 'NONE', *, *, #115, .F. ) ;
#320 = ORIENTED_EDGE ( 'NONE', *, *, #94, .F. ) ;
#321 = ORIENTED_EDGE ( 'NONE', *, *, #111, .T. ) ;
#322 = ORIENTED_EDGE ( 'NONE', *, *, #102, .F. ) ;
#323 = ORIENTED_EDGE ( 'NONE', *, *, #125, .T. ) ;
#324 = ORIENTED_EDGE ( 'NONE', *, *, #73, .F. ) ;
#325 = ORIENTED_EDGE ( 'NONE', *, *, #120, .F. ) ;
#326 = ORIENTED_EDGE ( 'NONE', *, *, #121, .F. ) ;
#327 = ORIENTED_EDGE ( 'NONE', *, *, #111, .F. ) ;
#328 = ORIENTED_EDGE ( 'NONE', *, *, #112, .T. ) ;
#329 = ORIENTED_EDGE ( 'NONE', *, *, #107, .T. ) ;
#330 = ORIENTED_EDGE ( 'NONE', *, *, #119, .T. ) ;
#331 = ORIENTED_EDGE ( 'NONE', *, *, #117, .T. ) ;
#332 = ORIENTED_EDGE ( 'NONE', *, *, #87, .F. ) ;
#333 = ORIENTED_EDGE ( 'NONE', *, *, #90, .T. ) ;
#334 = ORIENTED_EDGE ( 'NONE', *, *, #74, .T. ) ;
#335 = ORIENTED_EDGE ( 'NONE', *, *, #91, .F. ) ;
#336 = ORIENTED_EDGE ( 'NONE', *, *, #106, .T. ) ;
#337 = ORIENTED_EDGE ( 'NONE', *, *, #95, .T. ) ;
#338 = ORIENTED_EDGE ( 'NONE', *, *, #96, .F. ) ;
#339 = ORIENTED_EDGE ( 'NONE', *, *, #93, .T. ) ;
#340 = ORIENTED_EDGE ( 'NONE', *, *, #94, .T. ) ;
#341 = ORIENTED_EDGE ( 'NONE', *, *, #92, .T. ) ;
#342 = ORIENTED_EDGE ( 'NONE', *, *, #116, .T. ) ;
#343 = ORIENTED_EDGE ( 'NONE', *, *, #114, .T. ) ;
#344 = ORIENTED_EDGE ( 'NONE', *, *, #118, .T. ) ;
#345 = ORIENTED_EDGE ( 'NONE', *, *, #109, .T. ) ;
#346 = ORIENTED_EDGE ( 'NONE', *, *, #100, .T. ) ;
#347 = ORIENTED_EDGE ( 'NONE', *, *, #117, .F. ) ;
#348 = ORIENTED_EDGE ( 'NONE', *, *, #118, .F. ) ;
#349 = ORIENTED_EDGE ( 'NONE', *, *, #77, .F. ) ;
#350 = VERTEX_POINT ( 'NONE', #1234 ) ;
#351 = ORIENTED_EDGE ( 'NONE', *, *, #89, .T. ) ;
#352 = ORIENTED_EDGE ( 'NONE', *, *, #74, .F. ) ;
#353 = ORIENTED_EDGE ( 'NONE', *, *, #62, .T. ) ;
#354 = ORIENTED_EDGE ( 'NONE', *, *, #84, .T. ) ;
#355 = ORIENTED_EDGE ( 'NONE', *, *, #86, .T. ) ;
#356 = ORIENTED_EDGE ( 'NONE', *, *, #72, .T. ) ;
#357 = ORIENTED_EDGE ( 'NONE', *, *, #288, .T. ) ;
#358 = ORIENTED_EDGE ( 'NONE', *, *, #76, .F. ) ;
#359 = ORIENTED_EDGE ( 'NONE', *, *, #69, .T. ) ;
#360 = ORIENTED_EDGE ( 'NONE', *, *, #87, .T. ) ;
#361 = ORIENTED_EDGE ( 'NONE', *, *, #134, .T. ) ;
#362 = ORIENTED_EDGE ( 'NONE', *, *, #67, .T. ) ;
#363 = ORIENTED_EDGE ( 'NONE', *, *, #69, .F. ) ;
#364 = ORIENTED_EDGE ( 'NONE', *, *, #65, .T. ) ;
#365 = ORIENTED_EDGE ( 'NONE', *, *, #70, .T. ) ;
#366 = ORIENTED_EDGE ( 'NONE', *, *, #283, .F. ) ;
#367 = ORIENTED_EDGE ( 'NONE', *, *, #133, .F. ) ;
#368 = ORIENTED_EDGE ( 'NONE', *, *, #101, .T. ) ;
#369 = ORIENTED_EDGE ( 'NONE', *, *, #126, .T. ) ;
#370 = ORIENTED_EDGE ( 'NONE', *, *, #99, .T. ) ;
#371 = ORIENTED_EDGE ( 'NONE', *, *, #79, .T. ) ;
#372 = ORIENTED_EDGE ( 'NONE', *, *, #63, .T. ) ;
#373 = ORIENTED_EDGE ( 'NONE', *, *, #135, .T. ) ;
#374 = ORIENTED_EDGE ( 'NONE', *, *, #71, .F. ) ;
#375 = ORIENTED_EDGE ( 'NONE', *, *, #70, .F. ) ;
#376 = ORIENTED_EDGE ( 'NONE', *, *, #88, .F. ) ;
#377 = ORIENTED_EDGE ( 'NONE', *, *, #71, .T. ) ;
#378 = ORIENTED_EDGE ( 'NONE', *, *, #292, .F. ) ;
#379 = ORIENTED_EDGE ( 'NONE', *, *, #135, .F. ) ;
#380 = ORIENTED_EDGE ( 'NONE', *, *, #138, .F. ) ;
#381 = ORIENTED_EDGE ( 'NONE', *, *, #136, .F. ) ;
#382 = ORIENTED_EDGE ( 'NONE', *, *, #287, .F. ) ;
#383 = ORIENTED_EDGE ( 'NONE', *, *, #73, .T. ) ;
#384 = ORIENTED_EDGE ( 'NONE', *, *, #127, .F. ) ;
#385 = ORIENTED_EDGE ( 'NONE', *, *, #100, .F. ) ;
#386 = ORIENTED_EDGE ( 'NONE', *, *, #91, .T. ) ;
#387 = ORIENTED_EDGE ( 'NONE', *, *, #68, .T. ) ;
#388 = ORIENTED_EDGE ( 'NONE', *, *, #89, .F. ) ;
#389 = ORIENTED_EDGE ( 'NONE', *, *, #129, .T. ) ;
#390 = ORIENTED_EDGE ( 'NONE', *, *, #131, .T. ) ;
#391 = ORIENTED_EDGE ( 'NONE', *, *, #110, .T. ) ;
#392 = ORIENTED_EDGE ( 'NONE', *, *, #93, .F. ) ;
#393 = ORIENTED_EDGE ( 'NONE', *, *, #132, .T. ) ;
#394 = ORIENTED_EDGE ( 'NONE', *, *, #64, .F. ) ;
#395 = ORIENTED_EDGE ( 'NONE', *, *, #271, .F. ) ;
#396 = ORIENTED_EDGE ( 'NONE', *, *, #290, .T. ) ;
#397 = ORIENTED_EDGE ( 'NONE', *, *, #115, .T. ) ;
#398 = ORIENTED_EDGE ( 'NONE', *, *, #136, .T. ) ;
#399 = ORIENTED_EDGE ( 'NONE', *, *, #291, .T. ) ;
#400 = ORIENTED_EDGE ( 'NONE', *, *, #133, .T. ) ;
#401 = ORIENTED_EDGE ( 'NONE', *, *, #66, .F. ) ;
#402 = ORIENTED_EDGE ( 'NONE', *, *, #132, .F. ) ;
#403 = ORIENTED_EDGE ( 'NONE', *, *, #137, .T. ) ;
#404 = ORIENTED_EDGE ( 'NONE', *, *, #75, .F. ) ;
#405 = ORIENTED_EDGE ( 'NONE', *, *, #290, .F. ) ;
#406 = ORIENTED_EDGE ( 'NONE', *, *, #289, .T. ) ;
#407 = ORIENTED_EDGE ( 'NONE', *, *, #113, .F. ) ;
#408 = ORIENTED_EDGE ( 'NONE', *, *, #124, .T. ) ;
#409 = ORIENTED_EDGE ( 'NONE', *, *, #63, .F. ) ;
#410 = ORIENTED_EDGE ( 'NONE', *, *, #85, .T. ) ;
#411 = ORIENTED_EDGE ( 'NONE', *, *, #83, .T. ) ;
#412 = ORIENTED_EDGE ( 'NONE', *, *, #271, .T. ) ;
#413 = ORIENTED_EDGE ( 'NONE', *, *, #86, .F. ) ;
#414 = ORIENTED_EDGE ( 'NONE', *, *, #134, .F. ) ;
#415 = ORIENTED_EDGE ( 'NONE', *, *, #82, .F. ) ;
#416 = ORIENTED_EDGE ( 'NONE', *, *, #80, .T. ) ;
#417 = ORIENTED_EDGE ( 'NONE', *, *, #82, .T. ) ;
#418 = ORIENTED_EDGE ( 'NONE', *, *, #84, .F. ) ;
#419 = ORIENTED_EDGE ( 'NONE', *, *, #102, .T. ) ;
#420 = ORIENTED_EDGE ( 'NONE', *, *, #81, .T. ) ;
#421 = ORIENTED_EDGE ( 'NONE', *, *, #62, .F. ) ;
#422 = ORIENTED_EDGE ( 'NONE', *, *, #68, .F. ) ;
#423 = ORIENTED_EDGE ( 'NONE', *, *, #77, .T. ) ;
#424 = ORIENTED_EDGE ( 'NONE', *, *, #75, .T. ) ;
#425 = ORIENTED_EDGE ( 'NONE', *, *, #98, .T. ) ;
#426 = ORIENTED_EDGE ( 'NONE', *, *, #137, .F. ) ;
#427 = ORIENTED_EDGE ( 'NONE', *, *, #292, .T. ) ;
#428 = ORIENTED_EDGE ( 'NONE', *, *, #291, .F. ) ;
#429 = ORIENTED_EDGE ( 'NONE', *, *, #65, .F. ) ;
#430 = ORIENTED_EDGE ( 'NONE', *, *, #78, .T. ) ;
#431 = ORIENTED_EDGE ( 'NONE', *, *, #99, .F. ) ;
#432 = ORIENTED_EDGE ( 'NONE', *, *, #76, .T. ) ;
#433 = ORIENTED_EDGE ( 'NONE', *, *, #98, .F. ) ;
#434 = ORIENTED_EDGE ( 'NONE', *, *, #88, .T. ) ;
#435 = ORIENTED_EDGE ( 'NONE', *, *, #130, .T. ) ;
#436 = ORIENTED_EDGE ( 'NONE', *, *, #108, .F. ) ;
#437 = ORIENTED_EDGE ( 'NONE', *, *, #79, .F. ) ;
#438 = ORIENTED_EDGE ( 'NONE', *, *, #116, .F. ) ;
#439 = ORIENTED_EDGE ( 'NONE', *, *, #122, .F. ) ;
#440 = ORIENTED_EDGE ( 'NONE', *, *, #119, .F. ) ;
#441 = ORIENTED_EDGE ( 'NONE', *, *, #66, .T. ) ;
#442 = ORIENTED_EDGE ( 'NONE', *, *, #64, .T. ) ;
#443 = ORIENTED_EDGE ( 'NONE', *, *, #101, .F. ) ;
#444 = ORIENTED_EDGE ( 'NONE', *, *, #288, .F. ) ;
#445 = ORIENTED_EDGE ( 'NONE', *, *, #97, .F. ) ;
#446 = ORIENTED_EDGE ( 'NONE', *, *, #92, .F. ) ;
#447 = ORIENTED_EDGE ( 'NONE', *, *, #125, .F. ) ;
#448 = ORIENTED_EDGE ( 'NONE', *, *, #97, .T. ) ;
#449 = ORIENTED_EDGE ( 'NONE', *, *, #103, .F. ) ;
#450 = ORIENTED_EDGE ( 'NONE', *, *, #104, .F. ) ;
#451 = ORIENTED_EDGE ( 'NONE', *, *, #103, .T. ) ;
#452 = ORIENTED_EDGE ( 'NONE', *, *, #90, .F. ) ;
#453 = ORIENTED_EDGE ( 'NONE', *, *, #130, .F. ) ;
#454 = ORIENTED_EDGE ( 'NONE', *, *, #96, .T. ) ;
#455 = ORIENTED_EDGE ( 'NONE', *, *, #131, .F. ) ;
#456 = ORIENTED_EDGE ( 'NONE', *, *, #107, .F. ) ;
#457 = ORIENTED_EDGE ( 'NONE', *, *, #108, .T. ) ;
#458 = ORIENTED_EDGE ( 'NONE', *, *, #105, .T. ) ;
#459 = ORIENTED_EDGE ( 'NONE', *, *, #109, .F. ) ;
#460 = ORIENTED_EDGE ( 'NONE', *, *, #289, .F. ) ;
#461 = ORIENTED_EDGE ( 'NONE', *, *, #110, .F. ) ;
#462 = ORIENTED_EDGE ( 'NONE', *, *, #287, .T. ) ;
#463 = ORIENTED_EDGE ( 'NONE', *, *, #128, .F. ) ;
#464 = ORIENTED_EDGE ( 'NONE', *, *, #105, .F. ) ;
#465 = ORIENTED_EDGE ( 'NONE', *, *, #95, .F. ) ;
#466 = ORIENTED_EDGE ( 'NONE', *, *, #106, .F. ) ;
#467 = CLOSED_SHELL ( 'NONE', ( #9, #7, #11, #12, #8, #10, #13, #14, #15, #16, #17, #24, #22, #20, #23, #18, #19, #21, #30, #36, #35, #31, #27, #37, #33, #34, #38, #39, #26, #25, #28, #29, #32 ) ) ;
#468 = VERTEX_POINT ( 'NONE', #1232 ) ;
#469 = VERTEX_POINT ( 'NONE', #1233 ) ;
#470 = VERTEX_POINT ( 'NONE', #1239 ) ;
#471 = VERTEX_POINT ( 'NONE', #1226 ) ;
#472 = VERTEX_POINT ( 'NONE', #1240 ) ;
#473 = VERTEX_POINT ( 'NONE', #1225 ) ;
#474 = VERTEX_POINT ( 'NONE', #1241 ) ;
#475 = VERTEX_POINT ( 'NONE', #1238 ) ;
#476 = VERTEX_POINT ( 'NONE', #1242 ) ;
#477 = VERTEX_POINT ( 'NONE', #1243 ) ;
#478 = VERTEX_POINT ( 'NONE', #1244 ) ;
#479 = VERTEX_POINT ( 'NONE', #1245 ) ;
#480 = VERTEX_POINT ( 'NONE', #1246 ) ;
#481 = VERTEX_POINT ( 'NONE', #1247 ) ;
#482 = VERTEX_POINT ( 'NONE', #1248 ) ;
#483 = VERTEX_POINT ( 'NONE', #1249 ) ;
#484 = VERTEX_POINT ( 'NONE', #1250 ) ;
#485 = VERTEX_POINT ( 'NONE', #1251 ) ;
#486 = VERTEX_POINT ( 'NONE', #1252 ) ;
#487 = VERTEX_POINT ( 'NONE', #1253 ) ;
#488 = VERTEX_POINT ( 'NONE', #1254 ) ;
#489 = VERTEX_POINT ( 'NONE', #1255 ) ;
#490 = VERTEX_POINT ( 'NONE', #1256 ) ;
#491 = VERTEX_POINT ( 'NONE', #1257 ) ;
#492 = VERTEX_POINT ( 'NONE', #1258 ) ;
#493 = VERTEX_POINT ( 'NONE', #1259 ) ;
#494 = VERTEX_POINT ( 'NONE', #1260 ) ;
#495 = VERTEX_POINT ( 'NONE', #1261 ) ;
#496 = VERTEX_POINT ( 'NONE', #1262 ) ;
#497 = VERTEX_POINT ( 'NONE', #1263 ) ;
#498 = VERTEX_POINT ( 'NONE', #1264 ) ;
#499 = VERTEX_POINT ( 'NONE', #1265 ) ;
#500 = VERTEX_POINT ( 'NONE', #1266 ) ;
#501 = VERTEX_POINT ( 'NONE', #1267 ) ;
#502 = VERTEX_POINT ( 'NONE', #1268 ) ;
#503 = VERTEX_POINT ( 'NONE', #1269 ) ;
#504 = VERTEX_POINT ( 'NONE', #1270 ) ;
#505 = VERTEX_POINT ( 'NONE', #1271 ) ;
#506 = VERTEX_POINT ( 'NONE', #1272 ) ;
#507 = VERTEX_POINT ( 'NONE', #1273 ) ;
#508 = VERTEX_POINT ( 'NONE', #1274 ) ;
#509 = VERTEX_POINT ( 'NONE', #1275 ) ;
#510 = VERTEX_POINT ( 'NONE', #1276 ) ;
#511 = VERTEX_POINT ( 'NONE', #1277 ) ;
#512 = VERTEX_POINT ( 'NONE', #1278 ) ;
#513 = VERTEX_POINT ( 'NONE', #1279 ) ;
#514 = VERTEX_POINT ( 'NONE', #1280 ) ;
#515 = VERTEX_POINT ( 'NONE', #1281 ) ;
#516 = VERTEX_POINT ( 'NONE', #1282 ) ;
#517 = VERTEX_POINT ( 'NONE', #1283 ) ;
#518 = VERTEX_POINT ( 'NONE', #1284 ) ;
#519 = VERTEX_POINT ( 'NONE', #1285 ) ;
#520 = VERTEX_POINT ( 'NONE', #1286 ) ;
#521 = VERTEX_POINT ( 'NONE', #1287 ) ;
#522 = VERTEX_POINT ( 'NONE', #1288 ) ;
#523 = EDGE_LOOP ( 'NONE', ( #377, #356, #358, #423 ) ) ;
#524 = EDGE_LOOP ( 'NONE', ( #343, #342, #347, #348 ) ) ;
#525 = EDGE_LOOP ( 'NONE', ( #352, #365, #363, #362, #422 ) ) ;
#526 = EDGE_LOOP ( 'NONE', ( #429, #441, #427, #428 ) ) ;
#527 = EDGE_LOOP ( 'NONE', ( #404, #403, #393 ) ) ;
#528 = EDGE_LOOP ( 'NONE', ( #459, #460 ) ) ;
#529 = EDGE_LOOP ( 'NONE', ( #371, #420, #415, #411 ) ) ;
#530 = EDGE_LOOP ( 'NONE', ( #389, #435, #388, #387 ) ) ;
#531 = EDGE_LOOP ( 'NONE', ( #401, #402, #399, #398 ) ) ;
#532 = EDGE_LOOP ( 'NONE', ( #331, #330, #325, #326 ) ) ;
#533 = EDGE_LOOP ( 'NONE', ( #332, #339, #340, #337, #338, #445, #444, #433 ) ) ;
#534 = EDGE_LOOP ( 'NONE', ( #409, #412, #406, #421 ) ) ;
#535 = EDGE_LOOP ( 'NONE', ( #366, #357, #382, #380, #361 ) ) ;
#536 = EDGE_LOOP ( 'NONE', ( #431, #446, #346, #368, #419 ) ) ;
#537 = EDGE_LOOP ( 'NONE', ( #417, #418, #414, #410 ) ) ;
#538 = EDGE_LOOP ( 'NONE', ( #359, #379, #374, #383 ) ) ;
#539 = EDGE_LOOP ( 'NONE', ( #432, #430, #437, #416 ) ) ;
#540 = EDGE_LOOP ( 'NONE', ( #461, #327, #328, #329, #320 ) ) ;
#541 = EDGE_LOOP ( 'NONE', ( #465, #456, #457, #458 ) ) ;
#542 = EDGE_LOOP ( 'NONE', ( #321, #311, #310, #319 ) ) ;
#543 = EDGE_LOOP ( 'NONE', ( #355, #370, #447, #439, #440, #438, #407, #391, #392 ) ) ;
#544 = EDGE_LOOP ( 'NONE', ( #318, #317, #316, #315, #324, #349, #306, #307, #301, #305, #304, #336, #436, #296, #397, #344, #298, #408, #369, #443 ) ) ;
#545 = EDGE_LOOP ( 'NONE', ( #308, #309, #314, #313 ) ) ;
#546 = EDGE_LOOP ( 'NONE', ( #381, #378 ) ) ;
#547 = EDGE_LOOP ( 'NONE', ( #452, #453, #463, #455 ) ) ;
#548 = EDGE_LOOP ( 'NONE', ( #394, #396, #400 ) ) ;
#549 = EDGE_LOOP ( 'NONE', ( #395, #367, #353, #345 ) ) ;
#550 = EDGE_LOOP ( 'NONE', ( #373, #375, #376, #425, #303, #354, #295, #302, #297 ) ) ;
#551 = EDGE_LOOP ( 'NONE', ( #386, #390, #384, #385 ) ) ;
#552 = EDGE_LOOP ( 'NONE', ( #426, #424, #364 ) ) ;
#553 = EDGE_LOOP ( 'NONE', ( #413, #360, #434, #334, #351, #333, #335, #341 ) ) ;
#554 = EDGE_LOOP ( 'NONE', ( #462, #448, #449, #450 ) ) ;
#555 = EDGE_LOOP ( 'NONE', ( #451, #454, #464, #466 ) ) ;
#556 = EDGE_LOOP ( 'NONE', ( #405, #442, #372 ) ) ;
#557 = EDGE_LOOP ( 'NONE', ( #312, #323, #322, #300 ) ) ;
#558 = FACE_OUTER_BOUND ( 'NONE', #556, .T. ) ;
#559 = FACE_BOUND ( 'NONE', #546, .T. ) ;
#560 = AXIS2_PLACEMENT_3D ( 'NONE', #1304, #1305, #1306 ) ;
#561 = AXIS2_PLACEMENT_3D ( 'NONE', #1307, #1308, #1309 ) ;
#562 =( GEOMETRIC_REPRESENTATION_CONTEXT ( 3 ) GLOBAL_UNCERTAINTY_ASSIGNED_CONTEXT ( ( #145 ) ) GLOBAL_UNIT_ASSIGNED_CONTEXT ( ( #1310, #1311, #1312 ) ) REPRESENTATION_CONTEXT ( 'NONE', 'WORKASPACE' ) );
#563 = AXIS2_PLACEMENT_3D ( 'NONE', #1313, #857, #842 ) ;
#564 = CC_DESIGN_PERSON_AND_ORGANIZATION_ASSIGNMENT ( #773, #197, ( #3 ) ) ;
#565 = CC_DESIGN_PERSON_AND_ORGANIZATION_ASSIGNMENT ( #807, #204, ( #4 ) ) ;
#566 = SECURITY_CLASSIFICATION ( '', '', #160 ) ;
#567 = CC_DESIGN_PERSON_AND_ORGANIZATION_ASSIGNMENT ( #739, #198, ( #1 ) ) ;
#568 = PRODUCT_DEFINITION ( 'UNKNOWN', '', #573, #45 ) ;
#569 = APPROVAL ( #173, 'UNSPECIFIED' ) ;
#570 = CC_DESIGN_APPROVAL ( #569, ( #568 ) ) ;
#571 = CC_DESIGN_PERSON_AND_ORGANIZATION_ASSIGNMENT ( #747, #182, ( #568 ) ) ;
#572 = CC_DESIGN_DATE_AND_TIME_ASSIGNMENT ( #751, #209, ( #568 ) ) ;
#573 = PRODUCT_DEFINITION_FORMATION_WITH_SPECIFIED_SOURCE ( 'ANY', '', #1, .NOT_KNOWN. ) ;
#574 = APPROVAL ( #171, 'UNSPECIFIED' ) ;
#575 = CC_DESIGN_APPROVAL ( #574, ( #573 ) ) ;
#576 = CC_DESIGN_PERSON_AND_ORGANIZATION_ASSIGNMENT ( #759, #170, ( #573 ) ) ;
#577 = CC_DESIGN_PERSON_AND_ORGANIZATION_ASSIGNMENT ( #760, #181, ( #573 ) ) ;
#578 = SECURITY_CLASSIFICATION ( '', '', #187 ) ;
#579 = CC_DESIGN_PERSON_AND_ORGANIZATION_ASSIGNMENT ( #761, #206, ( #578 ) ) ;
#580 = CC_DESIGN_DATE_AND_TIME_ASSIGNMENT ( #765, #215, ( #578 ) ) ;
#581 = APPROVAL ( #172, 'UNSPECIFIED' ) ;
#582 = CC_DESIGN_APPROVAL ( #581, ( #578 ) ) ;
#583 = CC_DESIGN_SECURITY_CLASSIFICATION ( #578, ( #573 ) ) ;
#584 = PRODUCT_RELATED_PRODUCT_CATEGORY ( 'detail', '', ( #1 ) ) ;
#585 = PRODUCT_DEFINITION ( 'UNKNOWN', '', #590, #46 ) ;
#586 = APPROVAL ( #217, 'UNSPECIFIED' ) ;
#587 = CC_DESIGN_APPROVAL ( #586, ( #585 ) ) ;
#588 = CC_DESIGN_PERSON_AND_ORGANIZATION_ASSIGNMENT ( #781, #188, ( #585 ) ) ;
#589 = CC_DESIGN_DATE_AND_TIME_ASSIGNMENT ( #785, #186, ( #585 ) ) ;
#590 = PRODUCT_DEFINITION_FORMATION_WITH_SPECIFIED_SOURCE ( 'ANY', '', #3, .NOT_KNOWN. ) ;
#591 = APPROVAL ( #185, 'UNSPECIFIED' ) ;
#592 = CC_DESIGN_APPROVAL ( #591, ( #590 ) ) ;
#593 = CC_DESIGN_PERSON_AND_ORGANIZATION_ASSIGNMENT ( #793, #207, ( #590 ) ) ;
#594 = CC_DESIGN_PERSON_AND_ORGANIZATION_ASSIGNMENT ( #794, #216, ( #590 ) ) ;
#595 = SECURITY_CLASSIFICATION ( '', '', #212 ) ;
#596 = CC_DESIGN_PERSON_AND_ORGANIZATION_ASSIGNMENT ( #795, #200, ( #595 ) ) ;
#597 = CC_DESIGN_DATE_AND_TIME_ASSIGNMENT ( #799, #190, ( #595 ) ) ;
#598 = APPROVAL ( #196, 'UNSPECIFIED' ) ;
#599 = CC_DESIGN_APPROVAL ( #598, ( #595 ) ) ;
#600 = CC_DESIGN_SECURITY_CLASSIFICATION ( #595, ( #590 ) ) ;
#601 = PRODUCT_RELATED_PRODUCT_CATEGORY ( 'detail', '', ( #3 ) ) ;
#602 = PRODUCT_DEFINITION ( 'UNKNOWN', '', #607, #48 ) ;
#603 = APPROVAL ( #176, 'UNSPECIFIED' ) ;
#604 = CC_DESIGN_APPROVAL ( #603, ( #602 ) ) ;
#605 = CC_DESIGN_PERSON_AND_ORGANIZATION_ASSIGNMENT ( #815, #201, ( #602 ) ) ;
#606 = CC_DESIGN_DATE_AND_TIME_ASSIGNMENT ( #819, #179, ( #602 ) ) ;
#607 = PRODUCT_DEFINITION_FORMATION_WITH_SPECIFIED_SOURCE ( 'ANY', '', #4, .NOT_KNOWN. ) ;
#608 = APPROVAL ( #208, 'UNSPECIFIED' ) ;
#609 = CC_DESIGN_APPROVAL ( #608, ( #607 ) ) ;
#610 = CC_DESIGN_PERSON_AND_ORGANIZATION_ASSIGNMENT ( #827, #168, ( #607 ) ) ;
#611 = CC_DESIGN_PERSON_AND_ORGANIZATION_ASSIGNMENT ( #828, #167, ( #607 ) ) ;
#612 = SECURITY_CLASSIFICATION ( '', '', #166 ) ;
#613 = CC_DESIGN_PERSON_AND_ORGANIZATION_ASSIGNMENT ( #829, #165, ( #612 ) ) ;
#614 = CC_DESIGN_DATE_AND_TIME_ASSIGNMENT ( #833, #164, ( #612 ) ) ;
#615 = APPROVAL ( #163, 'UNSPECIFIED' ) ;
#616 = CC_DESIGN_APPROVAL ( #615, ( #612 ) ) ;
#617 = CC_DESIGN_SECURITY_CLASSIFICATION ( #612, ( #607 ) ) ;
#618 = PRODUCT_RELATED_PRODUCT_CATEGORY ( 'detail', '', ( #4 ) ) ;
#619 = CC_DESIGN_SECURITY_CLASSIFICATION ( #566, ( #1315 ) ) ;
#620 = APPROVAL ( #159, 'UNKNOWN' ) ;
#621 = CC_DESIGN_APPROVAL ( #620, ( #566 ) ) ;
#622 = CC_DESIGN_DATE_AND_TIME_ASSIGNMENT ( #846, #157, ( #566 ) ) ;
#623 = CC_DESIGN_PERSON_AND_ORGANIZATION_ASSIGNMENT ( #853, #156, ( #566 ) ) ;
#624 = SECURITY_CLASSIFICATION ( '', '', #154 ) ;
#625 = CC_DESIGN_SECURITY_CLASSIFICATION ( #624, ( #1316 ) ) ;
#626 = APPROVAL ( #153, 'UNKNOWN' ) ;
#627 = CC_DESIGN_APPROVAL ( #626, ( #624 ) ) ;
#628 = CC_DESIGN_DATE_AND_TIME_ASSIGNMENT ( #861, #151, ( #624 ) ) ;
#629 = CC_DESIGN_PERSON_AND_ORGANIZATION_ASSIGNMENT ( #868, #150, ( #624 ) ) ;
#630 = VECTOR ( 'NONE', #1102, 1000.000000000000000 ) ;
#631 = LINE ( 'NONE', #1120, #635 ) ;
#632 = LINE ( 'NONE', #1114, #633 ) ;
#633 = VECTOR ( 'NONE', #1119, 1000.000000000000000 ) ;
#634 = LINE ( 'NONE', #1118, #644 ) ;
#635 = VECTOR ( 'NONE', #1122, 999.9999999999998900 ) ;
#636 = LINE ( 'NONE', #1124, #640 ) ;
#637 = LINE ( 'NONE', #1113, #638 ) ;
#638 = VECTOR ( 'NONE', #1123, 1000.000000000000000 ) ;
#639 = LINE ( 'NONE', #1126, #642 ) ;
#640 = VECTOR ( 'NONE', #1125, 1000.000000000000000 ) ;
#641 = LINE ( 'NONE', #1121, #646 ) ;
#642 = VECTOR ( 'NONE', #1128, 1000.000000000000000 ) ;
#643 = LINE ( 'NONE', #1127, #652 ) ;
#644 = VECTOR ( 'NONE', #1129, 1000.000000000000000 ) ;
#645 = LINE ( 'NONE', #1132, #648 ) ;
#646 = VECTOR ( 'NONE', #1131, 1000.000000000000100 ) ;
#647 = LINE ( 'NONE', #1134, #650 ) ;
#648 = VECTOR ( 'NONE', #1133, 1000.000000000000100 ) ;
#649 = LINE ( 'NONE', #1130, #660 ) ;
#650 = VECTOR ( 'NONE', #1136, 1000.000000000000000 ) ;
#651 = LINE ( 'NONE', #1138, #654 ) ;
#652 = VECTOR ( 'NONE', #1137, 1000.000000000000000 ) ;
#653 = LINE ( 'NONE', #1140, #656 ) ;
#654 = VECTOR ( 'NONE', #1139, 1000.000000000000000 ) ;
#655 = LINE ( 'NONE', #1142, #658 ) ;
#656 = VECTOR ( 'NONE', #1141, 1000.000000000000000 ) ;
#657 = LINE ( 'NONE', #1135, #662 ) ;
#658 = VECTOR ( 'NONE', #1144, 1000.000000000000000 ) ;
#659 = LINE ( 'NONE', #1143, #666 ) ;
#660 = VECTOR ( 'NONE', #1145, 1000.000000000000000 ) ;
#661 = LINE ( 'NONE', #1148, #664 ) ;
#662 = VECTOR ( 'NONE', #1147, 1000.000000000000000 ) ;
#663 = LINE ( 'NONE', #1153, #673 ) ;
#664 = VECTOR ( 'NONE', #1150, 1000.000000000000000 ) ;
#665 = CIRCLE ( 'NONE', #256, 1.250000000000001100 ) ;
#666 = VECTOR ( 'NONE', #1151, 1000.000000000000000 ) ;
#667 = LINE ( 'NONE', #1149, #669 ) ;
#668 = LINE ( 'NONE', #1157, #671 ) ;
#669 = VECTOR ( 'NONE', #1146, 1000.000000000000100 ) ;
#670 = LINE ( 'NONE', #1152, #679 ) ;
#671 = VECTOR ( 'NONE', #1159, 1000.000000000000000 ) ;
#672 = LINE ( 'NONE', #1161, #675 ) ;
#673 = VECTOR ( 'NONE', #1160, 1000.000000000000000 ) ;
#674 = LINE ( 'NONE', #1163, #677 ) ;
#675 = VECTOR ( 'NONE', #1162, 1000.000000000000000 ) ;
#676 = LINE ( 'NONE', #1158, #685 ) ;
#677 = VECTOR ( 'NONE', #1165, 1000.000000000000000 ) ;
#678 = LINE ( 'NONE', #1167, #681 ) ;
#679 = VECTOR ( 'NONE', #1166, 1000.000000000000000 ) ;
#680 = LINE ( 'NONE', #1169, #683 ) ;
#681 = VECTOR ( 'NONE', #1168, 1000.000000000000100 ) ;
#682 = LINE ( 'NONE', #1164, #691 ) ;
#683 = VECTOR ( 'NONE', #1171, 1000.000000000000000 ) ;
#684 = LINE ( 'NONE', #1173, #687 ) ;
#685 = VECTOR ( 'NONE', #1172, 1000.000000000000000 ) ;
#686 = LINE ( 'NONE', #1175, #689 ) ;
#687 = VECTOR ( 'NONE', #1174, 1000.000000000000000 ) ;
#688 = LINE ( 'NONE', #1170, #697 ) ;
#689 = VECTOR ( 'NONE', #1177, 1000.000000000000000 ) ;
#690 = LINE ( 'NONE', #1179, #693 ) ;
#691 = VECTOR ( 'NONE', #1178, 1000.000000000000000 ) ;
#692 = LINE ( 'NONE', #1181, #695 ) ;
#693 = VECTOR ( 'NONE', #1180, 1000.000000000000100 ) ;
#694 = CIRCLE ( 'NONE', #142, 1.250000000000001100 ) ;
#695 = VECTOR ( 'NONE', #1183, 1000.000000000000000 ) ;
#696 = LINE ( 'NONE', #1185, #699 ) ;
#697 = VECTOR ( 'NONE', #1184, 1000.000000000000000 ) ;
#698 = LINE ( 'NONE', #1187, #701 ) ;
#699 = VECTOR ( 'NONE', #1186, 1000.000000000000000 ) ;
#700 = LINE ( 'NONE', #1189, #703 ) ;
#701 = VECTOR ( 'NONE', #1188, 1000.000000000000000 ) ;
#702 = CIRCLE ( 'NONE', #252, 0.02999999999999999900 ) ;
#703 = VECTOR ( 'NONE', #1190, 1000.000000000000000 ) ;
#704 = LINE ( 'NONE', #1182, #706 ) ;
#705 = LINE ( 'NONE', #1194, #708 ) ;
#706 = VECTOR ( 'NONE', #1176, 1000.000000000000000 ) ;
#707 = LINE ( 'NONE', #1196, #710 ) ;
#708 = VECTOR ( 'NONE', #1195, 1000.000000000000000 ) ;
#709 = CIRCLE ( 'NONE', #143, 1.250000000000001100 ) ;
#710 = VECTOR ( 'NONE', #1197, 1000.000000000000000 ) ;
#711 = LINE ( 'NONE', #1203, #714 ) ;
#712 = LINE ( 'NONE', #1202, #716 ) ;
#713 = LINE ( 'NONE', #1211, #719 ) ;
#714 = VECTOR ( 'NONE', #1198, 1000.000000000000000 ) ;
#715 = CIRCLE ( 'NONE', #141, 1.250000000000001100 ) ;
#716 = VECTOR ( 'NONE', #1208, 1000.000000000000000 ) ;
#717 = LINE ( 'NONE', #1209, #722 ) ;
#718 = LINE ( 'NONE', #1215, #721 ) ;
#719 = VECTOR ( 'NONE', #1207, 1000.000000000000000 ) ;
#720 = LINE ( 'NONE', #1210, #724 ) ;
#721 = VECTOR ( 'NONE', #1217, 1000.000000000000000 ) ;
#722 = VECTOR ( 'NONE', #1218, 1000.000000000000000 ) ;
#723 = LINE ( 'NONE', #1221, #726 ) ;
#724 = VECTOR ( 'NONE', #1220, 1000.000000000000100 ) ;
#725 = LINE ( 'NONE', #1223, #728 ) ;
#726 = VECTOR ( 'NONE', #1222, 1000.000000000000000 ) ;
#727 = CIRCLE ( 'NONE', #44, 1.250000000000001100 ) ;
#728 = VECTOR ( 'NONE', #1224, 1000.000000000000000 ) ;
#729 = LINE ( 'NONE', #1219, #731 ) ;
#730 = LINE ( 'NONE', #1230, #733 ) ;
#731 = VECTOR ( 'NONE', #1216, 1000.000000000000000 ) ;
#732 = CIRCLE ( 'NONE', #43, 1.250000000000001100 ) ;
#733 = VECTOR ( 'NONE', #1231, 1000.000000000000000 ) ;
#734 = SHAPE_REPRESENTATION_RELATIONSHIP ( 'NONE' , 'NONE' ,  #56, #148 ) ;
#735 = SHAPE_DEFINITION_REPRESENTATION ( #49, #58 ) ;
#736 = SHAPE_DEFINITION_REPRESENTATION ( #50, #57 ) ;
#737 = SHAPE_DEFINITION_REPRESENTATION ( #52, #56 ) ;
#738 = ORGANIZATION ( 'UNSPECIFIED', 'UNSPECIFIED', '' ) ;
#739 = PERSON_AND_ORGANIZATION ( #2, #738 ) ;
#740 = PERSON_AND_ORGANIZATION ( #2, #738 ) ;
#741 = APPROVAL_PERSON_ORGANIZATION ( #740, #569, #192 ) ;
#742 = COORDINATED_UNIVERSAL_TIME_OFFSET ( 0, 0, .AHEAD. ) ;
#743 = LOCAL_TIME ( 10, 5, 46.00000000000000000, #742 ) ;
#744 = CALENDAR_DATE ( 2014, 1, 4 ) ;
#745 = DATE_AND_TIME ( #744, #743 ) ;
#746 = APPROVAL_DATE_TIME ( #745, #569 ) ;
#747 = PERSON_AND_ORGANIZATION ( #2, #738 ) ;
#748 = COORDINATED_UNIVERSAL_TIME_OFFSET ( 0, 0, .AHEAD. ) ;
#749 = LOCAL_TIME ( 10, 5, 46.00000000000000000, #748 ) ;
#750 = CALENDAR_DATE ( 2014, 1, 4 ) ;
#751 = DATE_AND_TIME ( #750, #749 ) ;
#752 = PERSON_AND_ORGANIZATION ( #2, #738 ) ;
#753 = APPROVAL_PERSON_ORGANIZATION ( #752, #574, #202 ) ;
#754 = COORDINATED_UNIVERSAL_TIME_OFFSET ( 0, 0, .AHEAD. ) ;
#755 = LOCAL_TIME ( 10, 5, 46.00000000000000000, #754 ) ;
#756 = CALENDAR_DATE ( 2014, 1, 4 ) ;
#757 = DATE_AND_TIME ( #756, #755 ) ;
#758 = APPROVAL_DATE_TIME ( #757, #574 ) ;
#759 = PERSON_AND_ORGANIZATION ( #2, #738 ) ;
#760 = PERSON_AND_ORGANIZATION ( #2, #738 ) ;
#761 = PERSON_AND_ORGANIZATION ( #2, #738 ) ;
#762 = COORDINATED_UNIVERSAL_TIME_OFFSET ( 0, 0, .AHEAD. ) ;
#763 = LOCAL_TIME ( 10, 5, 46.00000000000000000, #762 ) ;
#764 = CALENDAR_DATE ( 2014, 1, 4 ) ;
#765 = DATE_AND_TIME ( #764, #763 ) ;
#766 = PERSON_AND_ORGANIZATION ( #2, #738 ) ;
#767 = APPROVAL_PERSON_ORGANIZATION ( #766, #581, #203 ) ;
#768 = COORDINATED_UNIVERSAL_TIME_OFFSET ( 0, 0, .AHEAD. ) ;
#769 = LOCAL_TIME ( 10, 5, 46.00000000000000000, #768 ) ;
#770 = CALENDAR_DATE ( 2014, 1, 4 ) ;
#771 = DATE_AND_TIME ( #770, #769 ) ;
#772 = APPROVAL_DATE_TIME ( #771, #581 ) ;
#773 = PERSON_AND_ORGANIZATION ( #2, #738 ) ;
#774 = PERSON_AND_ORGANIZATION ( #2, #738 ) ;
#775 = APPROVAL_PERSON_ORGANIZATION ( #774, #586, #189 ) ;
#776 = COORDINATED_UNIVERSAL_TIME_OFFSET ( 0, 0, .AHEAD. ) ;
#777 = LOCAL_TIME ( 10, 5, 46.00000000000000000, #776 ) ;
#778 = CALENDAR_DATE ( 2014, 1, 4 ) ;
#779 = DATE_AND_TIME ( #778, #777 ) ;
#780 = APPROVAL_DATE_TIME ( #779, #586 ) ;
#781 = PERSON_AND_ORGANIZATION ( #2, #738 ) ;
#782 = COORDINATED_UNIVERSAL_TIME_OFFSET ( 0, 0, .AHEAD. ) ;
#783 = LOCAL_TIME ( 10, 5, 46.00000000000000000, #782 ) ;
#784 = CALENDAR_DATE ( 2014, 1, 4 ) ;
#785 = DATE_AND_TIME ( #784, #783 ) ;
#786 = PERSON_AND_ORGANIZATION ( #2, #738 ) ;
#787 = APPROVAL_PERSON_ORGANIZATION ( #786, #591, #194 ) ;
#788 = COORDINATED_UNIVERSAL_TIME_OFFSET ( 0, 0, .AHEAD. ) ;
#789 = LOCAL_TIME ( 10, 5, 46.00000000000000000, #788 ) ;
#790 = CALENDAR_DATE ( 2014, 1, 4 ) ;
#791 = DATE_AND_TIME ( #790, #789 ) ;
#792 = APPROVAL_DATE_TIME ( #791, #591 ) ;
#793 = PERSON_AND_ORGANIZATION ( #2, #738 ) ;
#794 = PERSON_AND_ORGANIZATION ( #2, #738 ) ;
#795 = PERSON_AND_ORGANIZATION ( #2, #738 ) ;
#796 = COORDINATED_UNIVERSAL_TIME_OFFSET ( 0, 0, .AHEAD. ) ;
#797 = LOCAL_TIME ( 10, 5, 46.00000000000000000, #796 ) ;
#798 = CALENDAR_DATE ( 2014, 1, 4 ) ;
#799 = DATE_AND_TIME ( #798, #797 ) ;
#800 = PERSON_AND_ORGANIZATION ( #2, #738 ) ;
#801 = APPROVAL_PERSON_ORGANIZATION ( #800, #598, #193 ) ;
#802 = COORDINATED_UNIVERSAL_TIME_OFFSET ( 0, 0, .AHEAD. ) ;
#803 = LOCAL_TIME ( 10, 5, 46.00000000000000000, #802 ) ;
#804 = CALENDAR_DATE ( 2014, 1, 4 ) ;
#805 = DATE_AND_TIME ( #804, #803 ) ;
#806 = APPROVAL_DATE_TIME ( #805, #598 ) ;
#807 = PERSON_AND_ORGANIZATION ( #2, #738 ) ;
#808 = PERSON_AND_ORGANIZATION ( #2, #738 ) ;
#809 = APPROVAL_PERSON_ORGANIZATION ( #808, #603, #214 ) ;
#810 = COORDINATED_UNIVERSAL_TIME_OFFSET ( 0, 0, .AHEAD. ) ;
#811 = LOCAL_TIME ( 10, 5, 46.00000000000000000, #810 ) ;
#812 = CALENDAR_DATE ( 2014, 1, 4 ) ;
#813 = DATE_AND_TIME ( #812, #811 ) ;
#814 = APPROVAL_DATE_TIME ( #813, #603 ) ;
#815 = PERSON_AND_ORGANIZATION ( #2, #738 ) ;
#816 = COORDINATED_UNIVERSAL_TIME_OFFSET ( 0, 0, .AHEAD. ) ;
#817 = LOCAL_TIME ( 10, 5, 46.00000000000000000, #816 ) ;
#818 = CALENDAR_DATE ( 2014, 1, 4 ) ;
#819 = DATE_AND_TIME ( #818, #817 ) ;
#820 = PERSON_AND_ORGANIZATION ( #2, #738 ) ;
#821 = APPROVAL_PERSON_ORGANIZATION ( #820, #608, #184 ) ;
#822 = COORDINATED_UNIVERSAL_TIME_OFFSET ( 0, 0, .AHEAD. ) ;
#823 = LOCAL_TIME ( 10, 5, 46.00000000000000000, #822 ) ;
#824 = CALENDAR_DATE ( 2014, 1, 4 ) ;
#825 = DATE_AND_TIME ( #824, #823 ) ;
#826 = APPROVAL_DATE_TIME ( #825, #608 ) ;
#827 = PERSON_AND_ORGANIZATION ( #2, #738 ) ;
#828 = PERSON_AND_ORGANIZATION ( #2, #738 ) ;
#829 = PERSON_AND_ORGANIZATION ( #2, #738 ) ;
#830 = COORDINATED_UNIVERSAL_TIME_OFFSET ( 0, 0, .AHEAD. ) ;
#831 = LOCAL_TIME ( 10, 5, 46.00000000000000000, #830 ) ;
#832 = CALENDAR_DATE ( 2014, 1, 4 ) ;
#833 = DATE_AND_TIME ( #832, #831 ) ;
#834 = PERSON_AND_ORGANIZATION ( #2, #738 ) ;
#835 = APPROVAL_PERSON_ORGANIZATION ( #834, #615, #162 ) ;
#836 = COORDINATED_UNIVERSAL_TIME_OFFSET ( 0, 0, .AHEAD. ) ;
#837 = LOCAL_TIME ( 10, 5, 46.00000000000000000, #836 ) ;
#838 = CALENDAR_DATE ( 2014, 1, 4 ) ;
#839 = DATE_AND_TIME ( #838, #837 ) ;
#840 = APPROVAL_DATE_TIME ( #839, #615 ) ;
#841 = ITEM_DEFINED_TRANSFORMATION ( 'NONE', 'NONE', #561,  #140 ) ;
#842 = DIRECTION ( 'NONE',  ( 1.000000000000000000, 0.0000000000000000000, 0.0000000000000000000 ) ) ;
#843 = COORDINATED_UNIVERSAL_TIME_OFFSET ( 0, 0, .AHEAD. ) ;
#844 = LOCAL_TIME ( 10, 5, 46.00000000000000000, #843 ) ;
#845 = CALENDAR_DATE ( 2014, 1, 4 ) ;
#846 = DATE_AND_TIME ( #845, #844 ) ;
#847 = COORDINATED_UNIVERSAL_TIME_OFFSET ( 0, 0, .AHEAD. ) ;
#848 = LOCAL_TIME ( 10, 5, 46.00000000000000000, #847 ) ;
#849 = CALENDAR_DATE ( 2014, 1, 4 ) ;
#850 = DATE_AND_TIME ( #849, #848 ) ;
#851 = APPROVAL_DATE_TIME ( #850, #620 ) ;
#852 = ORGANIZATION ( 'NAUO-ORG1', 'UNSPECIFIED', 'UNSPECIFIED' ) ;
#853 = PERSON_AND_ORGANIZATION ( #5, #852 ) ;
#854 = APPROVAL_PERSON_ORGANIZATION ( #853, #620, #158 ) ;
#855 = CONTEXT_DEPENDENT_SHAPE_REPRESENTATION ( #161, #47 ) ;
#856 = ITEM_DEFINED_TRANSFORMATION ( 'NONE', 'NONE', #139,  #59 ) ;
#857 = DIRECTION ( 'NONE',  ( 0.0000000000000000000, 0.0000000000000000000, 1.000000000000000000 ) ) ;
#858 = COORDINATED_UNIVERSAL_TIME_OFFSET ( 0, 0, .AHEAD. ) ;
#859 = LOCAL_TIME ( 10, 5, 46.00000000000000000, #858 ) ;
#860 = CALENDAR_DATE ( 2014, 1, 4 ) ;
#861 = DATE_AND_TIME ( #860, #859 ) ;
#862 = COORDINATED_UNIVERSAL_TIME_OFFSET ( 0, 0, .AHEAD. ) ;
#863 = LOCAL_TIME ( 10, 5, 46.00000000000000000, #862 ) ;
#864 = CALENDAR_DATE ( 2014, 1, 4 ) ;
#865 = DATE_AND_TIME ( #864, #863 ) ;
#866 = APPROVAL_DATE_TIME ( #865, #626 ) ;
#867 = ORGANIZATION ( 'NAUO-ORG2', 'UNSPECIFIED', 'UNSPECIFIED' ) ;
#868 = PERSON_AND_ORGANIZATION ( #6, #867 ) ;
#869 = APPROVAL_PERSON_ORGANIZATION ( #868, #626, #152 ) ;
#870 = CONTEXT_DEPENDENT_SHAPE_REPRESENTATION ( #155, #51 ) ;
#871 = FACE_OUTER_BOUND ( 'NONE', #542, .T. ) ;
#872 = FACE_OUTER_BOUND ( 'NONE', #529, .T. ) ;
#873 = LINE ( 'NONE', #1069, #879 ) ;
#874 = FACE_OUTER_BOUND ( 'NONE', #533, .T. ) ;
#875 = FACE_OUTER_BOUND ( 'NONE', #555, .T. ) ;
#876 = CYLINDRICAL_SURFACE ( 'NONE', #272, 1.250000000000001100 ) ;
#877 = FACE_OUTER_BOUND ( 'NONE', #536, .T. ) ;
#878 = CONICAL_SURFACE ( 'NONE', #278, 1.250000000000001100, 1.029744258676652800 ) ;
#879 = VECTOR ( 'NONE', #1074, 1000.000000000000100 ) ;
#880 = FACE_OUTER_BOUND ( 'NONE', #553, .T. ) ;
#881 = FACE_OUTER_BOUND ( 'NONE', #527, .T. ) ;
#882 = FACE_OUTER_BOUND ( 'NONE', #538, .T. ) ;
#883 = CIRCLE ( 'NONE', #250, 0.02999999999999999900 ) ;
#884 = FACE_OUTER_BOUND ( 'NONE', #557, .T. ) ;
#885 = FACE_OUTER_BOUND ( 'NONE', #525, .T. ) ;
#886 = FACE_OUTER_BOUND ( 'NONE', #523, .T. ) ;
#887 = VECTOR ( 'NONE', #1068, 1000.000000000000000 ) ;
#888 = CYLINDRICAL_SURFACE ( 'NONE', #275, 1.250000000000001100 ) ;
#889 = FACE_OUTER_BOUND ( 'NONE', #540, .T. ) ;
#890 = FACE_BOUND ( 'NONE', #528, .T. ) ;
#891 = FACE_OUTER_BOUND ( 'NONE', #537, .T. ) ;
#892 = FACE_OUTER_BOUND ( 'NONE', #554, .T. ) ;
#893 = FACE_OUTER_BOUND ( 'NONE', #552, .T. ) ;
#894 = FACE_OUTER_BOUND ( 'NONE', #526, .T. ) ;
#895 = CONICAL_SURFACE ( 'NONE', #273, 1.250000000000001100, 1.029744258676652800 ) ;
#896 = FACE_OUTER_BOUND ( 'NONE', #551, .T. ) ;
#897 = VECTOR ( 'NONE', #1070, 1000.000000000000000 ) ;
#898 = FACE_OUTER_BOUND ( 'NONE', #535, .T. ) ;
#899 = CYLINDRICAL_SURFACE ( 'NONE', #260, 1.250000000000001100 ) ;
#900 = LINE ( 'NONE', #1067, #901 ) ;
#901 = VECTOR ( 'NONE', #1072, 1000.000000000000000 ) ;
#902 = VECTOR ( 'NONE', #1107, 1000.000000000000000 ) ;
#903 = FACE_OUTER_BOUND ( 'NONE', #539, .T. ) ;
#904 = FACE_OUTER_BOUND ( 'NONE', #549, .T. ) ;
#905 = FACE_OUTER_BOUND ( 'NONE', #545, .T. ) ;
#906 = LINE ( 'NONE', #1062, #897 ) ;
#907 = VECTOR ( 'NONE', #1048, 1000.000000000000000 ) ;
#908 = LINE ( 'NONE', #1055, #918 ) ;
#909 = LINE ( 'NONE', #1063, #907 ) ;
#910 = CIRCLE ( 'NONE', #253, 1.250000000000001100 ) ;
#911 = FACE_OUTER_BOUND ( 'NONE', #543, .T. ) ;
#912 = VECTOR ( 'NONE', #1054, 1000.000000000000000 ) ;
#913 = LINE ( 'NONE', #1061, #887 ) ;
#914 = FACE_OUTER_BOUND ( 'NONE', #524, .T. ) ;
#915 = FACE_OUTER_BOUND ( 'NONE', #544, .T. ) ;
#916 = FACE_OUTER_BOUND ( 'NONE', #550, .T. ) ;
#917 = CIRCLE ( 'NONE', #251, 1.250000000000001100 ) ;
#918 = VECTOR ( 'NONE', #1056, 1000.000000000000000 ) ;
#919 = FACE_OUTER_BOUND ( 'NONE', #532, .T. ) ;
#920 = FACE_OUTER_BOUND ( 'NONE', #530, .T. ) ;
#921 = LINE ( 'NONE', #1057, #912 ) ;
#922 = CYLINDRICAL_SURFACE ( 'NONE', #265, 0.02999999999999999900 ) ;
#923 = CONICAL_SURFACE ( 'NONE', #262, 1.250000000000001100, 1.029744258676652800 ) ;
#924 = FACE_OUTER_BOUND ( 'NONE', #541, .T. ) ;
#925 = FACE_OUTER_BOUND ( 'NONE', #531, .T. ) ;
#926 = FACE_OUTER_BOUND ( 'NONE', #547, .T. ) ;
#927 = FACE_OUTER_BOUND ( 'NONE', #548, .T. ) ;
#928 = CYLINDRICAL_SURFACE ( 'NONE', #293, 1.250000000000001100 ) ;
#929 = CONICAL_SURFACE ( 'NONE', #261, 1.250000000000001100, 1.029744258676652800 ) ;
#930 = CARTESIAN_POINT ( 'NONE',  ( -16.00000000000000000, 2.602085213965210600E-015, 82.50000000000000000 ) ) ;
#931 = PLANE ( 'NONE',  #263 ) ;
#932 = DIRECTION ( 'NONE',  ( -0.0000000000000000000, -1.000000000000000000, -0.0000000000000000000 ) ) ;
#933 = PLANE ( 'NONE',  #285 ) ;
#934 = CARTESIAN_POINT ( 'NONE',  ( 15.99999999999999600, -6.500000000000009800, 82.50000000000000000 ) ) ;
#935 = CARTESIAN_POINT ( 'NONE',  ( 15.99999999999997900, -17.02820166865501900, 52.35396136624376600 ) ) ;
#936 = PLANE ( 'NONE',  #258 ) ;
#937 = DIRECTION ( 'NONE',  ( -5.880418562633244000E-016, 1.000000000000000000, 0.0000000000000000000 ) ) ;
#938 = CARTESIAN_POINT ( 'NONE',  ( -16.00000000000000000, 2.602085213965210600E-015, 82.50000000000000000 ) ) ;
#939 = DIRECTION ( 'NONE',  ( -1.000000000000000000, 5.782411586589346200E-015, 0.0000000000000000000 ) ) ;
#940 = PLANE ( 'NONE',  #279 ) ;
#941 = DIRECTION ( 'NONE',  ( -5.782411586589346200E-015, -1.000000000000000000, 0.0000000000000000000 ) ) ;
#942 = PLANE ( 'NONE',  #280 ) ;
#943 = DIRECTION ( 'NONE',  ( -1.000000000000000000, 3.582905630244692900E-016, 0.0000000000000000000 ) ) ;
#944 = DIRECTION ( 'NONE',  ( 3.582905630244692900E-016, 1.000000000000000000, -0.0000000000000000000 ) ) ;
#945 = CARTESIAN_POINT ( 'NONE',  ( -16.00000000000001800, -12.50000000000000000, 82.50000000000000000 ) ) ;
#946 = DIRECTION ( 'NONE',  ( -0.0000000000000000000, -1.000000000000000000, -0.0000000000000000000 ) ) ;
#947 = DIRECTION ( 'NONE',  ( 0.0000000000000000000, 0.0000000000000000000, -1.000000000000000000 ) ) ;
#948 = DIRECTION ( 'NONE',  ( 0.0000000000000000000, 0.0000000000000000000, -1.000000000000000000 ) ) ;
#949 = PLANE ( 'NONE',  #282 ) ;
#950 = CARTESIAN_POINT ( 'NONE',  ( 7.499999999999984000, -6.500000000000004400, 52.50000000000000700 ) ) ;
#951 = CARTESIAN_POINT ( 'NONE',  ( 1.475000000000022300, -12.50000000000000500, 82.50000000000000000 ) ) ;
#952 = CARTESIAN_POINT ( 'NONE',  ( 15.99999999999999600, -12.50000000000000400, 82.50000000000000000 ) ) ;
#953 = PLANE ( 'NONE',  #266 ) ;
#954 = DIRECTION ( 'NONE',  ( -1.000000000000000000, -5.880418562633244000E-016, 0.0000000000000000000 ) ) ;
#955 = DIRECTION ( 'NONE',  ( -0.0000000000000000000, -1.000000000000000000, -0.0000000000000000000 ) ) ;
#956 = DIRECTION ( 'NONE',  ( 0.0000000000000000000, 1.000000000000000000, 0.0000000000000000000 ) ) ;
#957 = DIRECTION ( 'NONE',  ( 0.0000000000000000000, -0.0000000000000000000, 1.000000000000000000 ) ) ;
#958 = CARTESIAN_POINT ( 'NONE',  ( -7.500000000000015100, -6.500000000000007100, 52.50000000000000700 ) ) ;
#959 = CARTESIAN_POINT ( 'NONE',  ( 7.499999999999984000, -12.50000000000000400, 52.50000000000000700 ) ) ;
#960 = DIRECTION ( 'NONE',  ( 1.668003342285392700E-014, 1.000000000000000000, 0.0000000000000000000 ) ) ;
#961 = DIRECTION ( 'NONE',  ( 1.000000000000000000, -1.668003342285392700E-014, 0.0000000000000000000 ) ) ;
#962 = PLANE ( 'NONE',  #281 ) ;
#963 = CARTESIAN_POINT ( 'NONE',  ( -7.500000000000015100, -12.50000000000000700, 52.50000000000000700 ) ) ;
#964 = CARTESIAN_POINT ( 'NONE',  ( -1.474999999999999600, -12.50000000000000500, 82.50000000000000000 ) ) ;
#965 = DIRECTION ( 'NONE',  ( -1.084202172485504400E-016, 1.000000000000000000, 0.0000000000000000000 ) ) ;
#966 = DIRECTION ( 'NONE',  ( -1.000000000000000000, -1.084202172485504400E-016, 0.0000000000000000000 ) ) ;
#967 = DIRECTION ( 'NONE',  ( -0.0000000000000000000, -1.000000000000000000, -0.0000000000000000000 ) ) ;
#968 = DIRECTION ( 'NONE',  ( -0.0000000000000000000, -1.000000000000000000, -0.0000000000000000000 ) ) ;
#969 = DIRECTION ( 'NONE',  ( -1.000000000000000000, 0.0000000000000000000, -0.0000000000000000000 ) ) ;
#970 = DIRECTION ( 'NONE',  ( 0.0000000000000000000, 0.0000000000000000000, -1.000000000000000000 ) ) ;
#971 = DIRECTION ( 'NONE',  ( 0.0000000000000000000, 0.0000000000000000000, -1.000000000000000000 ) ) ;
#972 = PLANE ( 'NONE',  #259 ) ;
#973 = DIRECTION ( 'NONE',  ( -0.0000000000000000000, 0.0000000000000000000, -1.000000000000000000 ) ) ;
#974 = DIRECTION ( 'NONE',  ( 1.000000000000000000, 0.0000000000000000000, -0.0000000000000000000 ) ) ;
#975 = DIRECTION ( 'NONE',  ( 0.0000000000000000000, 0.0000000000000000000, -1.000000000000000000 ) ) ;
#976 = PLANE ( 'NONE',  #286 ) ;
#977 = DIRECTION ( 'NONE',  ( 0.0000000000000000000, -0.2588190451025143000, 0.9659258262890700900 ) ) ;
#978 = DIRECTION ( 'NONE',  ( 5.585380689719807600E-015, 0.9659258262890700900, 0.2588190451025143000 ) ) ;
#979 = DIRECTION ( 'NONE',  ( 1.194301876748234300E-016, -1.000000000000000000, 0.0000000000000000000 ) ) ;
#980 = PLANE ( 'NONE',  #277 ) ;
#981 = CARTESIAN_POINT ( 'NONE',  ( -7.500000000000015100, -6.500000000000007100, 52.50000000000000700 ) ) ;
#982 = DIRECTION ( 'NONE',  ( 1.734723475976809900E-015, -1.000000000000000000, 0.0000000000000000000 ) ) ;
#983 = DIRECTION ( 'NONE',  ( 1.000000000000000000, 1.734723475976809900E-015, 0.0000000000000000000 ) ) ;
#984 = PLANE ( 'NONE',  #268 ) ;
#985 = CARTESIAN_POINT ( 'NONE',  ( -7.500000000000015100, -12.50000000000000700, 52.50000000000000700 ) ) ;
#986 = DIRECTION ( 'NONE',  ( -1.000000000000000000, -7.517135062566179300E-015, 0.0000000000000000000 ) ) ;
#987 = DIRECTION ( 'NONE',  ( -1.000000000000000000, -1.084202172485504400E-016, 0.0000000000000000000 ) ) ;
#988 = PLANE ( 'NONE',  #270 ) ;
#989 = CARTESIAN_POINT ( 'NONE',  ( -13.00000000000002100, -6.500000000000000900, 82.50000000000000000 ) ) ;
#990 = CARTESIAN_POINT ( 'NONE',  ( -13.00000000000000000, -9.499999999999994700, 82.50000000000000000 ) ) ;
#991 = DIRECTION ( 'NONE',  ( -1.000000000000000000, 2.668805347656622500E-015, 0.0000000000000000000 ) ) ;
#992 = DIRECTION ( 'NONE',  ( -2.668805347656622500E-015, -1.000000000000000000, 0.0000000000000000000 ) ) ;
#993 = PLANE ( 'NONE',  #269 ) ;
#994 = CARTESIAN_POINT ( 'NONE',  ( -16.00000000000000000, -9.499999999999994700, 82.50000000000000000 ) ) ;
#995 = DIRECTION ( 'NONE',  ( -1.084202172485504400E-016, 1.000000000000000000, 0.0000000000000000000 ) ) ;
#996 = DIRECTION ( 'NONE',  ( 7.517135062566179300E-015, -1.000000000000000000, 0.0000000000000000000 ) ) ;
#997 = DIRECTION ( 'NONE',  ( 0.0000000000000000000, 0.0000000000000000000, -1.000000000000000000 ) ) ;
#998 = PLANE ( 'NONE',  #267 ) ;
#999 = CARTESIAN_POINT ( 'NONE',  ( -1.474999999999999600, -13.80000000000000600, 82.50000000000000000 ) ) ;
#1000 = DIRECTION ( 'NONE',  ( 0.0000000000000000000, 0.0000000000000000000, -1.000000000000000000 ) ) ;
#1001 = DIRECTION ( 'NONE',  ( 0.0000000000000000000, 0.0000000000000000000, -1.000000000000000000 ) ) ;
#1002 = DIRECTION ( 'NONE',  ( -1.067522139062647900E-015, -1.000000000000000000, 0.0000000000000000000 ) ) ;
#1003 = DIRECTION ( 'NONE',  ( -1.000000000000000000, 1.067522139062647900E-015, 0.0000000000000000000 ) ) ;
#1004 = DIRECTION ( 'NONE',  ( -0.0000000000000000000, -1.000000000000000000, -0.0000000000000000000 ) ) ;
#1005 = CARTESIAN_POINT ( 'NONE',  ( -16.00000000000001800, -6.500000000000005300, 82.50000000000000000 ) ) ;
#1006 = CARTESIAN_POINT ( 'NONE',  ( -16.00000000000001800, -12.50000000000000000, 82.50000000000000000 ) ) ;
#1007 = DIRECTION ( 'NONE',  ( 1.000000000000000000, 1.194301876748234300E-016, 0.0000000000000000000 ) ) ;
#1008 = DIRECTION ( 'NONE',  ( -0.0000000000000000000, -1.000000000000000000, -0.0000000000000000000 ) ) ;
#1009 = CARTESIAN_POINT ( 'NONE',  ( 7.499999999999984000, -6.500000000000004400, 52.50000000000000700 ) ) ;
#1010 = DIRECTION ( 'NONE',  ( 0.0000000000000000000, 0.0000000000000000000, -1.000000000000000000 ) ) ;
#1011 = CARTESIAN_POINT ( 'NONE',  ( 15.99999999999999600, -12.50000000000000400, 82.50000000000000000 ) ) ;
#1012 = CARTESIAN_POINT ( 'NONE',  ( -1.474999999999999600, -12.50000000000000500, 0.0000000000000000000 ) ) ;
#1013 = DIRECTION ( 'NONE',  ( -0.0000000000000000000, -1.000000000000000000, -0.0000000000000000000 ) ) ;
#1014 = CARTESIAN_POINT ( 'NONE',  ( 7.499999999999984000, -12.50000000000000400, 52.50000000000000700 ) ) ;
#1015 = PLANE ( 'NONE',  #284 ) ;
#1016 = CARTESIAN_POINT ( 'NONE',  ( 13.00000000000000200, -6.500000000000003600, 82.50000000000000000 ) ) ;
#1017 = DIRECTION ( 'NONE',  ( 1.000000000000000000, 0.0000000000000000000, 0.0000000000000000000 ) ) ;
#1018 = DIRECTION ( 'NONE',  ( -1.000000000000000000, -1.156482317317869200E-015, 0.0000000000000000000 ) ) ;
#1019 = DIRECTION ( 'NONE',  ( 1.156482317317869200E-015, -1.000000000000000000, 0.0000000000000000000 ) ) ;
#1020 = PLANE ( 'NONE',  #264 ) ;
#1021 = CARTESIAN_POINT ( 'NONE',  ( -0.1810660171779852900, 2.603039311876999800E-015, 0.0000000000000000000 ) ) ;
#1022 = DIRECTION ( 'NONE',  ( 2.312964634635746200E-015, 1.000000000000000000, -0.0000000000000000000 ) ) ;
#1023 = DIRECTION ( 'NONE',  ( -1.000000000000000000, 2.312964634635746200E-015, 0.0000000000000000000 ) ) ;
#1024 = DIRECTION ( 'NONE',  ( 0.0000000000000000000, 0.0000000000000000000, 1.000000000000000000 ) ) ;
#1025 = CARTESIAN_POINT ( 'NONE',  ( 2.710505431213761100E-017, -0.1386396103067861800, 0.0000000000000000000 ) ) ;
#1026 = PLANE ( 'NONE',  #274 ) ;
#1027 = CARTESIAN_POINT ( 'NONE',  ( 0.1810660171779854000, 2.602927380069418900E-015, 0.0000000000000000000 ) ) ;
#1028 = CARTESIAN_POINT ( 'NONE',  ( 13.00000000000000200, -9.500000000000003600, 82.50000000000000000 ) ) ;
#1029 = DIRECTION ( 'NONE',  ( -0.7071067811865393600, -0.7071067811865556800, 0.0000000000000000000 ) ) ;
#1030 = DIRECTION ( 'NONE',  ( 0.7071067811865556800, -0.7071067811865393600, 0.0000000000000000000 ) ) ;
#1031 = PLANE ( 'NONE',  #276 ) ;
#1032 = CARTESIAN_POINT ( 'NONE',  ( 15.99999999999999300, -9.499999999999998200, 82.50000000000000000 ) ) ;
#1033 = DIRECTION ( 'NONE',  ( -0.7071067811865392500, 0.7071067811865557900, 0.0000000000000000000 ) ) ;
#1034 = DIRECTION ( 'NONE',  ( -0.7071067811865557900, -0.7071067811865392500, 0.0000000000000000000 ) ) ;
#1035 = PLANE ( 'NONE',  #294 ) ;
#1036 = CARTESIAN_POINT ( 'NONE',  ( -1.474999999999999600, -12.50000000000000500, 82.50000000000000000 ) ) ;
#1037 = DIRECTION ( 'NONE',  ( -1.000000000000000000, 0.0000000000000000000, 0.0000000000000000000 ) ) ;
#1038 = DIRECTION ( 'NONE',  ( 0.0000000000000000000, 0.0000000000000000000, 1.000000000000000000 ) ) ;
#1039 = PLANE ( 'NONE',  #257 ) ;
#1040 = CARTESIAN_POINT ( 'NONE',  ( -4.999999999999999100, -13.80000000000000800, 0.0000000000000000000 ) ) ;
#1041 = DIRECTION ( 'NONE',  ( 1.734723475976811800E-015, -1.000000000000000000, 0.0000000000000000000 ) ) ;
#1042 = DIRECTION ( 'NONE',  ( 1.000000000000000000, 1.734723475976811800E-015, 0.0000000000000000000 ) ) ;
#1043 = PLANE ( 'NONE',  #255 ) ;
#1044 = CARTESIAN_POINT ( 'NONE',  ( 5.000000000000002700, -13.80000000000000800, 0.0000000000000000000 ) ) ;
#1045 = DIRECTION ( 'NONE',  ( 0.0000000000000000000, 0.0000000000000000000, -1.000000000000000000 ) ) ;
#1046 = DIRECTION ( 'NONE',  ( -1.000000000000000000, 0.0000000000000000000, -0.0000000000000000000 ) ) ;
#1047 = PLANE ( 'NONE',  #249 ) ;
#1048 = DIRECTION ( 'NONE',  ( -0.0000000000000000000, -1.000000000000000000, -0.0000000000000000000 ) ) ;
#1049 = DIRECTION ( 'NONE',  ( -0.9659258262890682000, -1.047258879322463400E-016, -0.2588190451025213500 ) ) ;
#1050 = DIRECTION ( 'NONE',  ( -0.2588190451025212900, 0.0000000000000000000, 0.9659258262890680900 ) ) ;
#1051 = PLANE ( 'NONE',  #254 ) ;
#1052 = DIRECTION ( 'NONE',  ( -0.9659258262890682000, -1.047258879322463400E-016, 0.2588190451025213500 ) ) ;
#1053 = DIRECTION ( 'NONE',  ( 0.2588190451025212900, 0.0000000000000000000, 0.9659258262890680900 ) ) ;
#1054 = DIRECTION ( 'NONE',  ( 1.049727191138617600E-016, -0.5150380749100556000, 0.8571673007021114500 ) ) ;
#1055 = CARTESIAN_POINT ( 'NONE',  ( 7.499999999999984000, -12.50000000000000400, 51.25000000000000700 ) ) ;
#1056 = DIRECTION ( 'NONE',  ( -0.0000000000000000000, -1.000000000000000000, -0.0000000000000000000 ) ) ;
#1057 = CARTESIAN_POINT ( 'NONE',  ( 7.499999999999984000, -6.500000000000004400, 53.75000000000000700 ) ) ;
#1058 = CARTESIAN_POINT ( 'NONE',  ( 7.499999999999984000, -6.500000000000004400, 52.50000000000000700 ) ) ;
#1059 = DIRECTION ( 'NONE',  ( -0.0000000000000000000, -1.000000000000000000, -0.0000000000000000000 ) ) ;
#1060 = DIRECTION ( 'NONE',  ( 0.0000000000000000000, 0.0000000000000000000, -1.000000000000000000 ) ) ;
#1061 = CARTESIAN_POINT ( 'NONE',  ( -16.00000000000000000, 2.602085213965210600E-015, 82.50000000000000000 ) ) ;
#1062 = CARTESIAN_POINT ( 'NONE',  ( -0.1810660171779852900, 2.603039311876999800E-015, 0.0000000000000000000 ) ) ;
#1063 = CARTESIAN_POINT ( 'NONE',  ( -7.500000000000015100, -12.50000000000000700, 53.75000000000000700 ) ) ;
#1064 = CARTESIAN_POINT ( 'NONE',  ( -7.500000000000015100, -6.500000000000007100, 52.50000000000000700 ) ) ;
#1065 = DIRECTION ( 'NONE',  ( -0.0000000000000000000, -1.000000000000000000, -0.0000000000000000000 ) ) ;
#1066 = DIRECTION ( 'NONE',  ( 0.0000000000000000000, 0.0000000000000000000, -1.000000000000000000 ) ) ;
#1067 = CARTESIAN_POINT ( 'NONE',  ( -16.00000000000000000, 2.602085213965210600E-015, 82.50000000000000000 ) ) ;
#1068 = DIRECTION ( 'NONE',  ( 1.000000000000000000, 1.084202172485504400E-016, 0.0000000000000000000 ) ) ;
#1069 = CARTESIAN_POINT ( 'NONE',  ( -5.000000000000000900, -5.421010862427523200E-016, 0.0000000000000000000 ) ) ;
#1070 = DIRECTION ( 'NONE',  ( -0.0000000000000000000, -0.0000000000000000000, 1.000000000000000000 ) ) ;
#1071 = CARTESIAN_POINT ( 'NONE',  ( -26.16089838486228900, -6.500000000000023100, 78.97354790610808100 ) ) ;
#1072 = DIRECTION ( 'NONE',  ( -0.0000000000000000000, -0.0000000000000000000, -1.000000000000000000 ) ) ;
#1073 = CARTESIAN_POINT ( 'NONE',  ( -7.500000000000015100, -6.500000000000007100, 53.75000000000000700 ) ) ;
#1074 = DIRECTION ( 'NONE',  ( -0.2588190451025212900, -2.806121709807773800E-017, 0.9659258262890680900 ) ) ;
#1075 = CARTESIAN_POINT ( 'NONE',  ( -16.00000000000001800, -6.500000000000005300, 82.50000000000000000 ) ) ;
#1076 = CARTESIAN_POINT ( 'NONE',  ( -13.00000000000002100, -6.500000000000000900, 82.50000000000000000 ) ) ;
#1077 = DIRECTION ( 'NONE',  ( -0.0000000000000000000, -0.0000000000000000000, -1.000000000000000000 ) ) ;
#1078 = DIRECTION ( 'NONE',  ( 0.2588190451025212900, 4.489794735692445000E-016, -0.9659258262890680900 ) ) ;
#1079 = CARTESIAN_POINT ( 'NONE',  ( -16.00000000000001800, -6.500000000000005300, 82.50000000000000000 ) ) ;
#1080 = DIRECTION ( 'NONE',  ( 2.668805347656622500E-015, 1.000000000000000000, 0.0000000000000000000 ) ) ;
#1081 = CARTESIAN_POINT ( 'NONE',  ( -16.00000000000000000, 2.602085213965210600E-015, 0.0000000000000000000 ) ) ;
#1082 = CARTESIAN_POINT ( 'NONE',  ( -13.00000000000000000, -9.499999999999994700, 82.50000000000000000 ) ) ;
#1083 = DIRECTION ( 'NONE',  ( 1.000000000000000000, 1.084202172485504400E-016, 0.0000000000000000000 ) ) ;
#1084 = DIRECTION ( 'NONE',  ( 1.049727191138617600E-016, -0.5150380749100556000, 0.8571673007021114500 ) ) ;
#1085 = CARTESIAN_POINT ( 'NONE',  ( -13.00000000000002100, -6.500000000000000900, 82.50000000000000000 ) ) ;
#1086 = CARTESIAN_POINT ( 'NONE',  ( -16.00000000000000000, -9.499999999999994700, 82.50000000000000000 ) ) ;
#1087 = DIRECTION ( 'NONE',  ( -0.0000000000000000000, -0.0000000000000000000, -1.000000000000000000 ) ) ;
#1088 = DIRECTION ( 'NONE',  ( -1.000000000000000000, -1.734723475976809700E-015, 0.0000000000000000000 ) ) ;
#1089 = CARTESIAN_POINT ( 'NONE',  ( -13.00000000000000000, -9.499999999998539800, 29.85640646055094600 ) ) ;
#1090 = DIRECTION ( 'NONE',  ( 7.517135062566180900E-015, -1.000000000000000000, -2.764970022151512500E-014 ) ) ;
#1091 = CARTESIAN_POINT ( 'NONE',  ( -13.00000000000000000, -9.499999999999994700, 82.50000000000000000 ) ) ;
#1092 = CARTESIAN_POINT ( 'NONE',  ( -16.00000000000001800, -12.50000000000000000, 82.50000000000000000 ) ) ;
#1093 = DIRECTION ( 'NONE',  ( -0.0000000000000000000, -0.0000000000000000000, -1.000000000000000000 ) ) ;
#1094 = DIRECTION ( 'NONE',  ( -7.517135062566179300E-015, 1.000000000000000000, 0.0000000000000000000 ) ) ;
#1095 = CARTESIAN_POINT ( 'NONE',  ( -26.36186027918563500, -9.499999999999994700, 79.72354790610808100 ) ) ;
#1096 = DIRECTION ( 'NONE',  ( -0.2588190451025212900, 0.0000000000000000000, 0.9659258262890680900 ) ) ;
#1097 = CARTESIAN_POINT ( 'NONE',  ( -16.00000000000000000, -9.499999999999994700, 82.50000000000000000 ) ) ;
#1098 = CARTESIAN_POINT ( 'NONE',  ( 16.00000000000006000, -3.000000000000182500, 0.0000000000000000000 ) ) ;
#1099 = DIRECTION ( 'NONE',  ( -0.0000000000000000000, -0.0000000000000000000, -1.000000000000000000 ) ) ;
#1100 = DIRECTION ( 'NONE',  ( 1.000000000000000000, 0.0000000000000000000, 0.0000000000000000000 ) ) ;
#1101 = CARTESIAN_POINT ( 'NONE',  ( -16.00000000000000000, -13.80000000000001000, 41.05255888325755400 ) ) ;
#1102 = DIRECTION ( 'NONE',  ( -0.7071067811865557900, -0.7071067811865392500, 0.0000000000000000000 ) ) ;
#1103 = DIRECTION ( 'NONE',  ( -1.084202172485504400E-016, 1.000000000000000000, -0.0000000000000000000 ) ) ;
#1104 = DIRECTION ( 'NONE',  ( 5.782411586589346200E-015, 1.000000000000000000, 0.0000000000000000000 ) ) ;
#1105 = CARTESIAN_POINT ( 'NONE',  ( 5.000000000000002700, -13.80000000000000800, 0.0000000000000000000 ) ) ;
#1106 = CARTESIAN_POINT ( 'NONE',  ( 0.1810660171779854000, 2.602927380069418900E-015, 0.0000000000000000000 ) ) ;
#1107 = DIRECTION ( 'NONE',  ( -1.084202172485504400E-016, 1.000000000000000000, -0.0000000000000000000 ) ) ;
#1108 = DIRECTION ( 'NONE',  ( -1.000000000000000000, 5.782411586589346200E-015, -0.0000000000000000000 ) ) ;
#1109 = CARTESIAN_POINT ( 'NONE',  ( -4.999999999999999100, -13.80000000000000800, 0.0000000000000000000 ) ) ;
#1110 = DIRECTION ( 'NONE',  ( -1.084202172485504400E-016, 1.000000000000000000, -0.0000000000000000000 ) ) ;
#1111 = CARTESIAN_POINT ( 'NONE',  ( -0.1810660171779852900, 2.603039311876999800E-015, 0.0000000000000000000 ) ) ;
#1112 = DIRECTION ( 'NONE',  ( 0.7071067811865556800, -0.7071067811865393600, 0.0000000000000000000 ) ) ;
#1113 = CARTESIAN_POINT ( 'NONE',  ( 15.99999999999895900, -12.50000000000000400, 35.45448267190462100 ) ) ;
#1114 = CARTESIAN_POINT ( 'NONE',  ( -16.00000000000000000, 2.602085213965210600E-015, 0.0000000000000000000 ) ) ;
#1115 = CARTESIAN_POINT ( 'NONE',  ( 2.710505431213761100E-017, -0.1386396103067861800, 0.0000000000000000000 ) ) ;
#1116 = DIRECTION ( 'NONE',  ( -0.0000000000000000000, -0.0000000000000000000, 1.000000000000000000 ) ) ;
#1117 = DIRECTION ( 'NONE',  ( -1.000000000000000000, 0.0000000000000000000, 0.0000000000000000000 ) ) ;
#1118 = CARTESIAN_POINT ( 'NONE',  ( -1.474999999999999600, -24.26137933202347700, 79.34854790610830800 ) ) ;
#1119 = DIRECTION ( 'NONE',  ( 1.000000000000000000, 1.084202172485504400E-016, 0.0000000000000000000 ) ) ;
#1120 = CARTESIAN_POINT ( 'NONE',  ( 18.83808595849784600, -16.83808595849763600, 51.64443987661929500 ) ) ;
#1121 = CARTESIAN_POINT ( 'NONE',  ( -16.82907090906802200, -14.82907090906768000, 44.14669363897676400 ) ) ;
#1122 = DIRECTION ( 'NONE',  ( 0.2505628070857325300, -0.2505628070857266500, 0.9351131265310305100 ) ) ;
#1123 = DIRECTION ( 'NONE',  ( -1.000000000000000000, -1.194301876748241600E-016, 2.202597335978692300E-014 ) ) ;
#1124 = CARTESIAN_POINT ( 'NONE',  ( 1.474999999999826000, -24.26137933202349500, 79.34854790610829400 ) ) ;
#1125 = DIRECTION ( 'NONE',  ( -4.317110322781076700E-015, -0.2588190451025143000, 0.9659258262890700900 ) ) ;
#1126 = CARTESIAN_POINT ( 'NONE',  ( -1.475000000001002800, -13.80000000000000600, 40.30614872174468400 ) ) ;
#1127 = CARTESIAN_POINT ( 'NONE',  ( -16.00000000000000000, 2.602085213965210600E-015, 82.50000000000000000 ) ) ;
#1128 = DIRECTION ( 'NONE',  ( 1.000000000000000000, 5.880418562633244000E-016, -2.377485591597888500E-014 ) ) ;
#1129 = DIRECTION ( 'NONE',  ( 0.0000000000000000000, -0.2588190451025143000, 0.9659258262890700900 ) ) ;
#1130 = CARTESIAN_POINT ( 'NONE',  ( 1.475000000000000500, -13.80000000000000400, 82.50000000000000000 ) ) ;
#1131 = DIRECTION ( 'NONE',  ( -0.2505628070857325900, -0.2505628070857239300, 0.9351131265310310700 ) ) ;
#1132 = CARTESIAN_POINT ( 'NONE',  ( 5.000000000000000900, 5.421010862427523200E-016, 0.0000000000000000000 ) ) ;
#1133 = DIRECTION ( 'NONE',  ( 0.2588190451025212900, 2.806121709807773800E-017, 0.9659258262890680900 ) ) ;
#1134 = CARTESIAN_POINT ( 'NONE',  ( 0.1810660171779854000, 2.602927380069418900E-015, 0.0000000000000000000 ) ) ;
#1135 = CARTESIAN_POINT ( 'NONE',  ( -1.474999999999999600, -13.80000000000000600, 82.50000000000000000 ) ) ;
#1136 = DIRECTION ( 'NONE',  ( -0.0000000000000000000, -0.0000000000000000000, 1.000000000000000000 ) ) ;
#1137 = DIRECTION ( 'NONE',  ( 1.000000000000000000, 1.084202172485504400E-016, 0.0000000000000000000 ) ) ;
#1138 = CARTESIAN_POINT ( 'NONE',  ( 16.00000000000000400, 6.071532165918824800E-015, 82.50000000000000000 ) ) ;
#1139 = DIRECTION ( 'NONE',  ( -0.0000000000000000000, -0.0000000000000000000, -1.000000000000000000 ) ) ;
#1140 = CARTESIAN_POINT ( 'NONE',  ( -1.474999999999999600, -13.80000000000000600, 82.50000000000000000 ) ) ;
#1141 = DIRECTION ( 'NONE',  ( -0.0000000000000000000, -0.0000000000000000000, -1.000000000000000000 ) ) ;
#1142 = CARTESIAN_POINT ( 'NONE',  ( -1.474999999999999600, -12.50000000000000500, 82.50000000000000000 ) ) ;
#1143 = CARTESIAN_POINT ( 'NONE',  ( 1.475000000000022300, -12.50000000000000500, 82.50000000000000000 ) ) ;
#1144 = DIRECTION ( 'NONE',  ( 0.0000000000000000000, -1.000000000000000000, 0.0000000000000000000 ) ) ;
#1145 = DIRECTION ( 'NONE',  ( -0.0000000000000000000, -0.0000000000000000000, -1.000000000000000000 ) ) ;
#1146 = DIRECTION ( 'NONE',  ( -0.2588190451025212900, -3.091080713041271500E-017, -0.9659258262890680900 ) ) ;
#1147 = DIRECTION ( 'NONE',  ( 1.000000000000000000, 5.880418562633244000E-016, 0.0000000000000000000 ) ) ;
#1148 = CARTESIAN_POINT ( 'NONE',  ( 1.475000000000022300, -12.50000000000000500, 82.50000000000000000 ) ) ;
#1149 = CARTESIAN_POINT ( 'NONE',  ( 26.36186027918563500, -12.50000000000000200, 79.72354790610808100 ) ) ;
#1150 = DIRECTION ( 'NONE',  ( -0.0000000000000000000, -0.0000000000000000000, -1.000000000000000000 ) ) ;
#1151 = DIRECTION ( 'NONE',  ( -1.668003342285392700E-014, -1.000000000000000000, 0.0000000000000000000 ) ) ;
#1152 = CARTESIAN_POINT ( 'NONE',  ( 15.99999999999999600, -12.50000000000000400, 82.50000000000000000 ) ) ;
#1153 = CARTESIAN_POINT ( 'NONE',  ( 15.99999999999999600, -12.50000000000000400, 82.50000000000000000 ) ) ;
#1154 = CARTESIAN_POINT ( 'NONE',  ( 7.499999999999984000, -12.50000000000000400, 52.50000000000000700 ) ) ;
#1155 = DIRECTION ( 'NONE',  ( -0.0000000000000000000, -1.000000000000000000, -0.0000000000000000000 ) ) ;
#1156 = DIRECTION ( 'NONE',  ( 0.0000000000000000000, 0.0000000000000000000, -1.000000000000000000 ) ) ;
#1157 = CARTESIAN_POINT ( 'NONE',  ( 15.99999999999999600, -12.50000000000000400, 82.50000000000000000 ) ) ;
#1158 = CARTESIAN_POINT ( 'NONE',  ( 15.99999999999999300, -9.499999999999998200, 82.50000000000000000 ) ) ;
#1159 = DIRECTION ( 'NONE',  ( -0.0000000000000000000, -0.0000000000000000000, -1.000000000000000000 ) ) ;
#1160 = DIRECTION ( 'NONE',  ( -1.000000000000000000, -1.194301876748234300E-016, 0.0000000000000000000 ) ) ;
#1161 = CARTESIAN_POINT ( 'NONE',  ( 16.00000000000000000, -13.80000000000000600, 41.05255888325755400 ) ) ;
#1162 = DIRECTION ( 'NONE',  ( -1.084202172485504400E-016, 1.000000000000000000, -0.0000000000000000000 ) ) ;
#1163 = CARTESIAN_POINT ( 'NONE',  ( 15.99999999999999300, -9.499999999999998200, 82.50000000000000000 ) ) ;
#1164 = CARTESIAN_POINT ( 'NONE',  ( 13.00000000000000200, -9.500000000000003600, 82.50000000000000000 ) ) ;
#1165 = DIRECTION ( 'NONE',  ( -0.0000000000000000000, -0.0000000000000000000, -1.000000000000000000 ) ) ;
#1166 = DIRECTION ( 'NONE',  ( -1.156482317317869200E-015, 1.000000000000000000, 0.0000000000000000000 ) ) ;
#1167 = CARTESIAN_POINT ( 'NONE',  ( 26.36186027918563500, -9.499999999999980500, 79.72354790610808100 ) ) ;
#1168 = DIRECTION ( 'NONE',  ( -0.2588190451025212900, -4.489794735692449900E-016, -0.9659258262890680900 ) ) ;
#1169 = CARTESIAN_POINT ( 'NONE',  ( 13.00000000000000200, -9.500000000000003600, 82.50000000000000000 ) ) ;
#1170 = CARTESIAN_POINT ( 'NONE',  ( 13.00000000000000200, -6.500000000000003600, 82.50000000000000000 ) ) ;
#1171 = DIRECTION ( 'NONE',  ( -0.0000000000000000000, -0.0000000000000000000, -1.000000000000000000 ) ) ;
#1172 = DIRECTION ( 'NONE',  ( -1.000000000000000000, -1.734723475976811800E-015, 0.0000000000000000000 ) ) ;
#1173 = CARTESIAN_POINT ( 'NONE',  ( 13.00000000000000200, -9.499999999999982200, 29.85640646055094600 ) ) ;
#1174 = DIRECTION ( 'NONE',  ( 0.0000000000000000000, 1.000000000000000000, 4.046297593392448000E-016 ) ) ;
#1175 = CARTESIAN_POINT ( 'NONE',  ( 13.00000000000000200, -6.500000000000003600, 82.50000000000000000 ) ) ;
#1176 = DIRECTION ( 'NONE',  ( 0.7071067811865556800, -0.7071067811865393600, 0.0000000000000000000 ) ) ;
#1177 = DIRECTION ( 'NONE',  ( -0.0000000000000000000, -0.0000000000000000000, -1.000000000000000000 ) ) ;
#1178 = DIRECTION ( 'NONE',  ( 0.0000000000000000000, 1.000000000000000000, 0.0000000000000000000 ) ) ;
#1179 = CARTESIAN_POINT ( 'NONE',  ( 26.16089838486228900, -6.500000000000033800, 78.97354790610808100 ) ) ;
#1180 = DIRECTION ( 'NONE',  ( 0.2588190451025212900, -5.986392980923259000E-016, 0.9659258262890680900 ) ) ;
#1181 = CARTESIAN_POINT ( 'NONE',  ( 15.99999999999999600, -6.500000000000009800, 82.50000000000000000 ) ) ;
#1182 = CARTESIAN_POINT ( 'NONE',  ( -0.1810660171779852900, 2.603039311876999800E-015, 82.50000000000000000 ) ) ;
#1183 = DIRECTION ( 'NONE',  ( -0.0000000000000000000, -0.0000000000000000000, -1.000000000000000000 ) ) ;
#1184 = DIRECTION ( 'NONE',  ( 1.000000000000000000, -2.312964634635746200E-015, 0.0000000000000000000 ) ) ;
#1185 = CARTESIAN_POINT ( 'NONE',  ( 15.99999999999999600, -6.499999999999827700, 41.05255888325753900 ) ) ;
#1186 = DIRECTION ( 'NONE',  ( 1.067522139062647900E-015, 1.000000000000000000, 4.388676620525645600E-015 ) ) ;
#1187 = CARTESIAN_POINT ( 'NONE',  ( 15.99999999999999600, -6.500000000000009800, 82.50000000000000000 ) ) ;
#1188 = DIRECTION ( 'NONE',  ( 1.067522139062647900E-015, 1.000000000000000000, 0.0000000000000000000 ) ) ;
#1189 = CARTESIAN_POINT ( 'NONE',  ( 0.1810660171779854000, 2.602927380069418900E-015, 82.50000000000000000 ) ) ;
#1190 = DIRECTION ( 'NONE',  ( -0.7071067811865557900, -0.7071067811865392500, 0.0000000000000000000 ) ) ;
#1191 = CARTESIAN_POINT ( 'NONE',  ( 2.710505431213761100E-017, -0.1386396103067861800, 82.50000000000000000 ) ) ;
#1192 = DIRECTION ( 'NONE',  ( 0.0000000000000000000, 0.0000000000000000000, -1.000000000000000000 ) ) ;
#1193 = DIRECTION ( 'NONE',  ( -1.000000000000000000, 0.0000000000000000000, 0.0000000000000000000 ) ) ;
#1194 = CARTESIAN_POINT ( 'NONE',  ( -0.02121320343559615600, -0.1598528137423828300, 0.0000000000000000000 ) ) ;
#1195 = DIRECTION ( 'NONE',  ( -0.0000000000000000000, -0.0000000000000000000, -1.000000000000000000 ) ) ;
#1196 = CARTESIAN_POINT ( 'NONE',  ( 0.02121320343559621200, -0.1598528137423828300, 0.0000000000000000000 ) ) ;
#1197 = DIRECTION ( 'NONE',  ( 0.0000000000000000000, 0.0000000000000000000, 1.000000000000000000 ) ) ;
#1198 = DIRECTION ( 'NONE',  ( -0.0000000000000000000, -0.0000000000000000000, -1.000000000000000000 ) ) ;
#1199 = CARTESIAN_POINT ( 'NONE',  ( -7.500000000000015100, -6.500000000000007100, 52.50000000000000700 ) ) ;
#1200 = DIRECTION ( 'NONE',  ( -0.0000000000000000000, -1.000000000000000000, -0.0000000000000000000 ) ) ;
#1201 = DIRECTION ( 'NONE',  ( 0.0000000000000000000, 0.0000000000000000000, -1.000000000000000000 ) ) ;
#1202 = CARTESIAN_POINT ( 'NONE',  ( -16.00000000000000000, -13.80000000000001000, 41.05255888325755400 ) ) ;
#1203 = CARTESIAN_POINT ( 'NONE',  ( -16.00000000000001800, -12.50000000000000000, 82.50000000000000000 ) ) ;
#1204 = CARTESIAN_POINT ( 'NONE',  ( 7.499999999999984000, -6.500000000000004400, 52.50000000000000700 ) ) ;
#1205 = DIRECTION ( 'NONE',  ( -0.0000000000000000000, -1.000000000000000000, -0.0000000000000000000 ) ) ;
#1206 = DIRECTION ( 'NONE',  ( 0.0000000000000000000, 0.0000000000000000000, -1.000000000000000000 ) ) ;
#1207 = DIRECTION ( 'NONE',  ( 0.0000000000000000000, -0.5150380749100556000, -0.8571673007021114500 ) ) ;
#1208 = DIRECTION ( 'NONE',  ( -1.084202172485504400E-016, 1.000000000000000000, -0.0000000000000000000 ) ) ;
#1209 = CARTESIAN_POINT ( 'NONE',  ( 7.499999999999984000, -12.50000000000000400, 53.75000000000000700 ) ) ;
#1210 = CARTESIAN_POINT ( 'NONE',  ( -26.36186027918563500, -12.49999999999999600, 79.72354790610808100 ) ) ;
#1211 = CARTESIAN_POINT ( 'NONE',  ( -7.500000000000015100, -6.500000000000007100, 51.25000000000000700 ) ) ;
#1212 = CARTESIAN_POINT ( 'NONE',  ( -7.500000000000015100, -12.50000000000000700, 52.50000000000000700 ) ) ;
#1213 = DIRECTION ( 'NONE',  ( -0.0000000000000000000, -1.000000000000000000, -0.0000000000000000000 ) ) ;
#1214 = DIRECTION ( 'NONE',  ( 0.0000000000000000000, 0.0000000000000000000, -1.000000000000000000 ) ) ;
#1215 = CARTESIAN_POINT ( 'NONE',  ( -16.00000000000001800, -12.50000000000000000, 82.50000000000000000 ) ) ;
#1216 = DIRECTION ( 'NONE',  ( 0.0000000000000000000, -0.5150380749100556000, -0.8571673007021114500 ) ) ;
#1217 = DIRECTION ( 'NONE',  ( 1.000000000000000000, -3.582905630244692900E-016, 0.0000000000000000000 ) ) ;
#1218 = DIRECTION ( 'NONE',  ( -0.0000000000000000000, -1.000000000000000000, -0.0000000000000000000 ) ) ;
#1219 = CARTESIAN_POINT ( 'NONE',  ( 7.499999999999984000, -6.500000000000004400, 51.25000000000000700 ) ) ;
#1220 = DIRECTION ( 'NONE',  ( -0.2588190451025212900, 9.273242139123787900E-017, 0.9659258262890680900 ) ) ;
#1221 = CARTESIAN_POINT ( 'NONE',  ( -1.474999999999999600, -12.50000000000000500, 82.50000000000000000 ) ) ;
#1222 = DIRECTION ( 'NONE',  ( -0.0000000000000000000, -0.0000000000000000000, -1.000000000000000000 ) ) ;
#1223 = CARTESIAN_POINT ( 'NONE',  ( -16.00000000000097000, -12.50000000000000000, 35.45448267190530300 ) ) ;
#1224 = DIRECTION ( 'NONE',  ( 1.000000000000000000, -3.582905630244692900E-016, -2.024309524634716700E-014 ) ) ;
#1225 = CARTESIAN_POINT ( 'NONE',  ( 1.475000000000022300, -12.50000000000000500, 82.50000000000000000 ) ) ;
#1226 = CARTESIAN_POINT ( 'NONE',  ( 0.02121320343559618400, -0.1598528137423828600, 0.0000000000000000000 ) ) ;
#1227 = CARTESIAN_POINT ( 'NONE',  ( 7.499999999999984000, -12.50000000000000400, 52.50000000000000700 ) ) ;
#1228 = DIRECTION ( 'NONE',  ( -0.0000000000000000000, -1.000000000000000000, -0.0000000000000000000 ) ) ;
#1229 = DIRECTION ( 'NONE',  ( 0.0000000000000000000, 0.0000000000000000000, -1.000000000000000000 ) ) ;
#1230 = CARTESIAN_POINT ( 'NONE',  ( -7.500000000000015100, -12.50000000000000700, 51.25000000000000700 ) ) ;
#1231 = DIRECTION ( 'NONE',  ( -0.0000000000000000000, -1.000000000000000000, -0.0000000000000000000 ) ) ;
#1232 = CARTESIAN_POINT ( 'NONE',  ( 14.50000000000010100, -12.50000000000000400, 35.45448267190462800 ) ) ;
#1233 = CARTESIAN_POINT ( 'NONE',  ( 16.00000000000000000, -9.500000000000001800, 41.05255888325755400 ) ) ;
#1234 = CARTESIAN_POINT ( 'NONE',  ( 5.000000000000002700, -3.000000000000121700, 0.0000000000000000000 ) ) ;
#1235 = CARTESIAN_POINT ( 'NONE',  ( -7.500000000000015100, -12.50000000000000700, 52.50000000000000700 ) ) ;
#1236 = DIRECTION ( 'NONE',  ( -0.0000000000000000000, -1.000000000000000000, -0.0000000000000000000 ) ) ;
#1237 = DIRECTION ( 'NONE',  ( 0.0000000000000000000, 0.0000000000000000000, -1.000000000000000000 ) ) ;
#1238 = CARTESIAN_POINT ( 'NONE',  ( -16.00000000000000000, -9.499999999999994700, 41.05255888325755400 ) ) ;
#1239 = CARTESIAN_POINT ( 'NONE',  ( -1.474999999999999600, -13.80000000000000600, 40.30614872174468400 ) ) ;
#1240 = CARTESIAN_POINT ( 'NONE',  ( -16.00000000000000000, -9.499999999999994700, 82.50000000000000000 ) ) ;
#1241 = CARTESIAN_POINT ( 'NONE',  ( -13.00000000000000000, -9.499999999999994700, 82.50000000000000000 ) ) ;
#1242 = CARTESIAN_POINT ( 'NONE',  ( 0.02121320343559618400, -0.1598528137423828600, 82.50000000000000000 ) ) ;
#1243 = CARTESIAN_POINT ( 'NONE',  ( -13.00000000000002100, -6.500000000000000900, 82.50000000000000000 ) ) ;
#1244 = CARTESIAN_POINT ( 'NONE',  ( -13.00000000000000000, -9.499999999999994700, 29.85640646055095400 ) ) ;
#1245 = CARTESIAN_POINT ( 'NONE',  ( -0.02121320343559615600, -0.1598528137423828300, 82.50000000000000000 ) ) ;
#1246 = CARTESIAN_POINT ( 'NONE',  ( 1.475000000000000500, -13.80000000000000200, 40.30614872174460600 ) ) ;
#1247 = CARTESIAN_POINT ( 'NONE',  ( 16.00000000000000000, -6.500000000000009800, 41.05255888325755400 ) ) ;
#1248 = CARTESIAN_POINT ( 'NONE',  ( 15.99999999999999600, -6.500000000000009800, 82.50000000000000000 ) ) ;
#1249 = CARTESIAN_POINT ( 'NONE',  ( 13.00000000000000200, -6.500000000000003600, 82.50000000000000000 ) ) ;
#1250 = CARTESIAN_POINT ( 'NONE',  ( 13.00000000000000400, -6.500000000000003600, 29.85640646055096800 ) ) ;
#1251 = CARTESIAN_POINT ( 'NONE',  ( -0.02121320343559615600, -0.1598528137423828300, 0.0000000000000000000 ) ) ;
#1252 = CARTESIAN_POINT ( 'NONE',  ( -16.00000000000001800, -6.500000000000005300, 82.50000000000000000 ) ) ;
#1253 = CARTESIAN_POINT ( 'NONE',  ( -13.00000000000002100, -6.500000000000000900, 29.85640646055102800 ) ) ;
#1254 = CARTESIAN_POINT ( 'NONE',  ( -0.1810660171779852900, 2.603039311876999800E-015, 82.50000000000000000 ) ) ;
#1255 = CARTESIAN_POINT ( 'NONE',  ( -4.999999999999990200, -3.000000000000060800, 0.0000000000000000000 ) ) ;
#1256 = CARTESIAN_POINT ( 'NONE',  ( 1.475000000000000500, -13.80000000000000400, 82.50000000000000000 ) ) ;
#1257 = CARTESIAN_POINT ( 'NONE',  ( 7.499999999999982200, -5.748924226215552700, 52.50000000000000700 ) ) ;
#1258 = CARTESIAN_POINT ( 'NONE',  ( 15.99999999999999600, -12.50000000000000400, 82.50000000000000000 ) ) ;
#1259 = CARTESIAN_POINT ( 'NONE',  ( 15.99999999999999300, -9.499999999999998200, 82.50000000000000000 ) ) ;
#1260 = CARTESIAN_POINT ( 'NONE',  ( 16.00000000000000400, 6.071532165918824800E-015, 82.50000000000000000 ) ) ;
#1261 = CARTESIAN_POINT ( 'NONE',  ( -16.00000000000000000, -6.500000000000005300, 41.05255888325755400 ) ) ;
#1262 = CARTESIAN_POINT ( 'NONE',  ( 5.000000000000000900, 5.421010862427523200E-016, 0.0000000000000000000 ) ) ;
#1263 = CARTESIAN_POINT ( 'NONE',  ( 1.475000000000021400, -12.50000000000000500, 35.45448267190494100 ) ) ;
#1264 = CARTESIAN_POINT ( 'NONE',  ( -16.00000000000000000, -1.734723475976807100E-015, 41.05255888325755400 ) ) ;
#1265 = CARTESIAN_POINT ( 'NONE',  ( 16.00000000000000400, 6.071532165918824800E-015, 41.05255888325755400 ) ) ;
#1266 = CARTESIAN_POINT ( 'NONE',  ( 7.499999999999984000, -12.50000000000000400, 51.25000000000000700 ) ) ;
#1267 = CARTESIAN_POINT ( 'NONE',  ( 7.499999999999984000, -12.50000000000000400, 53.75000000000000700 ) ) ;
#1268 = CARTESIAN_POINT ( 'NONE',  ( -0.1810660171779852900, 2.603039311876999800E-015, 0.0000000000000000000 ) ) ;
#1269 = CARTESIAN_POINT ( 'NONE',  ( 7.499999999999984000, -6.500000000000004400, 53.75000000000000700 ) ) ;
#1270 = CARTESIAN_POINT ( 'NONE',  ( -14.50000000000026600, -12.50000000000000200, 35.45448267190527500 ) ) ;
#1271 = CARTESIAN_POINT ( 'NONE',  ( 7.499999999999984000, -6.500000000000004400, 51.25000000000000700 ) ) ;
#1272 = CARTESIAN_POINT ( 'NONE',  ( -7.500000000000015100, -6.500000000000007100, 51.25000000000000700 ) ) ;
#1273 = CARTESIAN_POINT ( 'NONE',  ( -7.500000000000015100, -6.500000000000007100, 53.75000000000000700 ) ) ;
#1274 = CARTESIAN_POINT ( 'NONE',  ( -1.474999999999999600, -12.50000000000000700, 35.45448267190503300 ) ) ;
#1275 = CARTESIAN_POINT ( 'NONE',  ( -1.474999999999999600, -12.50000000000000500, 82.50000000000000000 ) ) ;
#1276 = CARTESIAN_POINT ( 'NONE',  ( -16.00000000000000000, -12.50000000000000000, 41.05255888325755400 ) ) ;
#1277 = CARTESIAN_POINT ( 'NONE',  ( -16.00000000000000000, 2.602085213965210600E-015, 82.50000000000000000 ) ) ;
#1278 = CARTESIAN_POINT ( 'NONE',  ( -1.474999999999999600, -13.80000000000000600, 82.50000000000000000 ) ) ;
#1279 = CARTESIAN_POINT ( 'NONE',  ( 0.1810660171779854000, 2.602927380069418900E-015, 82.50000000000000000 ) ) ;
#1280 = CARTESIAN_POINT ( 'NONE',  ( -7.500000000000015100, -12.50000000000000700, 51.25000000000000700 ) ) ;
#1281 = CARTESIAN_POINT ( 'NONE',  ( 0.1810660171779909200, 5.647666905384007500E-015, 0.0000000000000000000 ) ) ;
#1282 = CARTESIAN_POINT ( 'NONE',  ( -7.500000000000015100, -12.50000000000000700, 53.75000000000000700 ) ) ;
#1283 = CARTESIAN_POINT ( 'NONE',  ( -16.00000000000001800, -12.50000000000000000, 82.50000000000000000 ) ) ;
#1284 = CARTESIAN_POINT ( 'NONE',  ( -7.500000000000016900, -5.748924226215555300, 52.50000000000000700 ) ) ;
#1285 = CARTESIAN_POINT ( 'NONE',  ( 13.00000000000000200, -9.500000000000003600, 82.50000000000000000 ) ) ;
#1286 = CARTESIAN_POINT ( 'NONE',  ( 16.00000000000000000, -12.50000000000000400, 41.05255888325755400 ) ) ;
#1287 = CARTESIAN_POINT ( 'NONE',  ( 13.00000000000000200, -9.500000000000003600, 29.85640646055094600 ) ) ;
#1288 = CARTESIAN_POINT ( 'NONE',  ( -5.000000000000000900, -5.421010862427523200E-016, 0.0000000000000000000 ) ) ;
#1289 =( LENGTH_UNIT ( ) NAMED_UNIT ( * ) SI_UNIT ( .MILLI., .METRE. ) );
#1290 =( NAMED_UNIT ( * ) PLANE_ANGLE_UNIT ( ) SI_UNIT ( $, .RADIAN. ) );
#1291 =( NAMED_UNIT ( * ) SI_UNIT ( $, .STERADIAN. ) SOLID_ANGLE_UNIT ( ) );
#1292 = CARTESIAN_POINT ( 'NONE',  ( 0.0000000000000000000, 0.0000000000000000000, 0.0000000000000000000 ) ) ;
#1293 = DIRECTION ( 'NONE',  ( 0.0000000000000000000, 0.0000000000000000000, 1.000000000000000000 ) ) ;
#1294 = DIRECTION ( 'NONE',  ( 1.000000000000000000, 0.0000000000000000000, 0.0000000000000000000 ) ) ;
#1295 = CARTESIAN_POINT ( 'NONE',  ( 0.0000000000000000000, 0.0000000000000000000, 0.0000000000000000000 ) ) ;
#1296 = DIRECTION ( 'NONE',  ( 0.0000000000000000000, 0.0000000000000000000, 1.000000000000000000 ) ) ;
#1297 = DIRECTION ( 'NONE',  ( 1.000000000000000000, 0.0000000000000000000, 0.0000000000000000000 ) ) ;
#1298 = CARTESIAN_POINT ( 'NONE',  ( 1.758489612195161200, 6.299248500403543900, -1.011690731189673900E-011 ) ) ;
#1299 = DIRECTION ( 'NONE',  ( 0.0000000000000000000, 0.0000000000000000000, 1.000000000000000000 ) ) ;
#1300 = DIRECTION ( 'NONE',  ( 1.000000000000000000, 0.0000000000000000000, 0.0000000000000000000 ) ) ;
#1301 =( LENGTH_UNIT ( ) NAMED_UNIT ( * ) SI_UNIT ( .MILLI., .METRE. ) );
#1302 =( NAMED_UNIT ( * ) PLANE_ANGLE_UNIT ( ) SI_UNIT ( $, .RADIAN. ) );
#1303 =( NAMED_UNIT ( * ) SI_UNIT ( $, .STERADIAN. ) SOLID_ANGLE_UNIT ( ) );
#1304 = CARTESIAN_POINT ( 'NONE',  ( 0.0000000000000000000, 0.0000000000000000000, 0.0000000000000000000 ) ) ;
#1305 = DIRECTION ( 'NONE',  ( 0.0000000000000000000, 0.0000000000000000000, 1.000000000000000000 ) ) ;
#1306 = DIRECTION ( 'NONE',  ( 1.000000000000000000, 0.0000000000000000000, 0.0000000000000000000 ) ) ;
#1307 = CARTESIAN_POINT ( 'NONE',  ( -12.02278147578703500, 11.92355516967750300, -74.43913775163777300 ) ) ;
#1308 = DIRECTION ( 'NONE',  ( 0.0000000000000000000, 0.0000000000000000000, 1.000000000000000000 ) ) ;
#1309 = DIRECTION ( 'NONE',  ( 1.000000000000000000, 0.0000000000000000000, 0.0000000000000000000 ) ) ;
#1310 =( LENGTH_UNIT ( ) NAMED_UNIT ( * ) SI_UNIT ( .MILLI., .METRE. ) );
#1311 =( NAMED_UNIT ( * ) PLANE_ANGLE_UNIT ( ) SI_UNIT ( $, .RADIAN. ) );
#1312 =( NAMED_UNIT ( * ) SI_UNIT ( $, .STERADIAN. ) SOLID_ANGLE_UNIT ( ) );
#1313 = CARTESIAN_POINT ( 'NONE',  ( 0.0000000000000000000, 0.0000000000000000000, 0.0000000000000000000 ) ) ;
#1314 =( GEOMETRIC_REPRESENTATION_CONTEXT ( 3 ) GLOBAL_UNCERTAINTY_ASSIGNED_CONTEXT ( ( #144 ) ) GLOBAL_UNIT_ASSIGNED_CONTEXT ( ( #1301, #1302, #1303 ) ) REPRESENTATION_CONTEXT ( 'NONE', 'WORKASPACE' ) );
#1315 = NEXT_ASSEMBLY_USAGE_OCCURRENCE ( 'NAUO1', ' ', ' ', #568, #585, $ ) ;
#1316 = NEXT_ASSEMBLY_USAGE_OCCURRENCE ( 'NAUO2', ' ', ' ', #585, #602, $ ) ;
ENDSEC;
END-ISO-10303-21;
